<?xml version="1.0" encoding="utf-8"?>
<!-- Generator: Adobe Illustrator 19.0.0, SVG Export Plug-In . SVG Version: 6.00 Build 0)  -->
<svg version="1.1" id="图层_1" xmlns="http://www.w3.org/2000/svg" xmlns:xlink="http://www.w3.org/1999/xlink" x="0px" y="0px"
	 viewBox="0 0 282 335" style="enable-background:new 0 0 282 335;" xml:space="preserve">
<style type="text/css">
	.st0{clip-path:url(#SVGID_2_);}
	.st1{opacity:0.28;clip-path:url(#SVGID_4_);}
	.st2{clip-path:url(#SVGID_6_);}
	.st3{filter:url(#Adobe_OpacityMaskFilter);}
	.st4{clip-path:url(#SVGID_8_);fill:url(#SVGID_10_);}
	.st5{clip-path:url(#SVGID_8_);mask:url(#SVGID_9_);fill:url(#SVGID_11_);}
	.st6{clip-path:url(#SVGID_13_);fill:url(#SVGID_14_);}
	.st7{opacity:0.15;clip-path:url(#SVGID_16_);}
	.st8{clip-path:url(#SVGID_18_);fill:#50ACFF;}
	.st9{clip-path:url(#SVGID_20_);fill:#50ACFF;}
	.st10{clip-path:url(#SVGID_16_);fill:#B3B3C9;}
	.st11{opacity:0.4;clip-path:url(#SVGID_16_);}
	.st12{clip-path:url(#SVGID_22_);}
	.st13{clip-path:url(#SVGID_24_);fill:url(#SVGID_25_);}
	.st14{clip-path:url(#SVGID_16_);fill:#F2F2F2;}
	.st15{clip-path:url(#SVGID_27_);}
	.st16{clip-path:url(#SVGID_29_);fill:url(#SVGID_30_);}
	.st17{clip-path:url(#SVGID_16_);fill:#140937;}
	.st18{clip-path:url(#SVGID_32_);}
	.st19{clip-path:url(#SVGID_34_);fill:url(#SVGID_35_);}
	.st20{clip-path:url(#SVGID_37_);}
	.st21{clip-path:url(#SVGID_39_);fill:url(#SVGID_40_);}
	.st22{clip-path:url(#SVGID_42_);}
	.st23{clip-path:url(#SVGID_44_);fill:url(#SVGID_45_);}
	.st24{clip-path:url(#SVGID_47_);}
	.st25{clip-path:url(#SVGID_49_);fill:url(#SVGID_50_);}
	.st26{clip-path:url(#SVGID_52_);}
	.st27{clip-path:url(#SVGID_54_);fill:url(#SVGID_55_);}
	.st28{clip-path:url(#SVGID_57_);}
	.st29{opacity:0.15;clip-path:url(#SVGID_63_);}
	.st30{clip-path:url(#SVGID_65_);}
	.st31{clip-path:url(#SVGID_69_);}
	.st32{opacity:0.71;clip-path:url(#SVGID_63_);}
	.st33{clip-path:url(#SVGID_73_);fill:#50ACFF;}
	.st34{clip-path:url(#SVGID_75_);fill:#50ACFF;}
	.st35{clip-path:url(#SVGID_77_);fill:#50ACFF;}
	.st36{opacity:0.29;clip-path:url(#SVGID_63_);}
	.st37{clip-path:url(#SVGID_79_);fill:#50ACFF;}
	.st38{clip-path:url(#SVGID_81_);fill:#50ACFF;}
	.st39{clip-path:url(#SVGID_83_);fill:#50ACFF;}
	.st40{clip-path:url(#SVGID_85_);fill:#50ACFF;}
	.st41{opacity:0.28;clip-path:url(#SVGID_63_);}
	.st42{clip-path:url(#SVGID_87_);}
	.st43{filter:url(#Adobe_OpacityMaskFilter_1_);}
	.st44{clip-path:url(#SVGID_89_);fill:url(#SVGID_91_);}
	.st45{clip-path:url(#SVGID_89_);mask:url(#SVGID_90_);fill:url(#SVGID_92_);}
	.st46{filter:url(#Adobe_OpacityMaskFilter_2_);}
	.st47{clip-path:url(#SVGID_94_);fill:url(#SVGID_96_);}
	.st48{clip-path:url(#SVGID_94_);mask:url(#SVGID_95_);fill:url(#SVGID_97_);}
	.st49{filter:url(#Adobe_OpacityMaskFilter_3_);}
	.st50{clip-path:url(#SVGID_99_);fill:url(#SVGID_101_);}
	.st51{clip-path:url(#SVGID_99_);mask:url(#SVGID_100_);fill:url(#SVGID_102_);}
	.st52{filter:url(#Adobe_OpacityMaskFilter_4_);}
	.st53{clip-path:url(#SVGID_104_);fill:url(#SVGID_106_);}
	.st54{clip-path:url(#SVGID_104_);mask:url(#SVGID_105_);fill:url(#SVGID_107_);}
</style>
<g>
	<g>
		<defs>
			<rect id="SVGID_1_" x="16" width="249.9" height="335"/>
		</defs>
		<clipPath id="SVGID_2_">
			<use xlink:href="#SVGID_1_"  style="overflow:visible;"/>
		</clipPath>
		<g class="st0">
			<defs>
				<rect id="SVGID_3_" x="16" width="249.9" height="335"/>
			</defs>
			<clipPath id="SVGID_4_">
				<use xlink:href="#SVGID_3_"  style="overflow:visible;"/>
			</clipPath>
			<g class="st1">
				<g>
					<defs>
						<rect id="SVGID_5_" x="16" width="249.9" height="326.3"/>
					</defs>
					<clipPath id="SVGID_6_">
						<use xlink:href="#SVGID_5_"  style="overflow:visible;"/>
					</clipPath>
					<g class="st2">
						<defs>
							<path id="SVGID_7_" d="M72.3,314.6L16,3.2L266,0l-36,314.6C226.6,328.9,82.7,331.3,72.3,314.6"/>
						</defs>
						<clipPath id="SVGID_8_">
							<use xlink:href="#SVGID_7_"  style="overflow:visible;"/>
						</clipPath>
						<defs>
							<filter id="Adobe_OpacityMaskFilter" filterUnits="userSpaceOnUse" x="11.4" y="-3.5" width="259.1" height="338.2">
								<feColorMatrix  type="matrix" values="1 0 0 0 0  0 1 0 0 0  0 0 1 0 0  0 0 0 1 0"/>
							</filter>
						</defs>
						<mask maskUnits="userSpaceOnUse" x="11.4" y="-3.5" width="259.1" height="338.2" id="SVGID_9_">
							<g class="st3">
								
									<linearGradient id="SVGID_10_" gradientUnits="userSpaceOnUse" x1="-3.739756e-002" y1="406.177" x2="0.7873" y2="406.177" gradientTransform="matrix(-4.5914 330.5887 330.5887 4.5914 -134135.2344 -1793.6597)">
									<stop  offset="0" style="stop-color:#000000"/>
									<stop  offset="1" style="stop-color:#FFFFFF"/>
								</linearGradient>
								<polygon class="st4" points="270.6,0.1 265.9,334.7 11.4,331.2 16.1,-3.5 								"/>
							</g>
						</mask>
						
							<linearGradient id="SVGID_11_" gradientUnits="userSpaceOnUse" x1="-3.739756e-002" y1="406.177" x2="0.7873" y2="406.177" gradientTransform="matrix(-4.5914 330.5887 330.5887 4.5914 -134135.2344 -1793.6597)">
							<stop  offset="0" style="stop-color:#5BDAFA"/>
							<stop  offset="1" style="stop-color:#009FD7"/>
						</linearGradient>
						<polygon class="st5" points="270.6,0.1 265.9,334.7 11.4,331.2 16.1,-3.5 						"/>
					</g>
				</g>
			</g>
		</g>
		<g class="st0">
			<defs>
				<path id="SVGID_12_" d="M96.4,312.7c0,3.6,24.9,6.4,55.6,6.4c30.7,0,55.6-2.9,55.6-6.4c0-3.6-24.9-6.4-55.6-6.4
					C121.3,306.2,96.4,309.1,96.4,312.7"/>
			</defs>
			<clipPath id="SVGID_13_">
				<use xlink:href="#SVGID_12_"  style="overflow:visible;"/>
			</clipPath>
			
				<linearGradient id="SVGID_14_" gradientUnits="userSpaceOnUse" x1="3.1943" y1="406.5229" x2="4.0191" y2="406.5229" gradientTransform="matrix(-1.9071 -21.9316 -21.9316 1.9071 9075.0283 -378.4805)">
				<stop  offset="0" style="stop-color:#41DAFA"/>
				<stop  offset="0.9988" style="stop-color:#2963D7"/>
				<stop  offset="1" style="stop-color:#2963D7"/>
			</linearGradient>
			<polygon class="st6" points="97.2,328.7 95.3,306.3 206.8,296.6 208.8,319 			"/>
		</g>
		<g class="st0">
			<defs>
				<rect id="SVGID_15_" x="16" width="249.9" height="335"/>
			</defs>
			<clipPath id="SVGID_16_">
				<use xlink:href="#SVGID_15_"  style="overflow:visible;"/>
			</clipPath>
			<g class="st7">
				<g>
					<defs>
						<rect id="SVGID_17_" x="72.3" y="302.6" width="157.7" height="24.1"/>
					</defs>
					<clipPath id="SVGID_18_">
						<use xlink:href="#SVGID_17_"  style="overflow:visible;"/>
					</clipPath>
					<path class="st8" d="M230,314.6c0,6.6-35.3,12-78.9,12c-43.6,0-78.9-5.4-78.9-12s35.3-12,78.9-12
						C194.7,302.6,230,308,230,314.6"/>
				</g>
			</g>
			<g class="st7">
				<g>
					<defs>
						<rect id="SVGID_19_" x="47.5" y="304.6" width="206.8" height="30.4"/>
					</defs>
					<clipPath id="SVGID_20_">
						<use xlink:href="#SVGID_19_"  style="overflow:visible;"/>
					</clipPath>
					<path class="st9" d="M254.2,319.8c0,8.4-46.3,15.2-103.4,15.2c-57.1,0-103.4-6.8-103.4-15.2c0-8.4,46.3-15.2,103.4-15.2
						C207.9,304.6,254.2,311.4,254.2,319.8"/>
				</g>
			</g>
			<polygon class="st10" points="129.2,184.4 142.8,218.2 147.1,215.3 132,175 			"/>
			<g class="st11">
				<g>
					<defs>
						<rect id="SVGID_21_" x="131.9" y="135.8" width="45.1" height="39"/>
					</defs>
					<clipPath id="SVGID_22_">
						<use xlink:href="#SVGID_21_"  style="overflow:visible;"/>
					</clipPath>
					<g class="st12">
						<defs>
							<path id="SVGID_23_" d="M177.1,139c0,0-0.2,2.1-0.8,5.1c-3.5,20-22.6,33.8-42.6,30.1c-0.6-0.1-1.2-0.2-1.8-0.4l2.1-28.2
								l28.6-9.8L177.1,139z"/>
						</defs>
						<clipPath id="SVGID_24_">
							<use xlink:href="#SVGID_23_"  style="overflow:visible;"/>
						</clipPath>
						
							<linearGradient id="SVGID_25_" gradientUnits="userSpaceOnUse" x1="0.8203" y1="405.8789" x2="1.645" y2="405.8789" gradientTransform="matrix(-33.0515 -31.1003 -31.1003 33.0515 12820.4365 -13217.6436)">
							<stop  offset="0" style="stop-color:#41DAFA"/>
							<stop  offset="0.9988" style="stop-color:#2963D7"/>
							<stop  offset="1" style="stop-color:#2963D7"/>
						</linearGradient>
						<polygon class="st13" points="155.9,200.4 110.9,158.1 153.1,113.3 198.1,155.6 						"/>
					</g>
				</g>
			</g>
			<path class="st14" d="M97.1,199.8c1.9,5.4,7.8,8.3,13.2,6.6c9.2-3,21.3-9.3,21.4-22c0.3-20.5,5.6-33.9,18.9-37.2
				c8.9-2.2,17.7-3.6,22.6-4.3c2.3-0.3,3.9-2.4,3.5-4.7c-1.6-11.6-9.7-43.3-49.8-41.4c-49,2.2-46.8,42.6-46.8,42.6
				c0.3,8.9,1.9,17.7,4.8,26.1L97.1,199.8z"/>
			<g class="st11">
				<g>
					<defs>
						<rect id="SVGID_26_" x="101.6" y="107.1" width="60.5" height="39.6"/>
					</defs>
					<clipPath id="SVGID_27_">
						<use xlink:href="#SVGID_26_"  style="overflow:visible;"/>
					</clipPath>
					<g class="st15">
						<defs>
							<path id="SVGID_28_" d="M121.6,107.9c0,0-24.9,5.3-19.1,25s22.6,13.4,26.9,10.4c2.6-1.8,6.2-5.6,17.7-6.1
								c11.5-0.5,16.2-9.4,14.8-15.1C159.9,114.6,151.8,104.1,121.6,107.9"/>
						</defs>
						<clipPath id="SVGID_29_">
							<use xlink:href="#SVGID_28_"  style="overflow:visible;"/>
						</clipPath>
						
							<linearGradient id="SVGID_30_" gradientUnits="userSpaceOnUse" x1="-1.807358e-002" y1="406.5507" x2="0.8066" y2="406.5507" gradientTransform="matrix(73.3762 -2.2318 -2.2318 -73.3762 1010.2858 29960.3047)">
							<stop  offset="0" style="stop-color:#41DAFA"/>
							<stop  offset="0.9988" style="stop-color:#2963D7"/>
							<stop  offset="1" style="stop-color:#2963D7"/>
						</linearGradient>
						<polygon class="st16" points="95.2,104.1 163.2,102 164.7,152.6 96.8,154.7 						"/>
					</g>
				</g>
			</g>
			<path class="st17" d="M169.8,166.2c0.2,6.3-4.8,11.6-11.1,11.8c-6.3,0.2-11.6-4.8-11.8-11.1c-0.2-6.3,4.8-11.6,11.1-11.8
				C164.3,154.9,169.6,159.9,169.8,166.2"/>
			<g class="st11">
				<g>
					<defs>
						<rect id="SVGID_31_" x="150.8" y="159.1" width="14.9" height="14.9"/>
					</defs>
					<clipPath id="SVGID_32_">
						<use xlink:href="#SVGID_31_"  style="overflow:visible;"/>
					</clipPath>
					<g class="st18">
						<defs>
							<path id="SVGID_33_" d="M165.8,166.4c0.1,4.1-3.1,7.6-7.2,7.7c-4.1,0.1-7.6-3.1-7.7-7.2c-0.1-4.1,3.1-7.6,7.2-7.7
								C162.2,159,165.7,162.2,165.8,166.4"/>
						</defs>
						<clipPath id="SVGID_34_">
							<use xlink:href="#SVGID_33_"  style="overflow:visible;"/>
						</clipPath>
						
							<linearGradient id="SVGID_35_" gradientUnits="userSpaceOnUse" x1="-0.6368" y1="408.179" x2="0.1879" y2="408.179" gradientTransform="matrix(18.1102 -0.5508 -0.5508 -18.1102 387.2131 7558.6558)">
							<stop  offset="0" style="stop-color:#41DAFA"/>
							<stop  offset="0.9988" style="stop-color:#2963D7"/>
							<stop  offset="1" style="stop-color:#2963D7"/>
						</linearGradient>
						<polygon class="st19" points="150.3,159 165.9,158.5 166.4,174.2 150.7,174.6 						"/>
					</g>
				</g>
			</g>
			<g class="st11">
				<g>
					<defs>
						<rect id="SVGID_36_" x="152.9" y="161.2" width="10.8" height="10.8"/>
					</defs>
					<clipPath id="SVGID_37_">
						<use xlink:href="#SVGID_36_"  style="overflow:visible;"/>
					</clipPath>
					<g class="st20">
						<defs>
							<path id="SVGID_38_" d="M163.7,166.4c0.1,3-2.2,5.5-5.2,5.6c-3,0.1-5.5-2.3-5.6-5.2c-0.1-3,2.3-5.5,5.2-5.6
								C161.1,161.1,163.6,163.4,163.7,166.4"/>
						</defs>
						<clipPath id="SVGID_39_">
							<use xlink:href="#SVGID_38_"  style="overflow:visible;"/>
						</clipPath>
						
							<linearGradient id="SVGID_40_" gradientUnits="userSpaceOnUse" x1="-0.9154" y1="408.9394" x2="-9.068570e-002" y2="408.9394" gradientTransform="matrix(13.0796 -0.3978 -0.3978 -13.0796 327.5768 5515.1401)">
							<stop  offset="0" style="stop-color:#41DAFA"/>
							<stop  offset="0.9988" style="stop-color:#2963D7"/>
							<stop  offset="1" style="stop-color:#2963D7"/>
						</linearGradient>
						<polygon class="st21" points="152.5,161.1 163.8,160.8 164.1,172.1 152.8,172.4 						"/>
					</g>
				</g>
			</g>
			<path class="st10" d="M155.9,168.5l16.1,44.5l4.2-1l-14.5-45.4c-0.5-1.7-2.4-2.5-4-1.9C156.1,165.3,155.3,166.9,155.9,168.5"/>
			<path class="st17" d="M81.4,152l14.8-6c4-1.6,8.6,0.1,10.6,3.9c2.2,4.2,0.5,9.5-3.8,11.6l-16.7,7.3
				C86.2,168.8,82.5,162.1,81.4,152"/>
			<g class="st11">
				<g>
					<defs>
						<rect id="SVGID_41_" x="91" y="152.6" width="5.4" height="7.6"/>
					</defs>
					<clipPath id="SVGID_42_">
						<use xlink:href="#SVGID_41_"  style="overflow:visible;"/>
					</clipPath>
					<g class="st22">
						<defs>
							<path id="SVGID_43_" d="M96.1,155.6c0.7,2.1,0.1,4.1-1.2,4.5c-1.3,0.4-3-0.9-3.6-2.9c-0.7-2.1-0.1-4.1,1.2-4.5
								C93.8,152.2,95.4,153.5,96.1,155.6"/>
						</defs>
						<clipPath id="SVGID_44_">
							<use xlink:href="#SVGID_43_"  style="overflow:visible;"/>
						</clipPath>
						
							<linearGradient id="SVGID_45_" gradientUnits="userSpaceOnUse" x1="0.1716" y1="411.3366" x2="0.9963" y2="411.3366" gradientTransform="matrix(6.4695 -0.1968 -0.1968 -6.4695 170.8237 2817.625)">
							<stop  offset="0" style="stop-color:#41DAFA"/>
							<stop  offset="0.9988" style="stop-color:#2963D7"/>
							<stop  offset="1" style="stop-color:#2963D7"/>
						</linearGradient>
						<polygon class="st23" points="90.3,152.2 96.7,152 97,160.5 90.6,160.7 						"/>
					</g>
				</g>
			</g>
			<path class="st10" d="M147.2,147.9c-0.1,0.1-2-2.1-4.3-4.9c-2.3-2.8-4.1-5.1-4-5.1c0.1-0.1,2,2.1,4.3,4.9
				C145.5,145.6,147.3,147.9,147.2,147.9"/>
			<path class="st10" d="M101.7,124.2c0,0-0.1,0.4-0.3,1c-0.2,0.6-0.6,1.6-1.2,2.6c-0.6,1.1-1.5,2.3-2.6,3.4
				c-1.2,1.1-2.7,2.2-4.4,2.9c-1.8,0.7-3.6,0.8-5.2,0.7c-1.6-0.2-3-0.7-4.1-1.3c-1.1-0.6-1.8-1.3-2.3-1.8c-0.2-0.2-0.4-0.5-0.5-0.6
				c-0.1-0.1-0.2-0.2-0.1-0.2c0.1-0.1,0.9,1.3,3.1,2.4c1.1,0.6,2.4,1,4,1.1c1.6,0.1,3.3,0,5-0.7c3.4-1.3,5.7-4,6.9-6
				C101.2,125.7,101.6,124.2,101.7,124.2"/>
			<path class="st10" d="M167.1,114.3c0.1,0.1-1.4,1.3-3.5,2.2c-2.1,0.9-3.9,1.2-4,1c0-0.1,1.7-0.5,3.8-1.4
				C165.5,115.2,167,114.2,167.1,114.3"/>
			<path class="st10" d="M143.7,145c0,0-0.1,0-0.2,0.1c-0.2,0.1-0.4,0.1-0.6,0.2c-0.6,0.2-1.4,0.4-2.4,0.7c-1,0.3-2.3,0.7-3.7,1.3
				c-1.4,0.6-3,1.4-4.6,2.5c-1.6,1.1-3.2,2.6-4.3,4.5c-1.2,1.9-1.7,4.4-1.8,6.9c-0.1,2.6,0.2,5.2,0.5,8c0.2,2.8,0.4,5.7,0.2,8.7
				c-0.3,5.9-1.9,11.7-4.9,15.9c-3,4.3-7,7-10.6,8.6c-1.8,0.8-3.5,1.3-5,1.6c-0.8,0.1-1.5,0.3-2.1,0.3c-0.7,0.1-1.3,0.1-1.8,0.1
				c-0.5,0-1,0-1.5,0c-0.4,0-0.8-0.1-1.1-0.1c-0.3,0-0.5,0-0.7-0.1c-0.1,0-0.2,0-0.2,0c0,0,0.1,0,0.2,0c0.2,0,0.4,0,0.7,0
				c0.3,0,0.6,0,1.1,0c0.4,0,0.9,0,1.4-0.1c0.5,0,1.1-0.1,1.8-0.2c0.7-0.1,1.4-0.2,2.1-0.4c1.5-0.4,3.2-0.9,4.9-1.7
				c3.5-1.6,7.4-4.3,10.4-8.5c3-4.2,4.5-9.8,4.8-15.7c0.2-3,0.1-5.8-0.2-8.6c-0.2-2.8-0.5-5.5-0.4-8.1c0.1-2.6,0.7-5.1,1.9-7.1
				c1.2-2,2.8-3.5,4.4-4.6c1.6-1.1,3.2-1.9,4.7-2.4c1.4-0.6,2.7-1,3.8-1.3c1-0.3,1.9-0.5,2.4-0.7c0.3-0.1,0.5-0.1,0.6-0.2
				C143.6,145,143.7,144.9,143.7,145"/>
			<path class="st14" d="M204,277.5l-107-0.7l21.6-35.3c9.3-15.3,24.5-26.1,42-30h0c17.1-3.8,34.6,5.5,40.5,22.1
				c0.8,2.2,1.4,4.5,1.9,6.9C206.5,260.9,204,277.5,204,277.5"/>
			<g class="st11">
				<g>
					<defs>
						<rect id="SVGID_46_" x="109" y="236.7" width="35.4" height="20.4"/>
					</defs>
					<clipPath id="SVGID_47_">
						<use xlink:href="#SVGID_46_"  style="overflow:visible;"/>
					</clipPath>
					<g class="st24">
						<defs>
							<path id="SVGID_48_" d="M109,257.1l26.3-1.1c5.3-0.2,9.4-4.6,9.2-9.9c-0.2-5.1-4.3-9.1-9.4-9.2l-13.3-0.3L109,257.1z"/>
						</defs>
						<clipPath id="SVGID_49_">
							<use xlink:href="#SVGID_48_"  style="overflow:visible;"/>
						</clipPath>
						
							<linearGradient id="SVGID_50_" gradientUnits="userSpaceOnUse" x1="-4.737777e-002" y1="407.4075" x2="0.7773" y2="407.4075" gradientTransform="matrix(43.3263 -1.3178 -1.3178 -43.3263 647.5837 17898.834)">
							<stop  offset="0" style="stop-color:#41DAFA"/>
							<stop  offset="0.9988" style="stop-color:#2963D7"/>
							<stop  offset="1" style="stop-color:#2963D7"/>
						</linearGradient>
						<polygon class="st25" points="108.3,236.7 144.5,235.6 145.2,257.1 109,258.2 						"/>
					</g>
				</g>
			</g>
			<path class="st10" d="M192.3,242.8c0,0,0-0.1,0-0.3c0-0.2,0-0.4-0.1-0.7c0-0.3-0.1-0.7-0.2-1.2c-0.1-0.5-0.2-1-0.4-1.6
				c-0.3-1.2-0.9-2.6-1.9-4.1c-0.9-1.5-2.3-3-4.1-4.3c-1.8-1.3-4-2.3-6.6-2.7c-2.5-0.4-5.4-0.2-8.1,0.9c-1.4,0.5-2.7,1.3-3.8,2.2
				c-0.6,0.4-1.1,1-1.7,1.5c-0.5,0.6-1,1.2-1.5,1.8c-1.8,2.6-2.8,5.9-2.7,9.2c0.1,3.3,1.3,6.6,3.3,9c0.5,0.6,1,1.2,1.6,1.7
				c0.6,0.5,1.2,1,1.8,1.4c1.2,0.9,2.6,1.5,4,2c2.7,1,5.6,0.9,8.1,0.4c2.5-0.5,4.7-1.7,6.4-3.1c1.7-1.4,3-3,3.8-4.5
				c0.8-1.5,1.4-3,1.6-4.2c0.2-0.6,0.2-1.1,0.3-1.6c0.1-0.5,0.1-0.9,0.1-1.2c0-0.3,0-0.6,0-0.7C192.3,242.9,192.3,242.8,192.3,242.8
				c0,0,0,0.1,0,0.3c0,0.2,0,0.4,0,0.7c0,0.3,0,0.7-0.1,1.2c-0.1,0.5-0.1,1-0.2,1.6c-0.2,1.2-0.7,2.7-1.6,4.3
				c-0.8,1.6-2.1,3.2-3.8,4.6c-1.7,1.4-3.9,2.6-6.5,3.2c-2.6,0.5-5.5,0.6-8.3-0.4c-1.4-0.4-2.8-1.1-4.1-2c-0.7-0.4-1.2-1-1.8-1.5
				c-0.6-0.6-1.1-1.1-1.6-1.8c-2-2.5-3.2-5.8-3.4-9.3c-0.1-3.4,0.9-6.8,2.8-9.4c0.4-0.7,1-1.3,1.5-1.9c0.6-0.5,1.1-1.1,1.8-1.6
				c1.2-1,2.6-1.7,3.9-2.3c2.8-1.1,5.7-1.3,8.3-0.9c2.6,0.4,4.9,1.5,6.7,2.8c1.8,1.3,3.2,2.9,4.1,4.4c0.9,1.5,1.5,2.9,1.8,4.2
				c0.2,0.6,0.3,1.1,0.3,1.6c0.1,0.5,0.1,0.9,0.1,1.2c0,0.3,0,0.6,0,0.7C192.3,242.7,192.3,242.8,192.3,242.8"/>
			<path class="st10" d="M196.7,242.7c0,0,0-0.1,0-0.3c0-0.2-0.1-0.5-0.1-0.9c0-0.2,0-0.4-0.1-0.7c0-0.3-0.1-0.5-0.2-0.8
				c-0.1-0.6-0.2-1.3-0.5-2c-0.4-1.5-1.2-3.3-2.4-5.2c-1.2-1.9-2.9-3.8-5.2-5.5c-2.3-1.6-5.2-3-8.4-3.4c-3.3-0.5-6.9-0.2-10.3,1.2
				c-0.9,0.3-1.7,0.8-2.5,1.2c-0.8,0.5-1.6,1-2.4,1.6c-0.8,0.6-1.5,1.3-2.2,2c-0.6,0.8-1.3,1.5-1.9,2.3c-1.1,1.7-2.1,3.5-2.7,5.5
				c-0.6,2-0.9,4.1-0.8,6.3c0.1,2.1,0.5,4.2,1.2,6.2c0.7,2,1.8,3.8,3,5.4c0.6,0.8,1.3,1.5,2,2.2c0.8,0.6,1.5,1.3,2.3,1.8
				c0.8,0.6,1.6,1,2.5,1.5c0.9,0.4,1.7,0.8,2.6,1.1c3.5,1.2,7.2,1.2,10.4,0.6c3.2-0.7,6-2.2,8.2-3.9c2.2-1.8,3.8-3.8,4.9-5.8
				c1.1-2,1.7-3.8,2.1-5.3c0.2-0.8,0.3-1.5,0.4-2.1c0-0.3,0.1-0.6,0.1-0.8c0-0.3,0-0.5,0-0.7c0-0.4,0-0.7,0-0.9
				C196.6,242.8,196.6,242.7,196.7,242.7c0,0,0,0.1,0,0.3c0,0.2,0,0.6,0,1c0,0.2,0,0.4,0,0.7c0,0.3-0.1,0.5-0.1,0.8
				c-0.1,0.6-0.1,1.3-0.3,2.1c-0.3,1.6-0.9,3.4-2,5.4c-1.1,2-2.7,4.1-4.9,5.9c-2.2,1.8-5,3.3-8.3,4c-3.3,0.7-7,0.7-10.6-0.5
				c-0.9-0.3-1.8-0.7-2.7-1.1c-0.8-0.5-1.7-0.9-2.5-1.5c-0.8-0.5-1.6-1.2-2.3-1.9c-0.7-0.7-1.4-1.4-2-2.3c-1.3-1.6-2.4-3.4-3.1-5.5
				c-0.7-2-1.1-4.1-1.2-6.3c0-2.2,0.3-4.3,0.8-6.4c0.6-2.1,1.6-3.9,2.7-5.6c0.6-0.9,1.3-1.6,1.9-2.4c0.7-0.7,1.4-1.4,2.2-2
				c0.8-0.6,1.6-1.1,2.4-1.7c0.9-0.4,1.7-0.9,2.6-1.2c3.5-1.4,7.2-1.7,10.5-1.2c3.3,0.5,6.2,1.9,8.6,3.5c2.3,1.7,4,3.7,5.2,5.6
				c1.2,1.9,2,3.7,2.3,5.3c0.2,0.8,0.3,1.5,0.4,2.1c0,0.3,0.1,0.6,0.1,0.8c0,0.3,0,0.5,0,0.7c0,0.4,0,0.7,0.1,1
				C196.7,242.6,196.7,242.7,196.7,242.7"/>
			<path class="st10" d="M158.3,276.9c-0.1,0-0.6-7.5-1-16.7c-0.5-9.2-0.7-16.7-0.6-16.7c0.1,0,0.6,7.5,1,16.7
				C158.1,269.4,158.4,276.9,158.3,276.9"/>
			<path class="st10" d="M194,277.4c0,0,0-0.5,0-1.4c0.1-1,0.1-2.2,0.2-3.7c0.2-3.2,0.5-7.5,0.8-12.3c0.3-4.8,0.7-9.1,1-12.3
				c0.1-1.6,0.3-2.8,0.4-3.7c0.1-0.9,0.2-1.4,0.2-1.4c0,0,0,0.5,0,1.4c-0.1,1-0.1,2.2-0.2,3.7c-0.2,3.2-0.5,7.5-0.8,12.3
				c-0.3,4.8-0.7,9.1-1,12.3c-0.1,1.6-0.3,2.8-0.4,3.7C194.1,276.9,194.1,277.4,194,277.4"/>
			<path class="st10" d="M196.7,242.7c0,0.1-1.1-0.1-2.8-0.2c-1.7-0.1-4.2-0.2-6.8-0.3c-2.6-0.1-5-0.1-6.9-0.2
				c-1.8,0-2.8-0.1-2.8-0.2c0-0.1,1.1-0.1,2.8-0.1c1.8,0,4.2,0,6.9,0.1c2.7,0.1,5.1,0.2,6.9,0.4c0.9,0.1,1.6,0.2,2.1,0.3
				C196.4,242.6,196.7,242.7,196.7,242.7"/>
			<path class="st10" d="M200.7,277.5c0,0,0-0.1,0-0.4c0-0.3,0.1-0.7,0.1-1.2c0.1-1,0.3-2.6,0.4-4.6c0.3-4,0.5-9.8,0-16.9
				c-0.2-3.6-0.6-7.5-1.2-11.6c-0.6-4.1-1.3-8.6-3.3-12.9c-1-2.1-2.4-4.1-4.2-5.8c-0.9-0.8-1.9-1.6-3-2.2c-1.1-0.6-2.2-1.2-3.4-1.7
				c-4.8-1.9-10.2-2.4-15.6-1.9c-2.7,0.3-5.3,0.9-7.7,2.1c-2.4,1.2-4.3,3-5.7,5.2c-1.4,2.1-2.3,4.5-3,6.9c-0.6,2.4-1,4.8-1.3,7.1
				c-0.3,2.3-0.5,4.7-0.7,6.9c-0.3,2.2-0.7,4.4-1.2,6.4c-1.1,4.1-2.7,7.7-4.5,10.8c-1.9,3.1-4.1,5.5-6.2,7.4c-2.2,1.9-4.3,3.2-6.1,4
				c-1.8,0.9-3.3,1.4-4.3,1.7c-1,0.3-1.6,0.4-1.6,0.4s0.1,0,0.4-0.1c0.3-0.1,0.6-0.2,1.1-0.3c1-0.3,2.5-0.8,4.3-1.7
				c1.8-0.9,3.9-2.2,6-4.1c2.1-1.9,4.2-4.4,6.1-7.4c1.8-3.1,3.4-6.7,4.4-10.7c0.5-2,0.9-4.2,1.2-6.4c0.3-2.2,0.5-4.5,0.7-6.9
				c0.3-2.4,0.6-4.8,1.2-7.2c0.6-2.4,1.6-4.8,3-7c1.4-2.2,3.4-4.1,5.8-5.3c2.4-1.2,5.1-1.9,7.8-2.2c5.5-0.5,10.9,0,15.8,2
				c1.2,0.5,2.4,1.1,3.4,1.7c1.1,0.7,2.1,1.4,3,2.3c1.8,1.7,3.2,3.8,4.3,5.9c2.1,4.3,2.8,8.9,3.3,13c0.5,4.2,0.9,8.1,1.1,11.7
				c0.4,7.2,0.2,13-0.2,17c-0.2,2-0.3,3.5-0.5,4.6c-0.1,0.5-0.1,0.9-0.2,1.2C200.7,277.3,200.7,277.5,200.7,277.5"/>
			<g class="st11">
				<g>
					<defs>
						<rect id="SVGID_51_" x="109.9" y="238.1" width="31.7" height="17.5"/>
					</defs>
					<clipPath id="SVGID_52_">
						<use xlink:href="#SVGID_51_"  style="overflow:visible;"/>
					</clipPath>
					<g class="st26">
						<defs>
							<path id="SVGID_53_" d="M109.9,255.6l23.9-1c4.5-0.2,8-3.9,7.8-8.4v0c-0.2-4.3-3.7-7.7-8-7.8l-12.9-0.2L109.9,255.6z"/>
						</defs>
						<clipPath id="SVGID_54_">
							<use xlink:href="#SVGID_53_"  style="overflow:visible;"/>
						</clipPath>
						
							<linearGradient id="SVGID_55_" gradientUnits="userSpaceOnUse" x1="-5.838802e-002" y1="407.5504" x2="0.7663" y2="407.5504" gradientTransform="matrix(38.7495 -1.1786 -1.1786 -38.7495 592.2324 16039.6514)">
							<stop  offset="0" style="stop-color:#41DAFA"/>
							<stop  offset="0.9988" style="stop-color:#2963D7"/>
							<stop  offset="1" style="stop-color:#2963D7"/>
						</linearGradient>
						<polygon class="st27" points="109.4,238.1 141.7,237.1 142.3,255.5 109.9,256.5 						"/>
					</g>
				</g>
			</g>
			<g class="st7">
				<g>
					<defs>
						<rect id="SVGID_56_" x="45.4" y="173.9" width="64.7" height="64.7"/>
					</defs>
					<clipPath id="SVGID_57_">
						<use xlink:href="#SVGID_56_"  style="overflow:visible;"/>
					</clipPath>
					<g class="st28">
						<defs>
							<rect id="SVGID_58_" x="45.4" y="173.9" width="64.7" height="64.7"/>
						</defs>
						<clipPath id="SVGID_59_">
							<use xlink:href="#SVGID_58_"  style="overflow:visible;"/>
						</clipPath>
						<g style="clip-path:url(#SVGID_59_);">
							
								<image style="overflow:visible;" width="327" height="327" xlink:href="B58F7079.png"  transform="matrix(0.1979 0 0 0.1979 45.4046 173.8607)">
							</image>
						</g>
					</g>
				</g>
			</g>
		</g>
		<g class="st0">
			<defs>
				<rect id="SVGID_60_" x="90.5" y="175.4" width="64.7" height="64.7"/>
			</defs>
			<clipPath id="SVGID_61_">
				<use xlink:href="#SVGID_60_"  style="overflow:visible;"/>
			</clipPath>
			<g style="clip-path:url(#SVGID_61_);">
				
					<image style="overflow:visible;" width="327" height="327" xlink:href="B58F707B.png"  transform="matrix(0.1979 0 0 0.1979 90.5329 175.4441)">
				</image>
			</g>
		</g>
		<g class="st0">
			<defs>
				<rect id="SVGID_62_" x="16" width="249.9" height="335"/>
			</defs>
			<clipPath id="SVGID_63_">
				<use xlink:href="#SVGID_62_"  style="overflow:visible;"/>
			</clipPath>
			<g class="st29">
				<g>
					<defs>
						<rect id="SVGID_64_" x="137.6" y="178" width="64.7" height="64.7"/>
					</defs>
					<clipPath id="SVGID_65_">
						<use xlink:href="#SVGID_64_"  style="overflow:visible;"/>
					</clipPath>
					<g class="st30">
						<defs>
							<rect id="SVGID_66_" x="137.6" y="178" width="64.7" height="64.7"/>
						</defs>
						<clipPath id="SVGID_67_">
							<use xlink:href="#SVGID_66_"  style="overflow:visible;"/>
						</clipPath>
						<g style="clip-path:url(#SVGID_67_);">
							
								<image style="overflow:visible;" width="327" height="327" xlink:href="B58F707E.png"  transform="matrix(0.1979 0 0 0.1979 137.6405 178.0172)">
							</image>
						</g>
					</g>
				</g>
			</g>
			<g class="st29">
				<g>
					<defs>
						<rect id="SVGID_68_" x="78.1" y="188.7" width="64.7" height="64.7"/>
					</defs>
					<clipPath id="SVGID_69_">
						<use xlink:href="#SVGID_68_"  style="overflow:visible;"/>
					</clipPath>
					<g class="st31">
						<defs>
							<rect id="SVGID_70_" x="78.1" y="188.7" width="64.7" height="64.7"/>
						</defs>
						<clipPath id="SVGID_71_">
							<use xlink:href="#SVGID_70_"  style="overflow:visible;"/>
						</clipPath>
						<g style="clip-path:url(#SVGID_71_);">
							
								<image style="overflow:visible;" width="327" height="327" xlink:href="B58F707F.png"  transform="matrix(0.1979 0 0 0.1979 78.0632 188.7055)">
							</image>
						</g>
					</g>
				</g>
			</g>
			<g class="st32">
				<g>
					<defs>
						<rect id="SVGID_72_" x="142.6" y="212.2" width="2" height="2"/>
					</defs>
					<clipPath id="SVGID_73_">
						<use xlink:href="#SVGID_72_"  style="overflow:visible;"/>
					</clipPath>
					<path class="st33" d="M144.7,213.2c0,0.6-0.5,1-1,1c-0.6,0-1-0.5-1-1c0-0.6,0.4-1,1-1C144.2,212.2,144.7,212.7,144.7,213.2"/>
				</g>
			</g>
			<g class="st32">
				<g>
					<defs>
						<rect id="SVGID_74_" x="109.5" y="197.5" width="2" height="2"/>
					</defs>
					<clipPath id="SVGID_75_">
						<use xlink:href="#SVGID_74_"  style="overflow:visible;"/>
					</clipPath>
					<path class="st34" d="M111.5,198.5c0,0.6-0.5,1-1,1c-0.6,0-1-0.5-1-1c0-0.6,0.4-1,1-1C111.1,197.5,111.5,198,111.5,198.5"/>
				</g>
			</g>
			<g class="st32">
				<g>
					<defs>
						<rect id="SVGID_76_" x="199.3" y="155.2" width="2" height="2"/>
					</defs>
					<clipPath id="SVGID_77_">
						<use xlink:href="#SVGID_76_"  style="overflow:visible;"/>
					</clipPath>
					<path class="st35" d="M201.3,156.2c0,0.6-0.5,1-1,1c-0.6,0-1-0.5-1-1c0-0.6,0.4-1,1-1C200.8,155.2,201.3,155.6,201.3,156.2"/>
				</g>
			</g>
			<g class="st36">
				<g>
					<defs>
						<rect id="SVGID_78_" x="93.6" y="184" width="2" height="2"/>
					</defs>
					<clipPath id="SVGID_79_">
						<use xlink:href="#SVGID_78_"  style="overflow:visible;"/>
					</clipPath>
					<path class="st37" d="M95.3,184.3c0.4,0.4,0.4,1,0,1.4c-0.4,0.4-1,0.4-1.4,0c-0.4-0.4-0.4-1,0-1.4
						C94.3,183.9,94.9,183.9,95.3,184.3"/>
				</g>
			</g>
			<g class="st36">
				<g>
					<defs>
						<rect id="SVGID_80_" x="180.5" y="176.6" width="2" height="2"/>
					</defs>
					<clipPath id="SVGID_81_">
						<use xlink:href="#SVGID_80_"  style="overflow:visible;"/>
					</clipPath>
					<path class="st38" d="M182.2,176.9c0.4,0.4,0.4,1,0,1.4c-0.4,0.4-1,0.4-1.4,0c-0.4-0.4-0.4-1,0-1.4
						C181.1,176.5,181.8,176.5,182.2,176.9"/>
				</g>
			</g>
			<g class="st36">
				<g>
					<defs>
						<rect id="SVGID_82_" x="192.5" y="191.2" width="2" height="2"/>
					</defs>
					<clipPath id="SVGID_83_">
						<use xlink:href="#SVGID_82_"  style="overflow:visible;"/>
					</clipPath>
					<path class="st39" d="M194.3,191.5c0.4,0.4,0.4,1,0,1.4c-0.4,0.4-1,0.4-1.4,0c-0.4-0.4-0.4-1,0-1.4
						C193.2,191.1,193.9,191.1,194.3,191.5"/>
				</g>
			</g>
			<g class="st36">
				<g>
					<defs>
						<rect id="SVGID_84_" x="151.9" y="222.7" width="2" height="2"/>
					</defs>
					<clipPath id="SVGID_85_">
						<use xlink:href="#SVGID_84_"  style="overflow:visible;"/>
					</clipPath>
					<path class="st40" d="M153.6,223c0.4,0.4,0.4,1,0,1.4c-0.4,0.4-1,0.4-1.4,0c-0.4-0.4-0.4-1,0-1.4
						C152.6,222.6,153.2,222.6,153.6,223"/>
				</g>
			</g>
			<g class="st41">
				<g>
					<defs>
						<rect id="SVGID_86_" x="52.3" y="64.5" width="178.3" height="254"/>
					</defs>
					<clipPath id="SVGID_87_">
						<use xlink:href="#SVGID_86_"  style="overflow:visible;"/>
					</clipPath>
					<g class="st42">
						<defs>
							<path id="SVGID_88_" d="M52.3,64.5l45.6,248.1c1,9.2,109.8,6.4,109.8,0l22.9-226.8L52.3,64.5z"/>
						</defs>
						<clipPath id="SVGID_89_">
							<use xlink:href="#SVGID_88_"  style="overflow:visible;"/>
						</clipPath>
						<defs>
							<filter id="Adobe_OpacityMaskFilter_1_" filterUnits="userSpaceOnUse" x="38.6" y="55.1" width="205.6" height="276.3">
								<feColorMatrix  type="matrix" values="1 0 0 0 0  0 1 0 0 0  0 0 1 0 0  0 0 0 1 0"/>
							</filter>
						</defs>
						<mask maskUnits="userSpaceOnUse" x="38.6" y="55.1" width="205.6" height="276.3" id="SVGID_90_">
							<g class="st43">
								
									<linearGradient id="SVGID_91_" gradientUnits="userSpaceOnUse" x1="-0.1355" y1="406.1774" x2="0.6893" y2="406.1774" gradientTransform="matrix(-11.2131 210.5547 210.5547 11.2131 -85379.6953 -4388.5796)">
									<stop  offset="0" style="stop-color:#000000"/>
									<stop  offset="1" style="stop-color:#FFFFFF"/>
								</linearGradient>
								<polygon class="st44" points="244.2,65.3 230,331.4 38.6,321.2 52.8,55.1 								"/>
							</g>
						</mask>
						
							<linearGradient id="SVGID_92_" gradientUnits="userSpaceOnUse" x1="-0.1355" y1="406.1774" x2="0.6893" y2="406.1774" gradientTransform="matrix(-11.2131 210.5547 210.5547 11.2131 -85379.7031 -4388.5811)">
							<stop  offset="0" style="stop-color:#5BDAFA"/>
							<stop  offset="1" style="stop-color:#009FD7"/>
						</linearGradient>
						<polygon class="st45" points="244.2,65.3 230,331.4 38.6,321.2 52.8,55.1 						"/>
					</g>
				</g>
			</g>
			<g class="st41">
				<g>
					<defs>
						<rect id="SVGID_93_" x="96" y="292.4" width="113.2" height="10.6"/>
					</defs>
					<clipPath id="SVGID_94_">
						<use xlink:href="#SVGID_93_"  style="overflow:visible;"/>
					</clipPath>
					<defs>
						<filter id="Adobe_OpacityMaskFilter_2_" filterUnits="userSpaceOnUse" x="96.4" y="292.8" width="112.4" height="9.8">
							<feColorMatrix  type="matrix" values="1 0 0 0 0  0 1 0 0 0  0 0 1 0 0  0 0 0 1 0"/>
						</filter>
					</defs>
					<mask maskUnits="userSpaceOnUse" x="96.4" y="292.8" width="112.4" height="9.8" id="SVGID_95_">
						<g class="st46">
							
								<linearGradient id="SVGID_96_" gradientUnits="userSpaceOnUse" x1="-4.7635" y1="405.136" x2="-3.9388" y2="405.136" gradientTransform="matrix(-0.1806 13.0033 13.0033 0.1806 -5116.3403 281.1107)">
								<stop  offset="0" style="stop-color:#000000"/>
								<stop  offset="1" style="stop-color:#FFFFFF"/>
							</linearGradient>
							<polygon class="st47" points="209.3,292.4 209.1,304.6 95.8,303 96,290.8 							"/>
						</g>
					</mask>
					
						<linearGradient id="SVGID_97_" gradientUnits="userSpaceOnUse" x1="-4.7635" y1="405.136" x2="-3.9388" y2="405.136" gradientTransform="matrix(-0.1806 13.0033 13.0033 0.1806 -5116.3281 281.1108)">
						<stop  offset="0" style="stop-color:#5BDAFA"/>
						<stop  offset="1" style="stop-color:#009FD7"/>
					</linearGradient>
					<path class="st48" d="M208.7,297.7L208.7,297.7c0,2.7-25.2,4.9-56.2,4.9s-56.2-2.2-56.2-4.9c0-2.7,25.2-4.9,56.2-4.9
						S208.7,295,208.7,297.7L208.7,297.7L208.7,297.7c0-2.7-25.2-4.9-56.2-4.9s-56.2,2.2-56.2,4.9c0,2.7,25.2,4.9,56.2,4.9
						S208.7,300.4,208.7,297.7L208.7,297.7z"/>
				</g>
			</g>
			<g class="st41">
				<g>
					<defs>
						<rect id="SVGID_98_" x="96" y="286.9" width="113.2" height="10.6"/>
					</defs>
					<clipPath id="SVGID_99_">
						<use xlink:href="#SVGID_98_"  style="overflow:visible;"/>
					</clipPath>
					<defs>
						<filter id="Adobe_OpacityMaskFilter_3_" filterUnits="userSpaceOnUse" x="96.4" y="287.3" width="112.4" height="9.8">
							<feColorMatrix  type="matrix" values="1 0 0 0 0  0 1 0 0 0  0 0 1 0 0  0 0 0 1 0"/>
						</filter>
					</defs>
					<mask maskUnits="userSpaceOnUse" x="96.4" y="287.3" width="112.4" height="9.8" id="SVGID_100_">
						<g class="st49">
							
								<linearGradient id="SVGID_101_" gradientUnits="userSpaceOnUse" x1="-4.6742" y1="405.1372" x2="-3.8495" y2="405.1372" gradientTransform="matrix(-0.1806 13.0033 13.0033 0.1806 -5116.3398 274.4831)">
								<stop  offset="0" style="stop-color:#000000"/>
								<stop  offset="1" style="stop-color:#FFFFFF"/>
							</linearGradient>
							<polygon class="st50" points="209.3,286.9 209.1,299.1 95.8,297.5 96,285.4 							"/>
						</g>
					</mask>
					
						<linearGradient id="SVGID_102_" gradientUnits="userSpaceOnUse" x1="-4.6742" y1="405.1372" x2="-3.8495" y2="405.1372" gradientTransform="matrix(-0.1806 13.0033 13.0033 0.1806 -5116.3281 274.4832)">
						<stop  offset="0" style="stop-color:#5BDAFA"/>
						<stop  offset="1" style="stop-color:#009FD7"/>
					</linearGradient>
					<path class="st51" d="M208.7,292.2L208.7,292.2c0,2.7-25.2,4.9-56.2,4.9s-56.2-2.2-56.2-4.9c0-2.7,25.2-4.9,56.2-4.9
						S208.7,289.5,208.7,292.2L208.7,292.2L208.7,292.2c0-2.7-25.2-4.9-56.2-4.9s-56.2,2.2-56.2,4.9c0,2.7,25.2,4.9,56.2,4.9
						S208.7,294.9,208.7,292.2L208.7,292.2z"/>
				</g>
			</g>
			<g class="st41">
				<g>
					<defs>
						<rect id="SVGID_103_" x="96" y="280.6" width="113.2" height="10.6"/>
					</defs>
					<clipPath id="SVGID_104_">
						<use xlink:href="#SVGID_103_"  style="overflow:visible;"/>
					</clipPath>
					<defs>
						<filter id="Adobe_OpacityMaskFilter_4_" filterUnits="userSpaceOnUse" x="96.4" y="281" width="112.4" height="9.8">
							<feColorMatrix  type="matrix" values="1 0 0 0 0  0 1 0 0 0  0 0 1 0 0  0 0 0 1 0"/>
						</filter>
					</defs>
					<mask maskUnits="userSpaceOnUse" x="96.4" y="281" width="112.4" height="9.8" id="SVGID_105_">
						<g class="st52">
							
								<linearGradient id="SVGID_106_" gradientUnits="userSpaceOnUse" x1="-4.5707" y1="405.1386" x2="-3.746" y2="405.1386" gradientTransform="matrix(-0.1806 13.0033 13.0033 0.1806 -5116.3398 266.8068)">
								<stop  offset="0" style="stop-color:#000000"/>
								<stop  offset="1" style="stop-color:#FFFFFF"/>
							</linearGradient>
							<polygon class="st53" points="209.3,280.6 209.1,292.8 95.8,291.2 96,279 							"/>
						</g>
					</mask>
					
						<linearGradient id="SVGID_107_" gradientUnits="userSpaceOnUse" x1="-4.5707" y1="405.1386" x2="-3.746" y2="405.1386" gradientTransform="matrix(-0.1806 13.0033 13.0033 0.1806 -5116.3281 266.8069)">
						<stop  offset="0" style="stop-color:#5BDAFA"/>
						<stop  offset="1" style="stop-color:#009FD7"/>
					</linearGradient>
					<path class="st54" d="M208.7,285.9L208.7,285.9c0,2.7-25.2,4.9-56.2,4.9s-56.2-2.2-56.2-4.9c0-2.7,25.2-4.9,56.2-4.9
						S208.7,283.2,208.7,285.9L208.7,285.9L208.7,285.9c0-2.7-25.2-4.9-56.2-4.9s-56.2,2.2-56.2,4.9c0,2.7,25.2,4.9,56.2,4.9
						S208.7,288.6,208.7,285.9L208.7,285.9z"/>
				</g>
			</g>
		</g>
	</g>
</g>
</svg>
