<?xml version="1.0" encoding="utf-8"?>
<!-- Generator: Adobe Illustrator 19.0.0, SVG Export Plug-In . SVG Version: 6.00 Build 0)  -->
<svg version="1.1" id="图层_1" xmlns="http://www.w3.org/2000/svg" xmlns:xlink="http://www.w3.org/1999/xlink" x="0px" y="0px"
	 viewBox="0 0 100 100" style="enable-background:new 0 0 100 100;" xml:space="preserve">
<style type="text/css">
	.st0{fill:#032E43;}
	.st1{clip-path:url(#XMLID_19_);fill:#FFFFFF;}
</style>
<circle id="XMLID_1_" class="st0" cx="50" cy="50" r="50"/>
<g id="XMLID_17_">
	<g>
		<defs>
			<rect id="XMLID_2_" x="25" y="26.3" width="50" height="47.4"/>
		</defs>
		<clipPath id="XMLID_19_">
			<use xlink:href="#XMLID_2_"  style="overflow:visible;"/>
		</clipPath>
		<path class="st1" d="M75,49.5c0-2.7-1.6-5-4-6c-0.4-0.2-0.8-0.3-1.2-0.4c1.1-1.2,1.7-2.7,1.7-4.4c0-3.6-2.9-6.6-6.5-6.6
			c-0.4,0-0.9,0-1.3,0.1c-0.3-3.4-3.1-6-6.4-6c-3.4,0-6.5,3.3-6.5,7v33.7c0,3.6,2.9,6.6,6.5,6.6c3.6,0,6.5-3,6.5-6.6
			c0-0.1,0-0.1,0-0.1c0.4,0.1,0.8,0.1,1.2,0.1c3.6,0,6.5-3,6.5-6.6c0-1.6-0.6-3.2-1.6-4.4c2.9-0.6,5.1-3.3,5.1-6.4
			C75,49.6,75,49.6,75,49.5C75,49.5,75,49.5,75,49.5 M57.3,67.1c-0.8,0-1.5-0.7-1.5-1.5s0.7-1.5,1.5-1.5c0.8,0,1.5,0.7,1.5,1.5
			C58.8,66.4,58.2,67.1,57.3,67.1 M65.1,61.5c-0.8,0-1.5-0.7-1.5-1.5c0-0.8,0.7-1.5,1.5-1.5c0.8,0,1.5,0.7,1.5,1.5
			C66.6,60.9,65.9,61.5,65.1,61.5 M68.5,54.8c-0.1,0-0.3,0-0.4,0c-0.3,0-0.7,0.2-0.8,0.5c-0.1,0.3,0,0.7,0.3,0.9
			c1.5,0.9,2.4,2.6,2.4,4.4c0,2.6-1.8,4.7-4.2,5.1v-2.6c1.3-0.3,2.2-1.5,2.2-2.9c0-1.6-1.3-3-3-3c-1.6,0-3,1.3-3,3
			c0,1.4,0.9,2.5,2.2,2.9v2.6c-0.4-0.1-0.8-0.2-1.2-0.3c-0.3-0.1-0.6-0.1-0.8,0.1c-0.2,0.2-0.3,0.5-0.2,0.8c0,0.1,0.1,0.2,0.1,0.3
			c0.1,0.3,0.1,0.3,0.1,0.7c0,2.6-1.8,4.7-4.2,5.1v-3.7c1.3-0.3,2.2-1.5,2.2-2.9c0-1.6-1.3-3-3-3c-1.6,0-3,1.3-3,3
			c0,1.4,0.9,2.5,2.2,2.9v3.7c-2.4-0.4-4.2-2.5-4.2-5.1V51.9h2.1c0.3,1.3,1.5,2.2,2.9,2.2c1.6,0,3-1.3,3-3c0-1.6-1.3-3-3-3
			c-1.4,0-2.5,0.9-2.9,2.2h-2.1V40.3h5h1h3.2c0.3,1.3,1.5,2.2,2.9,2.2c1.6,0,3-1.3,3-3c0-1.6-1.3-3-3-3c-1.4,0-2.5,1-2.9,2.2h-2.4
			v-2.9c1.3-0.3,2.2-1.5,2.2-2.9c0-1.6-1.3-3-3-3s-3,1.3-3,3c0,1.4,1,2.5,2.2,2.9v2.9h-0.2h-5v-5.5c0-3,2.3-5.6,5-5.6
			c2.8,0,5,2.3,5,5.1c0,0.1,0,0.2,0,0.3c0,0.3,0.1,0.5,0.3,0.6c0.2,0.1,0.5,0.2,0.7,0.1c0.6-0.2,1.2-0.3,1.7-0.3c2.8,0,5,2.3,5,5.1
			c0,1.8-0.9,3.5-2.4,4.4c0,0,0,0,0,0c-2.9,0.6-5.1,3.2-5.1,6.3c0,0.4,0.3,0.7,0.7,0.7c0.4,0,0.7-0.3,0.7-0.7c0-2.7,2.2-4.9,4.8-4.9
			c0.6,0,1.2,0.1,1.8,0.4c1.8,0.8,3,2.6,3,4.7C73.5,52.5,71.3,54.8,68.5,54.8 M55.9,51.1c0-0.8,0.7-1.5,1.5-1.5
			c0.8,0,1.5,0.7,1.5,1.5c0,0.8-0.7,1.5-1.5,1.5C56.5,52.6,55.9,52,55.9,51.1 M58.3,34.5c-0.8,0-1.5-0.7-1.5-1.5
			c0-0.8,0.7-1.5,1.5-1.5s1.5,0.7,1.5,1.5C59.8,33.9,59.1,34.5,58.3,34.5 M62.9,39.6c0-0.8,0.7-1.5,1.5-1.5c0.8,0,1.5,0.7,1.5,1.5
			c0,0.8-0.7,1.5-1.5,1.5C63.5,41.1,62.9,40.4,62.9,39.6"/>
		<path class="st1" d="M25,49.5c0,0,0,0.1,0,0.1c0,3.2,2.2,5.8,5.1,6.4c-1,1.2-1.6,2.7-1.6,4.4c0,3.6,2.9,6.6,6.5,6.6
			c0.4,0,0.8,0,1.2-0.1c0,0,0,0.1,0,0.1c0,3.6,2.9,6.6,6.5,6.6c3.6,0,6.5-3,6.5-6.6V33.3c0-3.7-3-7-6.5-7c-3.4,0-6.1,2.6-6.4,6
			c-0.4-0.1-0.8-0.1-1.3-0.1c-3.6,0-6.5,3-6.5,6.6c0,1.7,0.6,3.2,1.7,4.4c-0.4,0.1-0.8,0.2-1.2,0.4C26.6,44.5,25,46.8,25,49.5
			C25,49.5,25,49.5,25,49.5 M41.2,65.5c0-0.8,0.7-1.5,1.5-1.5c0.8,0,1.5,0.7,1.5,1.5c0,0.8-0.7,1.5-1.5,1.5
			C41.8,67,41.2,66.4,41.2,65.5 M33.4,60c0-0.8,0.7-1.5,1.5-1.5c0.8,0,1.5,0.7,1.5,1.5c0,0.8-0.7,1.5-1.5,1.5
			C34.1,61.5,33.4,60.9,33.4,60 M26.5,49.6c0-2.1,1.2-3.9,3-4.7c0.6-0.2,1.2-0.4,1.8-0.4c2.7,0,4.8,2.2,4.8,4.9
			c0,0.4,0.3,0.7,0.7,0.7c0.4,0,0.7-0.3,0.7-0.7c0-3.1-2.2-5.8-5.1-6.3c0,0,0,0,0,0c-1.5-0.9-2.4-2.6-2.4-4.4c0-2.8,2.2-5.1,5-5.1
			c0.6,0,1.2,0.1,1.7,0.3c0.2,0.1,0.5,0.1,0.7-0.1c0.2-0.1,0.3-0.4,0.3-0.6c0-0.2,0-0.2,0-0.3c0-2.8,2.2-5.1,5-5.1
			c2.7,0,5,2.6,5,5.6v5.5h-5h-0.2v-2.9c1.3-0.3,2.2-1.5,2.2-2.9c0-1.6-1.3-3-3-3s-3,1.3-3,3c0,1.4,0.9,2.5,2.2,2.9v2.9h-2.4
			c-0.3-1.3-1.5-2.2-2.9-2.2c-1.6,0-3,1.3-3,3c0,1.6,1.3,3,3,3c1.4,0,2.5-0.9,2.9-2.2h3.2h1h5v10.1h-2.1c-0.3-1.3-1.5-2.2-2.9-2.2
			c-1.6,0-3,1.3-3,3c0,1.6,1.3,3,3,3c1.4,0,2.5-1,2.9-2.2h2.1v15.2c0,2.6-1.8,4.7-4.2,5.1v-3.7c1.3-0.3,2.2-1.5,2.2-2.9
			c0-1.6-1.3-3-3-3s-3,1.3-3,3c0,1.4,1,2.5,2.2,2.9v3.7c-2.4-0.4-4.2-2.5-4.2-5.1c0-0.3,0-0.4,0.1-0.7c0-0.1,0.1-0.2,0.1-0.3
			c0.1-0.3,0-0.6-0.2-0.8c-0.2-0.2-0.5-0.2-0.8-0.1c-0.4,0.2-0.8,0.3-1.2,0.3v-2.6c1.3-0.3,2.2-1.5,2.2-2.9c0-1.6-1.3-3-3-3
			s-3,1.3-3,3c0,1.4,1,2.5,2.2,2.9v2.6C31.8,65.1,30,63,30,60.4c0-1.8,0.9-3.4,2.4-4.4c0.3-0.2,0.4-0.5,0.3-0.9
			c-0.1-0.3-0.4-0.5-0.8-0.5c-0.1,0-0.3,0-0.4,0C28.7,54.7,26.5,52.4,26.5,49.6 M42.7,52.6c-0.8,0-1.5-0.7-1.5-1.5
			c0-0.8,0.7-1.5,1.5-1.5c0.8,0,1.5,0.7,1.5,1.5C44.1,51.9,43.5,52.6,42.7,52.6 M40.2,33c0-0.8,0.7-1.5,1.5-1.5
			c0.8,0,1.5,0.7,1.5,1.5c0,0.8-0.7,1.5-1.5,1.5C40.9,34.5,40.2,33.8,40.2,33 M35.7,41c-0.8,0-1.5-0.7-1.5-1.5s0.7-1.5,1.5-1.5
			c0.8,0,1.5,0.7,1.5,1.5C37.1,40.4,36.5,41,35.7,41"/>
	</g>
</g>
</svg>
