<?xml version="1.0" encoding="utf-8"?>
<!-- Generator: Adobe Illustrator 19.0.0, SVG Export Plug-In . SVG Version: 6.00 Build 0)  -->
<svg version="1.1" id="图层_1" xmlns="http://www.w3.org/2000/svg" xmlns:xlink="http://www.w3.org/1999/xlink" x="0px" y="0px"
	 viewBox="0 0 100 100" style="enable-background:new 0 0 100 100;" xml:space="preserve">
<style type="text/css">
	.st0{fill:#032E43;}
	.st1{clip-path:url(#XMLID_16_);fill:#FFFFFF;}
</style>
<circle id="XMLID_1_" class="st0" cx="50" cy="50" r="50"/>
<g>
	<defs>
		<rect id="XMLID_2_" x="30" y="26" width="40" height="48"/>
	</defs>
	<clipPath id="XMLID_16_">
		<use xlink:href="#XMLID_2_"  style="overflow:visible;"/>
	</clipPath>
	<path class="st1" d="M70,52c0-2.2-1.8-4-4-4h-2c-0.5-6.9-6-12.5-13-13v-3.2c1.2-0.4,2-1.5,2-2.8c0-1.7-1.3-3-3-3s-3,1.3-3,3
		c0,1.3,0.8,2.4,2,2.8V35c-6.9,0.5-12.5,6-13,13h-2c-2.2,0-4,1.8-4,4c0,1.9,1.3,3.4,3,3.9V65c0,0.6,0.4,1,1,1c0.6,0,1-0.4,1-1v-9h1
		v12c0,1.1,0.9,2,2,2h5.1c1.4,2.4,4,4,6.9,4s5.5-1.6,6.9-4H62c1.1,0,2-0.9,2-2V56h1v9c0,0.6,0.4,1,1,1c0.6,0,1-0.4,1-1v-9.1
		C68.7,55.4,70,53.9,70,52 M50,28c0.6,0,1,0.4,1,1c0,0.6-0.4,1-1,1c-0.6,0-1-0.4-1-1C49,28.4,49.4,28,50,28 M41.5,40.5
		c2.3-2.3,5.3-3.5,8.5-3.5c3.2,0,6.2,1.2,8.5,3.5c2,2,3.2,4.7,3.5,7.5H38C38.3,45.2,39.5,42.5,41.5,40.5 M34,54c-1.1,0-2-0.9-2-2
		c0-1.1,0.9-2,2-2h2v4H34z M50,72c-1.8,0-3.4-0.8-4.5-2h8.9C53.4,71.2,51.8,72,50,72 M38,50h24v18H38V50z M66,54h-2v-4h2
		c1.1,0,2,0.9,2,2C68,53.1,67.1,54,66,54"/>
	<path id="XMLID_7_" class="st1" d="M55,54c-0.6,0-1,0.4-1,1s0.4,1,1,1c0.6,0,1-0.4,1-1C56,54.4,55.6,54,55,54"/>
	<path id="XMLID_6_" class="st1" d="M46,44c0.6,0,1-0.4,1-1c0-0.6-0.4-1-1-1s-1,0.4-1,1C45,43.6,45.4,44,46,44"/>
	<path id="XMLID_5_" class="st1" d="M59,54c-0.6,0-1,0.4-1,1s0.4,1,1,1c0.6,0,1-0.4,1-1C60,54.4,59.6,54,59,54"/>
	<path id="XMLID_4_" class="st1" d="M45,54h-4c-0.6,0-1,0.4-1,1s0.4,1,1,1h4c0.6,0,1-0.4,1-1C46,54.4,45.6,54,45,54"/>
	<path id="XMLID_3_" class="st1" d="M54,44c0.6,0,1-0.4,1-1c0-0.6-0.4-1-1-1c-0.6,0-1,0.4-1,1C53,43.6,53.4,44,54,44"/>
</g>
</svg>
