<?xml version="1.0" encoding="utf-8"?>
<!-- Generator: Adobe Illustrator 19.0.0, SVG Export Plug-In . SVG Version: 6.00 Build 0)  -->
<svg version="1.1" id="图层_1" xmlns="http://www.w3.org/2000/svg" xmlns:xlink="http://www.w3.org/1999/xlink" x="0px" y="0px"
	 viewBox="0 0 100 100" style="enable-background:new 0 0 100 100;" xml:space="preserve">
<style type="text/css">
	.st0{fill:#032E43;}
	.st1{fill:#FFFFFF;}
	.st2{clip-path:url(#XMLID_13_);fill:#FFFFFF;}
</style>
<circle id="XMLID_1_" class="st0" cx="50" cy="50" r="50"/>
<g id="XMLID_11_">
	<rect id="XMLID_9_" x="41.3" y="76.6" class="st1" width="17.4" height="1.4"/>
	<g id="XMLID_10_">
		<defs>
			<rect id="XMLID_2_" x="34.2" y="22" width="31.7" height="56"/>
		</defs>
		<clipPath id="XMLID_13_">
			<use xlink:href="#XMLID_2_"  style="overflow:visible;"/>
		</clipPath>
		<path class="st2" d="M50,44.8c-1.3,0-2.7-0.6-3.6-1.5c-1.8-2-1.7-5.1,0.3-6.9c0.9-0.8,2.1-1.3,3.3-1.3c1.3,0,2.7,0.6,3.6,1.5
			c0.9,1,1.3,2.2,1.3,3.5c-0.1,1.3-0.6,2.5-1.5,3.4C52.4,44.3,51.2,44.8,50,44.8 M50,36.4c-0.8,0-1.7,0.4-2.4,0.9
			c-1.4,1.3-1.5,3.5-0.2,4.9c0.6,0.7,1.6,1.1,2.5,1.1c0.8,0,1.7-0.4,2.4-0.9c0.7-0.6,1.1-1.5,1.1-2.4c0.1-0.9-0.3-1.8-0.9-2.5
			S50.9,36.4,50,36.4"/>
		<path class="st2" d="M50,61.9c-3,0-5.5-1.6-6.1-3.8L34.2,60v-0.8c0-4.8,1.4-8.2,4.4-11.1c-1.1-13.6,5-22.2,11.1-25.8L50,22
			l0.4,0.2c6.1,3.5,12.1,12.2,11.1,25.8c3,2.9,4.4,6.3,4.4,11.2v0.8l-9.8-1.9C55.4,60.3,53,61.9,50,61.9 M50,60.5
			c4.1,0,5.3-3.9,5.3-3.9l9.1,1.8c-0.1-4.1-1.4-7-4-9.4c-0.1-0.1-0.2-0.2-0.3-0.3h-0.1c1.5-12.5-4.6-22.1-10.1-25
			c-5.6,3.5-11.2,11.7-10,24.8v0.1c-2.9,2.5-4.2,5.6-4.4,9.7l9.1-1.8C44.7,56.5,45.8,60.4,50,60.5"/>
		<path class="st2" d="M49.9,74.9l-0.6-0.8c-0.3-0.4-2.6-3.9-2.6-6.2c0-2.1,1.5-3.9,3.2-3.9c1.8,0,3.2,1.8,3.2,3.9
			c0,2.5-2.5,6.1-2.7,6.2L49.9,74.9z M50,65.4c-1,0-1.8,1.1-1.8,2.5c0,1.2,1.1,3.2,1.8,4.5c0.8-1.3,1.8-3.2,1.8-4.5
			C51.8,66.5,51,65.4,50,65.4"/>
	</g>
</g>
</svg>
