<?xml version="1.0" encoding="utf-8"?>
<!-- Generator: Adobe Illustrator 19.0.0, SVG Export Plug-In . SVG Version: 6.00 Build 0)  -->
<svg version="1.1" id="图层_1" xmlns="http://www.w3.org/2000/svg" xmlns:xlink="http://www.w3.org/1999/xlink" x="0px" y="0px"
	 viewBox="0 0 100 100" style="enable-background:new 0 0 100 100;" xml:space="preserve">
<style type="text/css">
	.st0{fill:#032E43;}
	.st1{clip-path:url(#XMLID_3_);fill:#FFFFFF;}
</style>
<circle id="XMLID_1_" class="st0" cx="50" cy="50" r="50"/>
<g>
	<defs>
		<rect id="XMLID_12_" x="26" y="26" width="48" height="48"/>
	</defs>
	<clipPath id="XMLID_3_">
		<use xlink:href="#XMLID_12_"  style="overflow:visible;"/>
	</clipPath>
	<path class="st1" d="M46.9,63.2c0,1.7,1.4,3.1,3.1,3.1s3.1-1.4,3.1-3.1c0-1.7-1.4-3.1-3.1-3.1S46.9,61.5,46.9,63.2 M51.5,63.2
		c0,0.9-0.7,1.5-1.5,1.5c-0.9,0-1.5-0.7-1.5-1.5c0-0.9,0.7-1.5,1.5-1.5C50.9,61.6,51.5,62.3,51.5,63.2"/>
	<rect id="XMLID_42_" x="56.2" y="37.6" class="st1" width="1.5" height="3.9"/>
	<polygon id="XMLID_41_" class="st1" points="66.3,42.6 66.3,32.2 64.7,32.2 64.7,41.9 62.6,44 63.7,45.1 	"/>
	<polygon id="XMLID_40_" class="st1" points="72.5,47.2 72.5,38.4 70.9,38.4 70.9,46.6 68.8,48.7 69.9,49.8 	"/>
	<path class="st1" d="M57,36.1c1.3,0,2.3-1,2.3-2.3s-1-2.3-2.3-2.3c-1.3,0-2.3,1-2.3,2.3S55.7,36.1,57,36.1 M57,33
		c0.4,0,0.8,0.3,0.8,0.8c0,0.4-0.3,0.8-0.8,0.8c-0.4,0-0.8-0.3-0.8-0.8C56.2,33.3,56.5,33,57,33"/>
	<rect id="XMLID_37_" x="49.2" y="32.2" class="st1" width="1.5" height="8.5"/>
	<path class="st1" d="M50,30.6c1.3,0,2.3-1,2.3-2.3c0-1.3-1-2.3-2.3-2.3c-1.3,0-2.3,1-2.3,2.3C47.7,29.6,48.7,30.6,50,30.6 M50,27.5
		c0.4,0,0.8,0.3,0.8,0.8c0,0.4-0.3,0.8-0.8,0.8c-0.4,0-0.8-0.3-0.8-0.8C49.2,27.9,49.6,27.5,50,27.5"/>
	<path class="st1" d="M65.5,30.6c1.3,0,2.3-1,2.3-2.3c0-1.3-1-2.3-2.3-2.3s-2.3,1-2.3,2.3C63.2,29.6,64.2,30.6,65.5,30.6 M65.5,27.5
		c0.4,0,0.8,0.3,0.8,0.8c0,0.4-0.3,0.8-0.8,0.8s-0.8-0.3-0.8-0.8C64.7,27.9,65.1,27.5,65.5,27.5"/>
	<path class="st1" d="M71.7,36.8c1.3,0,2.3-1,2.3-2.3c0-1.3-1-2.3-2.3-2.3c-1.3,0-2.3,1-2.3,2.3C69.4,35.8,70.4,36.8,71.7,36.8
		 M71.7,33.7c0.4,0,0.8,0.3,0.8,0.8c0,0.4-0.3,0.8-0.8,0.8c-0.4,0-0.8-0.3-0.8-0.8C70.9,34.1,71.3,33.7,71.7,33.7"/>
	<rect id="XMLID_30_" x="42.3" y="37.6" class="st1" width="1.5" height="4.6"/>
	<polygon id="XMLID_29_" class="st1" points="33.7,32.2 33.7,42.6 36.3,45.1 37.4,44 35.3,41.9 35.3,32.2 	"/>
	<polygon id="XMLID_28_" class="st1" points="27.5,38.4 27.5,47.2 31.6,51.3 32.7,50.2 29.1,46.6 29.1,38.4 	"/>
	<path class="st1" d="M43,36.1c1.3,0,2.3-1,2.3-2.3s-1-2.3-2.3-2.3s-2.3,1-2.3,2.3S41.8,36.1,43,36.1 M43,33c0.4,0,0.8,0.3,0.8,0.8
		c0,0.4-0.3,0.8-0.8,0.8c-0.4,0-0.8-0.3-0.8-0.8C42.3,33.3,42.6,33,43,33"/>
	<path class="st1" d="M34.5,30.6c1.3,0,2.3-1,2.3-2.3c0-1.3-1-2.3-2.3-2.3s-2.3,1-2.3,2.3C32.2,29.6,33.2,30.6,34.5,30.6 M34.5,27.5
		c0.4,0,0.8,0.3,0.8,0.8c0,0.4-0.3,0.8-0.8,0.8s-0.8-0.3-0.8-0.8C33.7,27.9,34.1,27.5,34.5,27.5"/>
	<path class="st1" d="M28.3,36.8c1.3,0,2.3-1,2.3-2.3c0-1.3-1-2.3-2.3-2.3s-2.3,1-2.3,2.3C26,35.8,27,36.8,28.3,36.8 M28.3,33.7
		c0.4,0,0.8,0.3,0.8,0.8c0,0.4-0.3,0.8-0.8,0.8s-0.8-0.3-0.8-0.8C27.5,34.1,27.9,33.7,28.3,33.7"/>
	<path id="XMLID_21_" class="st1" d="M58.4,59.2L57,59.8c0.1,0.2,0.2,0.5,0.3,0.8l0.1,0.4l1.9,0.5v3.4l-1.9,0.5l-0.1,0.4
		c-0.1,0.3-0.2,0.5-0.3,0.8l-0.2,0.4l1,1.6l-2.4,2.4l-1.6-1l-0.4,0.2c-0.2,0.1-0.5,0.2-0.8,0.3l-0.4,0.1l-0.5,1.9h-3.4l-0.5-1.9
		l-0.4-0.1c-0.3-0.1-0.5-0.2-0.8-0.3L46.3,70l-1.6,1l-2.9-2.9l-1.1,1.1l3.7,3.7l2-1.2c0,0,0.1,0,0.1,0.1l0.6,2.2h5.9l0.6-2.2
		c0,0,0.1,0,0.1-0.1l2,1.2l4.1-4.1l-1.2-2c0,0,0-0.1,0.1-0.1l2.2-0.6v-5.9l-2.2-0.6C58.5,59.5,58.5,59.3,58.4,59.2"/>
	<path id="XMLID_20_" class="st1" d="M39.2,60.2v5.9l2.2,0.6c0.1,0.2,0.1,0.3,0.2,0.5l1.4-0.7c-0.1-0.2-0.2-0.5-0.3-0.8l-0.1-0.4
		l-1.9-0.5v-3.4l1.9-0.5l0.1-0.4c0.1-0.3,0.2-0.5,0.3-0.8l0.2-0.4l-1-1.6l2.4-2.4l1.6,1l0.4-0.2c0.2-0.1,0.5-0.2,0.8-0.3l0.4-0.1
		l0.5-1.9h3.4l0.5,1.9l0.4,0.1c0.3,0.1,0.5,0.2,0.8,0.3l0.4,0.2l1.6-1l2.9,2.9l1.1-1.1l-3.7-3.7l-2,1.2c0,0-0.1,0-0.1-0.1l-0.6-2.2
		h-5.9l-0.6,2.2c0,0-0.1,0-0.1,0.1l-2-1.2l-4.1,4.1l1.2,2c0,0,0,0.1-0.1,0.1L39.2,60.2z"/>
	<path id="XMLID_19_" class="st1" d="M70.9,55.5C70.9,55.5,70.9,55.4,70.9,55.5c0-3.4-2.7-6.2-6-6.2c-0.6-1.1-1.7-1.9-2.9-2.2
		c-0.9-2.4-3.2-4-5.8-4c-1,0-1.9,0.2-2.8,0.7c-1.2-0.9-2.7-1.4-4.2-1.4c-1.8,0-3.5,0.7-4.8,1.9c-0.7-0.2-1.4-0.4-2.2-0.4
		c-3.4,0-6.4,2.5-6.9,5.9c-1.4,0.6-2.5,1.9-3,3.4c-3.6,0.3-6.4,3.3-6.4,6.9c0,3.8,3.1,7,7,7h4.6v-1.5H33c-3,0-5.4-2.4-5.4-5.4
		s2.4-5.4,5.4-5.4c1.7,0,3.2,0.7,4.2,2l1.2-1c-1.1-1.4-2.7-2.3-4.4-2.5c0.6-1.4,2-2.4,3.6-2.4c1.4,0,2.7,0.7,3.4,1.9l1.3-0.8
		c-1-1.7-2.8-2.7-4.7-2.7c-0.2,0-0.4,0-0.6,0c0.7-2.3,2.8-3.9,5.2-3.9c3,0,5.4,2.4,5.4,5.4h1.5c0-2.5-1.3-4.6-3.2-5.9
		c0.9-0.7,2.1-1.1,3.2-1.1c1.3,0,2.6,0.5,3.6,1.4l0.4,0.4l0.5-0.3c0.7-0.5,1.6-0.7,2.4-0.7c1.7,0,3.2,0.9,4,2.4
		c-2.3,0.3-4,2.2-4,4.6h1.5c0-1.7,1.4-3.1,3.1-3.1s3.1,1.4,3.1,3.1s-1.4,3.1-3.1,3.1v1.5c2.6,0,4.6-2.1,4.6-4.6c0-0.2,0-0.5-0.1-0.7
		c2,0.3,3.6,2,3.9,4c-0.5-0.1-1-0.2-1.5-0.2c-2.2,0-4.2,1.1-5.3,3l1.3,0.8c0.9-1.4,2.3-2.3,4-2.3c2.6,0,4.6,2.1,4.6,4.6
		c0,2.6-2.1,4.6-4.6,4.6h-5.4V67h5.4c3.4,0,6.2-2.8,6.2-6.2C74,58.6,72.7,56.6,70.9,55.5"/>
	<rect id="XMLID_18_" x="67" y="60.8" class="st1" width="1.5" height="1.5"/>
	<path class="st1" d="M49.2,57L49.2,57c-3.1,0.4-5.4,3-5.4,6.2c0,3.4,2.8,6.2,6.2,6.2c3.2,0,5.8-2.4,6.1-5.4h0.1v-1.5h-0.1
		c-0.4-2.8-2.6-5-5.4-5.4V57H49.2z M54.6,63.2c0,2.6-2.1,4.6-4.6,4.6s-4.6-2.1-4.6-4.6c0-2.6,2.1-4.6,4.6-4.6S54.6,60.6,54.6,63.2"
		/>
	<rect id="XMLID_15_" x="32.2" y="61.6" class="st1" width="1.5" height="1.5"/>
	<rect id="XMLID_14_" x="43.8" y="48.5" class="st1" width="1.5" height="1.5"/>
	<rect id="XMLID_13_" x="53.1" y="47.7" class="st1" width="1.5" height="1.5"/>
</g>
</svg>
