<?xml version="1.0" encoding="utf-8"?>
<!-- Generator: Adobe Illustrator 19.0.0, SVG Export Plug-In . SVG Version: 6.00 Build 0)  -->
<svg version="1.1" id="图层_1" xmlns="http://www.w3.org/2000/svg" xmlns:xlink="http://www.w3.org/1999/xlink" x="0px" y="0px"
	 viewBox="0 0 100 100" style="enable-background:new 0 0 100 100;" xml:space="preserve">
<style type="text/css">
	.st0{fill:#032E43;}
	.st1{clip-path:url(#XMLID_3_);fill:#FFFFFF;}
</style>
<circle id="XMLID_1_" class="st0" cx="50" cy="50" r="50"/>
<g>
	<defs>
		<rect id="XMLID_18_" x="25.8" y="25" width="48.5" height="50"/>
	</defs>
	<clipPath id="XMLID_3_">
		<use xlink:href="#XMLID_18_"  style="overflow:visible;"/>
	</clipPath>
	<path id="XMLID_25_" class="st1" d="M25.8,49.6c0-0.1,0-0.3,0-0.4C25.8,35.8,36.6,25,50,25s24.2,10.8,24.2,24.2c0,0.1,0,0.3,0,0.4
		h-2.3c0-0.1,0-0.3,0-0.4c0-12.1-9.8-21.9-21.9-21.9s-21.9,9.8-21.9,21.9c0,0.1,0,0.3,0,0.4H25.8z"/>
	<path class="st1" d="M69.6,47.3c-0.4,0-0.8,0.3-0.8,0.8v10c0,0.4,0.3,0.8,0.8,0.8h1.5c0.4,0,0.8-0.3,0.8-0.8v-10
		c0-0.4-0.3-0.8-0.8-0.8H69.6z M69.6,45h1.5c1.7,0,3.1,1.4,3.1,3.1v10c0,1.7-1.4,3.1-3.1,3.1h-1.5c-1.7,0-3.1-1.4-3.1-3.1v-10
		C66.5,46.4,67.9,45,69.6,45"/>
	<path class="st1" d="M28.8,47.3c-0.4,0-0.8,0.3-0.8,0.8v10c0,0.4,0.3,0.8,0.8,0.8h1.5c0.4,0,0.8-0.3,0.8-0.8v-10
		c0-0.4-0.3-0.8-0.8-0.8H28.8z M28.8,45h1.5c1.7,0,3.1,1.4,3.1,3.1v10c0,1.7-1.4,3.1-3.1,3.1h-1.5c-1.7,0-3.1-1.4-3.1-3.1v-10
		C25.8,46.4,27.1,45,28.8,45"/>
	<path id="XMLID_20_" class="st1" d="M69.1,59.5h2.3c0,11.6-2.5,14.4-13.2,14.4v-2.3C67.5,71.5,69.1,69.9,69.1,59.5"/>
	<path id="XMLID_19_" class="st1" d="M54.2,70.4h2.3c1.3,0,2.3,1,2.3,2.3c0,1.3-1,2.3-2.3,2.3h-2.3c-1.3,0-2.3-1-2.3-2.3
		C51.9,71.4,53,70.4,54.2,70.4"/>
</g>
</svg>
