<?xml version="1.0" encoding="utf-8"?>
<!-- Generator: Adobe Illustrator 19.0.0, SVG Export Plug-In . SVG Version: 6.00 Build 0)  -->
<svg version="1.1" id="图层_1" xmlns="http://www.w3.org/2000/svg" xmlns:xlink="http://www.w3.org/1999/xlink" x="0px" y="0px"
	 viewBox="0 0 28 28" style="enable-background:new 0 0 28 28;" xml:space="preserve">
<style type="text/css">
	.st0{fill:#CCCCCC;}
</style>
<path class="st0" d="M25.1,28H8.1c-1.6,0-2.9-1.3-2.9-2.9v-2.8h1.2v2.8c0,0.9,0.8,1.7,1.7,1.7h17.1c0.9,0,1.7-0.8,1.7-1.7V6.9
	c0-0.9-0.8-1.7-1.7-1.7h-4V4.1h4c1.6,0,2.9,1.3,2.9,2.9v18.2C28,26.7,26.7,28,25.1,28L25.1,28z M25.1,28"/>
<path class="st0" d="M15.6,16.2H6.4c-0.3,0-0.6-0.3-0.6-0.6c0-0.3,0.3-0.6,0.6-0.6h9.3c0.3,0,0.6,0.3,0.6,0.6
	C16.2,15.9,16,16.2,15.6,16.2L15.6,16.2z M15.6,11.6H6.4c-0.3,0-0.6-0.3-0.6-0.6s0.3-0.6,0.6-0.6h9.3c0.3,0,0.6,0.3,0.6,0.6
	S16,11.6,15.6,11.6L15.6,11.6z M15.6,6.9H6.4C6,6.9,5.8,6.7,5.8,6.4C5.8,6,6,5.8,6.4,5.8h9.3c0.3,0,0.6,0.3,0.6,0.6
	C16.2,6.7,16,6.9,15.6,6.9L15.6,6.9z M15.6,6.9"/>
<path class="st0" d="M19.7,1.2c0.6,0,1.2,0.5,1.2,1.2v18.5c0,0.6-0.5,1.2-1.2,1.2H2.3c-0.6,0-1.2-0.5-1.2-1.2V2.3
	c0-0.6,0.5-1.2,1.2-1.2H19.7 M19.7,0H2.3C1,0,0,1,0,2.3v18.5c0,1.3,1,2.3,2.3,2.3h17.4c1.3,0,2.3-1,2.3-2.3V2.3C22,1,21,0,19.7,0
	L19.7,0z M19.7,0"/>
</svg>
