<?xml version="1.0" encoding="utf-8"?>
<!-- Generator: Adobe Illustrator 19.0.0, SVG Export Plug-In . SVG Version: 6.00 Build 0)  -->
<svg version="1.1" id="图层_1" xmlns="http://www.w3.org/2000/svg" xmlns:xlink="http://www.w3.org/1999/xlink" x="0px" y="0px"
	 viewBox="0 0 28 28" style="enable-background:new 0 0 28 28;" xml:space="preserve">
<style type="text/css">
	.st0{fill:#CCCCCC;}
</style>
<path class="st0" d="M11.5,0H1.3C0.6,0,0,0.6,0,1.3v10.2c0,0.7,0.6,1.3,1.3,1.3h10.2c0.7,0,1.3-0.6,1.3-1.3V1.3
	C12.8,0.6,12.2,0,11.5,0L11.5,0z M11.7,11.5c0,0.1-0.1,0.2-0.2,0.2H1.3c-0.1,0-0.2-0.1-0.2-0.2V1.3c0-0.1,0.1-0.2,0.2-0.2h10.2
	c0.1,0,0.2,0.1,0.2,0.2V11.5z M8.2,3.8H4.6c-0.4,0-0.8,0.4-0.8,0.8v3.6C3.8,8.6,4.2,9,4.6,9h3.6C8.6,9,9,8.6,9,8.2V4.6
	C9,4.2,8.6,3.8,8.2,3.8L8.2,3.8z M7.9,7.9H4.9V4.9h2.9V7.9z M8.2,19H4.6c-0.4,0-0.8,0.4-0.8,0.8v3.6c0,0.4,0.4,0.8,0.8,0.8h3.6
	c0.4,0,0.8-0.4,0.8-0.8v-3.6C9,19.4,8.6,19,8.2,19L8.2,19z M7.9,23.1H4.9v-2.9h2.9V23.1z M19.6,9h3.6c0.4,0,0.8-0.4,0.8-0.8V4.6
	c0-0.4-0.4-0.8-0.8-0.8h-3.6c-0.4,0-0.8,0.4-0.8,0.8v3.6C18.8,8.6,19.1,9,19.6,9L19.6,9z M19.9,4.9h2.9v2.9h-2.9V4.9z M11.5,15.1
	H1.3c-0.7,0-1.3,0.6-1.3,1.3v10.2c0,0.7,0.6,1.3,1.3,1.3h10.2c0.7,0,1.3-0.6,1.3-1.3V16.4C12.8,15.7,12.2,15.1,11.5,15.1L11.5,15.1z
	 M11.7,26.6c0,0.1-0.1,0.2-0.2,0.2H1.3c-0.1,0-0.2-0.1-0.2-0.2V16.4c0-0.1,0.1-0.2,0.2-0.2h10.2c0.1,0,0.2,0.1,0.2,0.2V26.6z
	 M16.3,15.1c-0.7,0-1.3,0.6-1.3,1.3v5.9c0,0.3,0.2,0.6,0.6,0.6c0.3,0,0.6-0.2,0.6-0.6v-5.9c0-0.1,0.1-0.2,0.2-0.2h6.2
	c0.3,0,0.6-0.2,0.6-0.6c0-0.3-0.2-0.6-0.6-0.6H16.3z M16.2,12.8h10.2c0.7,0,1.3-0.6,1.3-1.3V1.3c0-0.7-0.6-1.3-1.3-1.3H16.2
	c-0.7,0-1.3,0.6-1.3,1.3v10.2C14.9,12.2,15.5,12.8,16.2,12.8L16.2,12.8z M16.1,1.3c0-0.1,0.1-0.2,0.2-0.2h10.2
	c0.1,0,0.2,0.1,0.2,0.2v10.2c0,0.1-0.1,0.2-0.2,0.2H16.2c-0.1,0-0.2-0.1-0.2-0.2V1.3z M27.8,15.7c0-0.3-0.2-0.6-0.6-0.6h-2
	c-0.3,0-0.6,0.2-0.6,0.6c0,0.3,0.2,0.6,0.6,0.6h1.5v2.1H22c-0.3,0-0.6,0.2-0.6,0.6c0,0.3,0.2,0.6,0.6,0.6h5.2c0.3,0,0.6-0.2,0.6-0.6
	c0,0,0,0,0,0c0,0,0,0,0,0V15.7z M17.5,26.8h-1.4v-1.6c0-0.3-0.2-0.6-0.6-0.6c-0.3,0-0.6,0.2-0.6,0.6v2.1c0,0.3,0.2,0.6,0.6,0.6h1.9
	c0.3,0,0.6-0.2,0.6-0.6C18,27,17.8,26.8,17.5,26.8L17.5,26.8z M23.7,22.5c0-0.3-0.2-0.6-0.6-0.6h-3.5c-0.3,0-0.6,0.2-0.6,0.6v4.9
	c0,0.3,0.2,0.6,0.6,0.6c0.3,0,0.6-0.2,0.6-0.6V23h3C23.4,23,23.7,22.8,23.7,22.5L23.7,22.5z M27.2,20.4c-0.3,0-0.6,0.2-0.6,0.6v5.9
	h-5c-0.3,0-0.6,0.2-0.6,0.6c0,0.3,0.2,0.6,0.6,0.6h5.6c0.3,0,0.6-0.2,0.6-0.6V21C27.8,20.7,27.5,20.4,27.2,20.4L27.2,20.4z
	 M18.3,17.4c-0.3,0-0.6,0.2-0.6,0.6v1.8c0,0.3,0.2,0.6,0.6,0.6s0.6-0.2,0.6-0.6V18C18.8,17.7,18.6,17.4,18.3,17.4L18.3,17.4z
	 M18.3,17.4"/>
</svg>
