<?xml version="1.0" encoding="utf-8"?>
<!-- Generator: Adobe Illustrator 19.0.0, SVG Export Plug-In . SVG Version: 6.00 Build 0)  -->
<svg version="1.1" id="图层_1" xmlns="http://www.w3.org/2000/svg" xmlns:xlink="http://www.w3.org/1999/xlink" x="0px" y="0px"
	 viewBox="0 0 1014 642.4" style="enable-background:new 0 0 1014 642.4;" xml:space="preserve">
<style type="text/css">
	.st0{fill:#F7F7F7;}
	.st1{fill:#FFFFFF;}
	.st2{fill:#0A0A0A;}
	.st3{fill:#2F4B75;}
	.st4{fill:#212A4F;}
	.st5{fill:#454A70;}
	.st6{fill:#44CFE2;}
</style>
<g>
	<g>
		<g>
			<rect x="80" y="9.1" class="st0" width="1.5" height="552.5"/>
		</g>
	</g>
	<g>
		<g>
			<rect x="122" y="9.1" class="st0" width="1.5" height="552.5"/>
		</g>
	</g>
	<g>
		<g>
			<rect x="164" y="9.1" class="st0" width="1.5" height="552.5"/>
		</g>
	</g>
	<g>
		<g>
			<rect x="206" y="9.1" class="st0" width="1.5" height="552.5"/>
		</g>
	</g>
	<g>
		<g>
			<rect x="248" y="9.1" class="st0" width="1.5" height="552.5"/>
		</g>
	</g>
	<g>
		<g>
			<rect x="290" y="9.1" class="st0" width="1.5" height="552.5"/>
		</g>
	</g>
	<g>
		<g>
			<rect x="332" y="9.1" class="st0" width="1.5" height="552.5"/>
		</g>
	</g>
	<g>
		<g>
			<rect x="374" y="9.1" class="st0" width="1.5" height="552.5"/>
		</g>
	</g>
	<g>
		<g>
			<rect x="416" y="9.1" class="st0" width="1.5" height="552.5"/>
		</g>
	</g>
	<g>
		<g>
			<rect x="458" y="9.1" class="st0" width="1.5" height="552.5"/>
		</g>
	</g>
	<g>
		<g>
			<rect x="500" y="9.1" class="st0" width="1.5" height="552.5"/>
		</g>
	</g>
	<g>
		<g>
			<rect x="542" y="9.1" class="st0" width="1.5" height="552.5"/>
		</g>
	</g>
	<g>
		<g>
			<rect x="584" y="9.1" class="st0" width="1.5" height="552.5"/>
		</g>
	</g>
	<g>
		<g>
			<rect x="626" y="9.1" class="st0" width="1.5" height="552.5"/>
		</g>
	</g>
	<g>
		<g>
			<rect x="668" y="9.1" class="st0" width="1.5" height="552.5"/>
		</g>
	</g>
	<g>
		<g>
			<rect x="710" y="9.1" class="st0" width="1.5" height="552.5"/>
		</g>
	</g>
	<g>
		<g>
			<rect x="752" y="9.1" class="st0" width="1.5" height="552.5"/>
		</g>
	</g>
	<g>
		<g>
			<rect x="794" y="9.1" class="st0" width="1.5" height="552.5"/>
		</g>
	</g>
	<g>
		<g>
			<polyline class="st0" points="836,9.1 837.5,9.1 837.5,561.5 836,561.5 			"/>
		</g>
	</g>
	<g>
		<g>
			<rect x="878" y="9.1" class="st0" width="1.5" height="552.5"/>
		</g>
	</g>
	<g>
		<g>
			<rect x="920" y="9.1" class="st0" width="1.5" height="552.5"/>
		</g>
	</g>
	<g>
		<g>
			<rect x="962" y="9.1" class="st0" width="1.5" height="552.5"/>
		</g>
	</g>
</g>
<g>
	<g>
		<g>
			<rect x="38.7" y="181.9" class="st0" width="957.3" height="1.5"/>
		</g>
	</g>
	<g>
		<g>
			<rect x="38.7" y="224" class="st0" width="957.3" height="1.5"/>
		</g>
	</g>
	<g>
		<g>
			<rect x="38.7" y="266.1" class="st0" width="957.3" height="1.5"/>
		</g>
	</g>
	<g>
		<g>
			<rect x="38.7" y="55.5" class="st0" width="957.3" height="1.5"/>
		</g>
	</g>
	<g>
		<g>
			<rect x="38.7" y="13.7" class="st0" width="957.3" height="1.5"/>
		</g>
	</g>
	<g>
		<g>
			<rect x="38.7" y="97.6" class="st0" width="957.3" height="1.5"/>
		</g>
	</g>
	<g>
		<g>
			<rect x="38.7" y="139.7" class="st0" width="957.3" height="1.5"/>
		</g>
	</g>
	<g>
		<g>
			<rect x="38.7" y="308.2" class="st0" width="957.3" height="1.5"/>
		</g>
	</g>
	<g>
		<g>
			<rect x="40.2" y="350.3" class="st0" width="957.3" height="1.5"/>
		</g>
	</g>
	<g>
		<g>
			<rect x="38.7" y="392.4" class="st0" width="957.3" height="1.5"/>
		</g>
	</g>
	<g>
		<g>
			<rect x="38.7" y="434.5" class="st0" width="957.3" height="1.5"/>
		</g>
	</g>
	<g>
		<g>
			<rect x="38.7" y="476.6" class="st0" width="957.3" height="1.5"/>
		</g>
	</g>
	<g>
		<g>
			<rect x="38.7" y="518.7" class="st0" width="957.3" height="1.5"/>
		</g>
	</g>
</g>
<g>
	<g>
		<rect x="38.7" y="560.8" class="st1" width="734" height="1.5"/>
	</g>
</g>
<g>
	<g>
		<g>
			<rect x="23.2" y="560" width="973.9" height="3"/>
		</g>
	</g>
</g>
<g>
	<g>
		<rect x="65.2" y="561.5" class="st1" width="3" height="3.3"/>
	</g>
</g>
<g>
	<g>
		<rect x="93.2" y="561.5" class="st1" width="3" height="3.3"/>
	</g>
</g>
<g>
	<g>
		<rect x="120.5" y="561.5" width="4.5" height="8.6"/>
	</g>
</g>
<g>
	<g>
		<rect x="149.2" y="561.5" class="st1" width="3" height="3.3"/>
	</g>
</g>
<g>
	<g>
		<rect x="177.2" y="561.5" class="st1" width="3" height="3.3"/>
	</g>
</g>
<g>
	<g>
		<rect x="204.5" y="561.5" width="4.5" height="8.6"/>
	</g>
</g>
<g>
	<g>
		<rect x="233.2" y="561.5" class="st1" width="3" height="3.3"/>
	</g>
</g>
<g>
	<g>
		<rect x="261.2" y="561.5" class="st1" width="3" height="3.3"/>
	</g>
</g>
<g>
	<g>
		<rect x="288.5" y="561.5" width="4.5" height="8.6"/>
	</g>
</g>
<g>
	<g>
		<rect x="317.2" y="561.5" class="st1" width="3" height="3.3"/>
	</g>
</g>
<g>
	<g>
		<rect x="345.2" y="561.5" class="st1" width="3" height="3.3"/>
	</g>
</g>
<g>
	<g>
		<rect x="372.4" y="561.5" width="4.5" height="8.6"/>
	</g>
</g>
<g>
	<g>
		<rect x="401.2" y="561.5" class="st1" width="3" height="3.3"/>
	</g>
</g>
<g>
	<g>
		<rect x="429.2" y="561.5" class="st1" width="3" height="3.3"/>
	</g>
</g>
<g>
	<g>
		<rect x="456.5" y="561.5" width="4.5" height="8.6"/>
	</g>
</g>
<g>
	<g>
		<rect x="485.3" y="561.5" class="st1" width="3" height="3.3"/>
	</g>
</g>
<g>
	<g>
		<rect x="513.2" y="561.5" class="st1" width="3" height="3.3"/>
	</g>
</g>
<g>
	<g>
		<rect x="540.5" y="561.5" width="4.5" height="8.6"/>
	</g>
</g>
<g>
	<g>
		<rect x="569.2" y="561.5" class="st1" width="3" height="3.3"/>
	</g>
</g>
<g>
	<g>
		<rect x="597.3" y="561.5" class="st1" width="3" height="3.3"/>
	</g>
</g>
<g>
	<g>
		<rect x="624.5" y="561.5" width="4.5" height="8.6"/>
	</g>
</g>
<g>
	<g>
		<rect x="653.2" y="561.5" class="st1" width="3" height="3.3"/>
	</g>
</g>
<g>
	<g>
		<rect x="681.2" y="561.5" class="st1" width="3" height="3.3"/>
	</g>
</g>
<g>
	<g>
		<rect x="708.5" y="561.5" width="4.5" height="8.6"/>
	</g>
</g>
<g>
	<g>
		<rect x="737.2" y="561.5" class="st1" width="3" height="3.3"/>
	</g>
</g>
<g>
	<g>
		<rect x="765.2" y="561.5" class="st1" width="3" height="3.3"/>
	</g>
</g>
<g>
	<g>
		<rect x="792.1" y="561.6" width="4.5" height="8.6"/>
	</g>
</g>
<g>
	<g>
		<rect x="821.2" y="561.5" class="st1" width="3" height="3.3"/>
	</g>
</g>
<g>
	<g>
		<rect x="848.8" y="561.5" class="st1" width="3" height="3.3"/>
	</g>
</g>
<g>
	<g>
		<rect x="905.2" y="561.5" class="st1" width="3" height="3.3"/>
	</g>
</g>
<g>
	<g>
		<rect x="933.2" y="561.5" class="st1" width="3" height="3.3"/>
	</g>
</g>
<g>
	<g>
		<rect x="876.5" y="561.5" width="4.5" height="8.6"/>
	</g>
</g>
<g>
	<g>
		<rect x="960.5" y="561.5" width="4.5" height="8.6"/>
	</g>
</g>
<g>
	<g>
		<rect x="30.2" y="475.1" width="8.5" height="4.5"/>
	</g>
</g>
<g>
	<g>
		<rect x="30.5" y="390.9" width="8.5" height="4.5"/>
	</g>
</g>
<g>
	<g>
		<rect x="30.2" y="306.7" width="8.5" height="4.5"/>
	</g>
</g>
<g>
	<g>
		<rect x="30.2" y="222.5" width="8.5" height="4.5"/>
	</g>
</g>
<g>
	<g>
		<rect x="30.2" y="138.2" width="8.5" height="4.5"/>
	</g>
</g>
<g>
	<g>
		<g>
			<rect x="35.4" y="531.9" class="st1" width="3.3" height="3"/>
		</g>
	</g>
	<g>
		<g>
			<rect x="35.4" y="503.9" class="st1" width="3.3" height="3"/>
		</g>
	</g>
	<g>
		<g>
			<rect x="35.4" y="447.7" class="st1" width="3.3" height="3"/>
		</g>
	</g>
	<g>
		<g>
			<rect x="35.4" y="419.7" class="st1" width="3.3" height="3"/>
		</g>
	</g>
	<g>
		<g>
			<rect x="35.4" y="363.5" class="st1" width="3.3" height="3"/>
		</g>
	</g>
	<g>
		<g>
			<rect x="35.4" y="335.5" class="st1" width="3.3" height="3"/>
		</g>
	</g>
	<g>
		<g>
			<rect x="35.4" y="279.3" class="st1" width="3.3" height="3"/>
		</g>
	</g>
	<g>
		<g>
			<rect x="35.4" y="251.3" class="st1" width="3.3" height="3"/>
		</g>
	</g>
	<g>
		<g>
			<rect x="35.4" y="195.1" class="st1" width="3.3" height="3"/>
		</g>
	</g>
	<g>
		<g>
			<rect x="35.4" y="167.1" class="st1" width="3.3" height="3"/>
		</g>
	</g>
	<g>
		<g>
			<rect x="35.4" y="110.9" class="st1" width="3.3" height="3"/>
		</g>
	</g>
	<g>
		<g>
			<rect x="35.4" y="83.2" class="st1" width="3.3" height="3"/>
		</g>
	</g>
	<g>
		<g>
			<rect x="35.4" y="26.7" class="st1" width="3.3" height="3"/>
		</g>
	</g>
</g>
<g>
	<g>
		<rect x="30.2" y="54" width="8.5" height="4.5"/>
	</g>
</g>
<g>
	<path d="M30.1,565c2.8,0.1,4.2,1.9,4.2,5.5c-0.2,1.8-0.9,3.2-2.3,4c-0.6,0.3-1.4,0.5-2.4,0.4c-2.3-0.2-3.6-1.9-3.8-5
		c0-2.2,0.9-3.7,2.5-4.6c0.2-0.1,0.7-0.2,1.5-0.3H30.1z M29.9,566.1c-1.5,0.1-2.4,1-2.9,2.9c-0.1,0.7-0.1,1.6,0.2,2.7
		c0.5,1.4,1.4,2.1,2.6,2.2h0.7c1.7-0.3,2.5-1.6,2.6-4c0-1.7-0.7-2.9-2-3.5C31,566.1,30.6,566.1,29.9,566.1z"/>
</g>
<g>
	<polygon class="st2" points="996,569.1 1003.1,561.6 996,554.2 	"/>
</g>
<g>
	<polygon class="st2" points="46.1,9.1 38.6,1.9 31.3,9.1 	"/>
</g>
<g>
	<rect x="65.2" y="557.5" width="31" height="9.7"/>
</g>
<g>
	<rect x="149.2" y="557.5" class="st3" width="31" height="9.7"/>
</g>
<g>
	<rect x="233.2" y="557.5" class="st4" width="31" height="9.7"/>
</g>
<g>
	<rect x="317.2" y="557.5" class="st5" width="31" height="9.7"/>
</g>
<g>
	<rect x="401.2" y="557.5" class="st3" width="31" height="9.7"/>
</g>
<g>
	<rect x="485.3" y="557.5" class="st4" width="31" height="9.7"/>
</g>
<g>
	<rect x="569.2" y="557.5" class="st5" width="31" height="9.7"/>
</g>
<g>
	<rect x="653.2" y="557.5" class="st3" width="31" height="9.7"/>
</g>
<g>
	<rect x="737.2" y="557.5" class="st4" width="31" height="9.7"/>
</g>
<g>
	<rect x="821.2" y="557.5" class="st5" width="30.6" height="9.7"/>
</g>
<g>
	<rect x="905.2" y="557.5" class="st3" width="31" height="9.7"/>
</g>
<g>
	<g>
		<g>
			<rect x="37.2" y="9.1" width="3" height="566.5"/>
		</g>
	</g>
</g>
<g>
	<path d="M122.3,575.4c-0.5,0.5-1.1,1-1.9,1.4v-1.1c0.9-0.6,1.7-1.4,2.3-2.3h0.7v9.7h-1.1V575.4z"/>
</g>
<g>
	<path d="M21.5,475.5c-0.5,0.5-1.1,1-1.9,1.4v-1.1c0.9-0.6,1.7-1.4,2.3-2.3h0.7v9.7h-1.1V475.5z"/>
</g>
<g>
	<path d="M19,397.7c0-0.6,0.3-1.1,0.8-1.5c0.5-0.5,1.1-1.2,1.9-2.1c0.8-1,1.2-1.7,1.5-2.2c0.2-0.5,0.3-1,0.3-1.4
		c-0.1-0.4-0.2-0.7-0.5-0.9c-0.3-0.2-0.6-0.3-1-0.3s-0.8,0.2-1.1,0.5c-0.4,0.3-0.6,0.7-0.8,1.2l-1.1-0.2c0.3-0.9,0.7-1.5,1.2-1.9
		c0.5-0.4,1-0.6,1.7-0.7c0.4,0,0.7,0,1,0c0.3,0.1,0.6,0.2,0.9,0.4c0.3,0.2,0.6,0.5,0.8,0.9c0.2,0.4,0.3,0.9,0.2,1.5
		c-0.1,0.6-0.3,1.3-0.9,2.1c-0.5,0.8-1.5,2.1-3,3.8h4.1v1H19V397.7z"/>
</g>
<g>
	<path d="M18.9,310.4l1-0.2c0.1,0.5,0.4,0.9,0.7,1.2c0.3,0.3,0.8,0.5,1.3,0.5c0.5,0,0.9-0.2,1.2-0.6c0.3-0.4,0.4-0.8,0.4-1.4
		c0-0.5-0.2-0.9-0.6-1.2c-0.4-0.3-0.9-0.5-1.7-0.6v-0.7c0.8-0.1,1.4-0.3,1.7-0.6c0.4-0.3,0.5-0.8,0.5-1.3c0-0.5-0.3-0.9-0.7-1.2
		c-0.5-0.2-0.9-0.3-1.4-0.1c-0.5,0.2-0.9,0.7-1.2,1.6l-1-0.2c0.2-0.7,0.5-1.2,0.9-1.7s0.9-0.7,1.6-0.8c0.7-0.1,1.3,0,1.8,0.3
		c0.5,0.2,0.9,0.6,1.1,1.1c0.2,0.5,0.2,1.1,0.1,1.7c-0.2,0.6-0.6,1.1-1.3,1.6c0.5,0.2,0.9,0.6,1.2,1s0.4,1,0.3,1.8
		c-0.1,0.7-0.4,1.3-1,1.8c-0.6,0.5-1.2,0.7-1.9,0.7c-0.7,0-1.3-0.2-1.9-0.7C19.4,311.8,19.1,311.2,18.9,310.4z"/>
</g>
<g>
	<path d="M22.9,227.4h-4.3v-1l4.6-6.6h0.8v6.6h1.4v1h-1.4v2.1h-1.1V227.4z M22.9,226.5V222l-3.2,4.5H22.9z"/>
</g>
<g>
	<path d="M19.6,142.6c0.3,1,0.7,1.6,1.4,1.7c0.6,0.1,1.2,0,1.6-0.2c0.4-0.2,0.7-0.6,0.8-1c0.2-0.4,0.2-0.8,0.2-1.3
		c0-0.5-0.2-0.9-0.4-1.2c-0.2-0.3-0.6-0.6-0.9-0.7c-0.4-0.1-0.8-0.1-1.3,0c-0.5,0.1-0.9,0.4-1.2,0.8l-1-0.1c0.1-0.2,0.4-1.8,1.1-4.9
		h4.5v1h-3.6c-0.2,1-0.4,1.8-0.6,2.4c0.6-0.3,1.1-0.4,1.6-0.4c0.5,0,1,0.1,1.4,0.3c0.5,0.2,0.8,0.5,1,0.8c0.2,0.4,0.4,0.7,0.5,1.1
		c0.1,0.4,0.1,0.7,0.1,1.2c0,0.4-0.1,0.8-0.3,1.3c-0.2,0.4-0.4,0.8-0.7,1.1c-0.3,0.3-0.7,0.5-1.1,0.7c-0.4,0.2-0.9,0.2-1.5,0.2
		c-0.6,0-1.1-0.2-1.6-0.6c-0.5-0.4-0.9-1-1-1.9L19.6,142.6z"/>
</g>
<g>
	<path d="M18.9,57.7c0-0.5,0.1-1,0.3-1.4c0.2-0.4,0.4-0.8,0.8-1.4l2.3-3.6h1.3L21.2,55c1-0.3,1.8-0.2,2.4,0.1c0.6,0.3,1,0.7,1.2,1.2
		c0.2,0.4,0.3,0.9,0.3,1.4c0,0.5-0.1,1-0.2,1.5c-0.2,0.5-0.5,0.9-0.9,1.3c-0.4,0.4-1,0.6-1.8,0.7c-0.8,0-1.4-0.1-2-0.4
		c-0.5-0.3-0.9-0.8-1.1-1.4C18.9,58.8,18.9,58.2,18.9,57.7z M20.6,59.5c0.3,0.4,0.8,0.6,1.4,0.6c0.6,0,1-0.2,1.4-0.6
		c0.4-0.4,0.6-1,0.6-1.8c0-0.8-0.2-1.3-0.7-1.6c-0.5-0.3-1-0.4-1.6-0.3c-0.6,0.1-1,0.4-1.3,0.8c-0.3,0.5-0.4,1-0.3,1.6
		C20.1,58.7,20.3,59.2,20.6,59.5z"/>
</g>
<g>
	<path d="M203.8,583c0-0.6,0.3-1.1,0.8-1.5c0.5-0.5,1.1-1.2,1.9-2.1c0.8-1,1.2-1.7,1.5-2.2c0.2-0.5,0.3-1,0.3-1.4
		c-0.1-0.4-0.2-0.7-0.5-0.9c-0.3-0.2-0.6-0.3-1-0.3s-0.8,0.2-1.1,0.5c-0.4,0.3-0.6,0.7-0.8,1.2l-1.1-0.2c0.3-0.9,0.7-1.5,1.2-1.9
		c0.5-0.4,1-0.6,1.7-0.7c0.4,0,0.7,0,1,0c0.3,0.1,0.6,0.2,0.9,0.4c0.3,0.2,0.6,0.5,0.8,0.9c0.2,0.4,0.3,0.9,0.2,1.5
		c-0.1,0.6-0.3,1.3-0.9,2.1c-0.5,0.8-1.5,2.1-3,3.8h4.1v1h-5.7V583z"/>
</g>
<g>
	<path d="M287.7,580.8l1-0.2c0.1,0.5,0.4,0.9,0.7,1.2c0.3,0.3,0.8,0.5,1.3,0.5c0.5,0,0.9-0.2,1.2-0.6c0.3-0.4,0.4-0.8,0.4-1.4
		c0-0.5-0.2-0.9-0.6-1.2c-0.4-0.3-0.9-0.5-1.7-0.6v-0.7c0.8-0.1,1.4-0.3,1.7-0.6c0.4-0.3,0.5-0.8,0.5-1.3c0-0.5-0.3-0.9-0.7-1.2
		c-0.5-0.2-0.9-0.3-1.4-0.1c-0.5,0.2-0.9,0.7-1.2,1.6l-1-0.2c0.2-0.7,0.5-1.2,0.9-1.7s0.9-0.7,1.6-0.8c0.7-0.1,1.3,0,1.8,0.3
		c0.5,0.2,0.9,0.6,1.1,1.1c0.2,0.5,0.2,1.1,0.1,1.7c-0.2,0.6-0.6,1.1-1.3,1.6c0.5,0.2,0.9,0.6,1.2,1s0.4,1,0.3,1.8
		c-0.1,0.7-0.4,1.3-1,1.8c-0.6,0.5-1.2,0.7-1.9,0.7c-0.7,0-1.3-0.2-1.9-0.7C288.1,582.3,287.8,581.6,287.7,580.8z"/>
</g>
<g>
	<path d="M375.5,581.1h-4.3v-1l4.6-6.6h0.8v6.6h1.4v1h-1.4v2.1h-1.1V581.1z M375.5,580.1v-4.5l-3.2,4.5H375.5z"/>
</g>
<g>
	<path d="M456.3,580.6c0.3,1,0.7,1.6,1.4,1.7s1.2,0,1.6-0.2c0.4-0.2,0.7-0.6,0.8-1c0.2-0.4,0.2-0.8,0.2-1.3c0-0.5-0.2-0.9-0.4-1.2
		c-0.2-0.3-0.6-0.6-0.9-0.7s-0.8-0.1-1.3,0s-0.9,0.4-1.2,0.8l-1-0.1c0.1-0.2,0.4-1.8,1.1-4.9h4.5v1h-3.6c-0.2,1-0.4,1.8-0.6,2.4
		c0.6-0.3,1.1-0.4,1.6-0.4c0.5,0,1,0.1,1.4,0.3c0.5,0.2,0.8,0.5,1,0.8c0.2,0.4,0.4,0.7,0.5,1.1c0.1,0.4,0.1,0.7,0.1,1.2
		c0,0.4-0.1,0.8-0.3,1.3c-0.2,0.4-0.4,0.8-0.7,1.1c-0.3,0.3-0.7,0.5-1.1,0.7c-0.4,0.2-0.9,0.2-1.5,0.2c-0.6,0-1.1-0.2-1.6-0.6
		c-0.5-0.4-0.9-1-1-1.9L456.3,580.6z"/>
</g>
<g>
	<path d="M539.3,579.9c0-0.5,0.1-1,0.3-1.4c0.2-0.4,0.4-0.8,0.8-1.4l2.3-3.6h1.3l-2.4,3.7c1-0.3,1.8-0.2,2.4,0.1
		c0.6,0.3,1,0.7,1.2,1.2c0.2,0.4,0.3,0.9,0.3,1.4c0,0.5-0.1,1-0.2,1.5c-0.2,0.5-0.5,0.9-0.9,1.3c-0.4,0.4-1,0.6-1.8,0.7
		c-0.8,0-1.4-0.1-2-0.4c-0.5-0.3-0.9-0.8-1.1-1.4C539.3,581,539.2,580.5,539.3,579.9z M541,581.8c0.3,0.4,0.8,0.6,1.4,0.6
		c0.6,0,1-0.2,1.4-0.6s0.6-1,0.6-1.8c0-0.8-0.2-1.3-0.7-1.6c-0.5-0.3-1-0.4-1.6-0.3c-0.6,0.1-1,0.4-1.3,0.8c-0.3,0.5-0.4,1-0.3,1.6
		C540.5,581,540.7,581.4,541,581.8z"/>
</g>
<g>
	<path d="M628.6,574.7h-4.9v-1h6v1c-1.8,2.9-2.9,5.7-3.5,8.6H625C625.7,580.4,626.9,577.5,628.6,574.7z"/>
</g>
<g>
	<path d="M707.5,580.5c0-0.5,0.1-0.9,0.3-1.3c0.2-0.4,0.6-0.8,1.1-1c-0.5-0.3-0.8-0.6-0.9-0.9c-0.2-0.3-0.2-0.7-0.3-1.1
		c0-0.4,0-0.8,0.2-1.1s0.3-0.6,0.6-0.8c0.3-0.3,0.6-0.4,0.9-0.5c0.3-0.1,0.7-0.1,1-0.1s0.7,0,1,0.1c0.3,0.1,0.6,0.2,1,0.5
		c0.3,0.2,0.6,0.6,0.7,1c0.2,0.5,0.1,1,0,1.6c-0.2,0.6-0.6,1.1-1.3,1.4c0.6,0.2,1.1,0.5,1.4,0.9c0.3,0.4,0.4,0.9,0.4,1.4
		s-0.1,1-0.3,1.4c-0.2,0.3-0.4,0.6-0.6,0.8c-0.2,0.2-0.5,0.4-0.8,0.5s-0.8,0.2-1.4,0.2c-0.5,0-1-0.1-1.4-0.2c-0.4-0.1-0.7-0.3-1-0.6
		c-0.3-0.3-0.4-0.6-0.5-0.9C707.5,581.3,707.5,580.9,707.5,580.5z M708.7,580.4c0,0.5,0.1,0.8,0.2,1.2c0.2,0.3,0.5,0.6,0.9,0.7
		c0.5,0.1,0.9,0.1,1.4,0c0.5-0.1,0.8-0.4,1-0.8c0.2-0.4,0.3-0.8,0.2-1.2c-0.1-0.4-0.3-0.8-0.7-1c-0.4-0.3-0.9-0.4-1.4-0.4
		c-0.5,0-0.9,0.2-1.2,0.5C708.8,579.6,708.7,579.9,708.7,580.4z M708.8,576c0,0.4,0.1,0.7,0.4,1.1c0.3,0.3,0.7,0.5,1.2,0.5
		c0.6,0,1-0.2,1.3-0.5c0.3-0.3,0.4-0.7,0.4-1.2c0-0.5-0.2-0.8-0.5-1c-0.3-0.2-0.8-0.3-1.3-0.3c-0.5,0-0.9,0.2-1.2,0.5
		C709,575.3,708.8,575.6,708.8,576z"/>
</g>
<g>
	<path d="M792.5,583.4c0.8-1.4,1.5-2.7,2-3.8c-0.9,0.2-1.7,0-2.3-0.4c-0.6-0.4-1-0.9-1.1-1.6c-0.1-0.7-0.1-1.3,0-1.8
		c0.2-0.5,0.4-1,0.7-1.4c0.3-0.4,0.7-0.6,1.2-0.8c0.5-0.2,0.9-0.2,1.2-0.2c0.4,0,0.7,0.1,1.1,0.2c0.4,0.2,0.7,0.4,1,0.7
		s0.5,0.6,0.6,0.9c0.1,0.3,0.2,0.7,0.2,1.2s-0.2,1.2-0.6,2s-1.3,2.4-2.8,4.9H792.5z M792.2,577.1c0.1,0.5,0.3,0.9,0.6,1.2
		c0.4,0.3,0.7,0.5,1.2,0.4c0.4,0,0.7-0.2,1-0.3c0.2-0.2,0.5-0.5,0.7-1c0.1-0.6,0.2-1,0.1-1.4c-0.1-0.4-0.3-0.7-0.6-1
		c-0.3-0.3-0.7-0.4-1-0.4c-0.2,0-0.5,0-0.9,0.2c-0.4,0.2-0.6,0.5-0.8,0.9C792.2,576.1,792.2,576.6,792.2,577.1z"/>
</g>
<g>
	<path d="M874.7,575.4c-0.5,0.5-1.1,1-1.9,1.4v-1.1c0.9-0.6,1.7-1.4,2.3-2.3h0.7v9.7h-1.1V575.4z"/>
	<path d="M879.2,577.8c0-1,0.2-1.8,0.4-2.4c0.2-0.6,0.6-1.1,1-1.4c0.5-0.4,1-0.6,1.7-0.6s1.2,0.3,1.7,0.8c0.5,0.5,0.8,1.2,1,2.1
		s0.2,1.8,0.1,2.9s-0.2,2-0.6,2.6c-0.3,0.7-0.8,1.2-1.4,1.4c-0.6,0.3-1.3,0.2-1.9-0.1c-0.6-0.3-1.1-0.7-1.4-1.3
		c-0.3-0.5-0.5-1.1-0.6-1.7C879.2,579.6,879.2,578.8,879.2,577.8z M880.4,577.5c-0.1,1-0.1,2,0.1,2.8c0.2,0.8,0.5,1.4,0.9,1.7
		c0.4,0.3,0.9,0.4,1.3,0.2c0.5-0.2,0.8-0.6,1-1.2c0.2-0.6,0.3-1.3,0.3-2c0-0.7,0-1.4-0.1-2c-0.1-0.6-0.2-1.1-0.5-1.6
		c-0.3-0.5-0.7-0.7-1.1-0.8c-0.5,0-0.9,0.2-1.2,0.7C880.8,575.7,880.5,576.4,880.4,577.5z"/>
</g>
<g>
	<path d="M958.7,575.4c-0.5,0.5-1.1,1-1.9,1.4v-1.1c0.9-0.6,1.7-1.4,2.3-2.3h0.7v9.7h-1.1V575.4z"/>
	<path d="M965.9,575.4c-0.5,0.5-1.1,1-1.9,1.4v-1.1c0.9-0.6,1.7-1.4,2.3-2.3h0.7v9.7h-1.1V575.4z"/>
</g>
<g>
	<path class="st2" d="M980.3,594h-1.1l-1.3-2.1c-0.3-0.4-0.5-0.7-0.7-0.9c-0.2-0.2-0.5-0.2-0.7-0.2h-0.7v3.2h-1v-7.6h2.3
		c0.7,0,1.3,0.2,1.7,0.5c0.4,0.4,0.6,0.9,0.6,1.5c0,1-0.6,1.7-1.7,2v0c0.2,0.1,0.4,0.2,0.5,0.4c0.2,0.2,0.3,0.4,0.6,0.8L980.3,594z
		 M975.8,587.3v2.7h1.1c0.4,0,0.8-0.1,1.1-0.4c0.3-0.3,0.4-0.6,0.4-1c0-0.4-0.1-0.7-0.4-0.9c-0.3-0.2-0.6-0.3-1.1-0.3H975.8z"/>
	<path class="st2" d="M981.3,589c0.5-0.3,1.2-0.5,1.9-0.5c1.3,0,1.9,0.7,1.9,2.1v3.5h-0.9v-0.8h0c-0.4,0.6-0.9,1-1.7,1
		c-0.5,0-0.9-0.1-1.2-0.4s-0.5-0.7-0.5-1.1c0-1,0.6-1.6,1.8-1.8l1.6-0.2c0-0.9-0.4-1.3-1.1-1.3c-0.6,0-1.2,0.2-1.8,0.7V589z
		 M982.9,591.5c-0.4,0.1-0.7,0.2-0.9,0.3c-0.2,0.2-0.3,0.4-0.3,0.7c0,0.3,0.1,0.5,0.3,0.6s0.4,0.2,0.7,0.2c0.4,0,0.8-0.1,1-0.4
		s0.4-0.7,0.4-1.1v-0.5L982.9,591.5z"/>
	<path class="st2" d="M991.3,594h-1V591c0-1.1-0.4-1.7-1.2-1.7c-0.4,0-0.8,0.2-1,0.5s-0.4,0.7-0.4,1.2v3.1h-1v-5.4h1v0.9h0
		c0.4-0.7,1-1,1.8-1c0.6,0,1,0.2,1.3,0.6c0.3,0.4,0.5,0.9,0.5,1.7V594z"/>
	<path class="st2" d="M997.4,594h-1.3l-2.3-2.6h0v2.6h-1v-8h1v5.1h0l2.2-2.5h1.2l-2.4,2.6L997.4,594z"/>
	<path class="st2" d="M998.2,586.7c0-0.2,0.1-0.3,0.2-0.4c0.1-0.1,0.3-0.2,0.4-0.2c0.2,0,0.3,0.1,0.4,0.2c0.1,0.1,0.2,0.3,0.2,0.4
		c0,0.2-0.1,0.3-0.2,0.4c-0.1,0.1-0.3,0.2-0.4,0.2c-0.2,0-0.3-0.1-0.4-0.2C998.2,587.1,998.2,586.9,998.2,586.7z M998.3,594v-5.4h1
		v5.4H998.3z"/>
	<path class="st2" d="M1005.5,594h-1V591c0-1.1-0.4-1.7-1.2-1.7c-0.4,0-0.8,0.2-1,0.5s-0.4,0.7-0.4,1.2v3.1h-1v-5.4h1v0.9h0
		c0.4-0.7,1-1,1.8-1c0.6,0,1,0.2,1.3,0.6c0.3,0.4,0.5,0.9,0.5,1.7V594z"/>
	<path class="st2" d="M1011.8,593.6c0,2-1,3-2.9,3c-0.7,0-1.3-0.1-1.7-0.4v-0.9c0.6,0.3,1.2,0.5,1.7,0.5c1.3,0,2-0.7,2-2.1v-0.6h0
		c-0.4,0.7-1,1-1.8,1c-0.7,0-1.2-0.2-1.6-0.7c-0.4-0.5-0.6-1.1-0.6-1.9c0-0.9,0.2-1.7,0.7-2.2c0.4-0.5,1-0.8,1.8-0.8
		c0.7,0,1.3,0.3,1.6,0.9h0v-0.7h1V593.6z M1010.8,590.8c0-0.4-0.1-0.8-0.4-1.1s-0.6-0.4-1-0.4c-0.5,0-0.9,0.2-1.2,0.6
		c-0.3,0.4-0.4,0.9-0.4,1.6c0,0.6,0.1,1,0.4,1.4s0.6,0.5,1.1,0.5c0.5,0,0.8-0.2,1.1-0.5c0.3-0.3,0.4-0.8,0.4-1.3V590.8z"/>
</g>
<g>
	<path class="st2" d="M6.1,11c-0.4,0.2-0.9,0.4-1.5,0.4c-0.8,0-1.4-0.3-1.9-0.8c-0.5-0.5-0.7-1.2-0.7-1.9c0-0.9,0.3-1.6,0.8-2.1
		C3.3,6,4,5.7,4.9,5.7c0.5,0,0.9,0.1,1.3,0.3v0.9C5.8,6.6,5.3,6.5,4.9,6.5c-0.5,0-1,0.2-1.3,0.6C3.2,7.4,3,7.9,3,8.6
		C3,9.2,3.2,9.7,3.5,10s0.8,0.5,1.3,0.5c0.5,0,0.9-0.2,1.3-0.5V11z"/>
	<path class="st2" d="M11.8,5.8L9.4,12c-0.5,1.2-1.1,1.7-1.9,1.7c-0.2,0-0.4,0-0.6-0.1v-0.8C7,12.9,7.2,13,7.4,13
		c0.4,0,0.8-0.3,1-0.8l0.4-1L6.6,5.8h1.1l1.4,4.1l0.1,0.4h0c0-0.1,0.1-0.2,0.1-0.4l1.5-4.1H11.8z"/>
	<path class="st2" d="M16.4,11c-0.4,0.2-0.9,0.4-1.5,0.4c-0.8,0-1.4-0.3-1.9-0.8c-0.5-0.5-0.7-1.2-0.7-1.9c0-0.9,0.3-1.6,0.8-2.1
		c0.5-0.5,1.2-0.8,2.1-0.8c0.5,0,0.9,0.1,1.3,0.3v0.9c-0.4-0.3-0.8-0.4-1.3-0.4c-0.5,0-1,0.2-1.3,0.6c-0.3,0.4-0.5,0.9-0.5,1.5
		c0,0.6,0.2,1.1,0.5,1.5s0.8,0.5,1.3,0.5c0.5,0,0.9-0.2,1.3-0.5V11z"/>
	<path class="st2" d="M17.6,11.2v-8h1v8H17.6z"/>
	<path class="st2" d="M20.2,3.9c0-0.2,0.1-0.3,0.2-0.4c0.1-0.1,0.3-0.2,0.4-0.2c0.2,0,0.3,0.1,0.4,0.2c0.1,0.1,0.2,0.3,0.2,0.4
		c0,0.2-0.1,0.3-0.2,0.4c-0.1,0.1-0.3,0.2-0.4,0.2c-0.2,0-0.3-0.1-0.4-0.2C20.2,4.2,20.2,4.1,20.2,3.9z M20.3,11.2V5.8h1v5.4H20.3z"
		/>
	<path class="st2" d="M26.7,11c-0.4,0.2-0.9,0.4-1.5,0.4c-0.8,0-1.4-0.3-1.9-0.8c-0.5-0.5-0.7-1.2-0.7-1.9c0-0.9,0.3-1.6,0.8-2.1
		c0.5-0.5,1.2-0.8,2.1-0.8c0.5,0,0.9,0.1,1.3,0.3v0.9c-0.4-0.3-0.8-0.4-1.3-0.4c-0.5,0-1,0.2-1.3,0.6c-0.3,0.4-0.5,0.9-0.5,1.5
		c0,0.6,0.2,1.1,0.5,1.5s0.8,0.5,1.3,0.5c0.5,0,0.9-0.2,1.3-0.5V11z"/>
</g>
<g>
	<path class="st2" d="M448.9,641.3c-1.1-1.2-1.6-2.8-1.6-4.6c0-1.9,0.5-3.5,1.6-4.7h0.5c-1.1,1.3-1.6,2.8-1.6,4.7
		c0,1.7,0.5,3.3,1.6,4.6H448.9z"/>
	<path class="st2" d="M455.2,639.5V632h1.9c1.3,0,2.2,0.3,2.9,0.9c0.7,0.6,1,1.5,1,2.7c0,1.2-0.4,2.1-1,2.8
		c-0.7,0.7-1.7,1.1-2.9,1.1H455.2z M455.7,632.5v6.6h1.2c1.1,0,2-0.3,2.6-0.9s0.9-1.4,0.9-2.5c0-2.1-1.1-3.2-3.4-3.2H455.7z"/>
	<path class="st2" d="M463.5,632.8c-0.1,0-0.2,0-0.3-0.1c-0.1-0.1-0.1-0.2-0.1-0.3c0-0.1,0-0.2,0.1-0.3c0.1-0.1,0.2-0.1,0.3-0.1
		c0.1,0,0.2,0,0.3,0.1c0.1,0.1,0.1,0.2,0.1,0.3c0,0.1,0,0.2-0.1,0.3C463.7,632.7,463.6,632.8,463.5,632.8z M463.3,639.5v-5.4h0.5
		v5.4H463.3z"/>
	<path class="st2" d="M469.6,639.5v-1.1h0c-0.2,0.4-0.4,0.7-0.8,0.9c-0.3,0.2-0.7,0.3-1.1,0.3c-0.5,0-0.9-0.1-1.2-0.4
		c-0.3-0.3-0.4-0.7-0.4-1.1c0-0.9,0.6-1.5,1.9-1.7l1.7-0.2c0-1.2-0.4-1.7-1.3-1.7c-0.6,0-1.2,0.2-1.7,0.7v-0.6
		c0.2-0.2,0.5-0.3,0.8-0.4c0.3-0.1,0.7-0.2,1-0.2c0.6,0,1,0.2,1.3,0.5s0.5,0.8,0.5,1.5v3.5H469.6z M468.1,636.9
		c-0.6,0.1-1,0.2-1.2,0.4c-0.2,0.2-0.3,0.5-0.3,0.9c0,0.3,0.1,0.6,0.3,0.8c0.2,0.2,0.5,0.3,0.9,0.3c0.5,0,0.9-0.2,1.3-0.6
		c0.3-0.4,0.5-0.9,0.5-1.5v-0.5L468.1,636.9z"/>
	<path class="st2" d="M476.9,639.1c0,1-0.2,1.8-0.7,2.2c-0.4,0.5-1.1,0.7-2.1,0.7c-0.5,0-1.1-0.1-1.6-0.4v-0.5
		c0.6,0.3,1.1,0.5,1.6,0.5c1.5,0,2.2-0.8,2.2-2.4v-0.7h0c-0.4,0.7-1.1,1.1-1.9,1.1c-0.7,0-1.2-0.2-1.6-0.7s-0.6-1.2-0.6-2
		c0-0.9,0.2-1.6,0.7-2.1c0.5-0.5,1-0.8,1.8-0.8c0.8,0,1.4,0.3,1.7,1h0v-0.9h0.5V639.1z M476.4,636.2c0-0.5-0.2-0.9-0.5-1.2
		c-0.3-0.3-0.7-0.5-1.3-0.5c-0.6,0-1.1,0.2-1.4,0.7s-0.5,1-0.5,1.8c0,0.7,0.2,1.3,0.5,1.7c0.3,0.4,0.8,0.6,1.3,0.6
		c0.6,0,1-0.2,1.4-0.6c0.3-0.4,0.5-0.8,0.5-1.4V636.2z"/>
	<path class="st2" d="M482.1,634.7c-0.2-0.1-0.4-0.2-0.6-0.2c-0.4,0-0.8,0.2-1.1,0.7s-0.4,1.1-0.4,1.9v2.5h-0.5v-5.4h0.5v1.2h0
		c0.1-0.4,0.3-0.7,0.6-1c0.3-0.2,0.6-0.3,0.9-0.3c0.2,0,0.4,0,0.5,0.1V634.7z"/>
	<path class="st2" d="M487.2,639.5v-1.1h0c-0.2,0.4-0.4,0.7-0.8,0.9c-0.3,0.2-0.7,0.3-1.1,0.3c-0.5,0-0.9-0.1-1.2-0.4
		c-0.3-0.3-0.4-0.7-0.4-1.1c0-0.9,0.6-1.5,1.9-1.7l1.7-0.2c0-1.2-0.4-1.7-1.3-1.7c-0.6,0-1.2,0.2-1.7,0.7v-0.6
		c0.2-0.2,0.5-0.3,0.8-0.4c0.3-0.1,0.7-0.2,1-0.2c0.6,0,1,0.2,1.3,0.5s0.5,0.8,0.5,1.5v3.5H487.2z M485.7,636.9
		c-0.6,0.1-1,0.2-1.2,0.4c-0.2,0.2-0.3,0.5-0.3,0.9c0,0.3,0.1,0.6,0.3,0.8c0.2,0.2,0.5,0.3,0.9,0.3c0.5,0,0.9-0.2,1.3-0.6
		c0.3-0.4,0.5-0.9,0.5-1.5v-0.5L485.7,636.9z"/>
	<path class="st2" d="M497,639.5v-3.2c0-0.7-0.1-1.2-0.3-1.4c-0.2-0.3-0.5-0.4-1-0.4c-0.4,0-0.8,0.2-1.1,0.5s-0.5,0.8-0.5,1.4v3.2
		h-0.5v-3.3c0-1.2-0.5-1.8-1.4-1.8c-0.4,0-0.8,0.2-1.1,0.6c-0.3,0.4-0.4,0.8-0.4,1.4v3.1h-0.5v-5.4h0.5v0.9h0c0.4-0.7,0.9-1,1.6-1
		c0.4,0,0.7,0.1,1,0.3c0.3,0.2,0.5,0.5,0.6,0.9c0.2-0.4,0.4-0.7,0.7-0.9c0.3-0.2,0.7-0.3,1-0.3c1.2,0,1.8,0.7,1.8,2.2v3.3H497z"/>
	<path class="st2" d="M500.3,634.9c-0.1,0-0.2,0-0.3-0.1c-0.1-0.1-0.1-0.2-0.1-0.3s0-0.2,0.1-0.3c0.1-0.1,0.2-0.1,0.3-0.1
		s0.2,0,0.3,0.1c0.1,0.1,0.1,0.2,0.1,0.3s0,0.2-0.1,0.3C500.5,634.9,500.4,634.9,500.3,634.9z M500.3,639.6c-0.1,0-0.2,0-0.3-0.1
		c-0.1-0.1-0.1-0.2-0.1-0.3c0-0.1,0-0.2,0.1-0.3c0.1-0.1,0.2-0.1,0.3-0.1s0.2,0,0.3,0.1c0.1,0.1,0.1,0.2,0.1,0.3
		c0,0.1,0,0.2-0.1,0.3C500.5,639.6,500.4,639.6,500.3,639.6z"/>
	<path class="st2" d="M510.6,639.3c-0.4,0.2-0.9,0.4-1.4,0.4c-0.7,0-1.3-0.3-1.8-0.8c-0.5-0.5-0.7-1.2-0.7-2c0-0.9,0.3-1.6,0.8-2.1
		c0.5-0.5,1.2-0.8,1.9-0.8c0.4,0,0.8,0.1,1.2,0.3v0.5c-0.4-0.2-0.8-0.4-1.3-0.4c-0.6,0-1.1,0.2-1.5,0.7s-0.6,1-0.6,1.8
		c0,0.7,0.2,1.3,0.5,1.7c0.4,0.4,0.8,0.6,1.4,0.6c0.5,0,1-0.1,1.4-0.4V639.3z"/>
	<path class="st2" d="M514.1,640.6c-0.2,0.5-0.4,0.8-0.7,1.1c-0.2,0.2-0.5,0.4-0.9,0.4c-0.2,0-0.3,0-0.4-0.1v-0.5
		c0.1,0,0.3,0.1,0.4,0.1c0.4,0,0.8-0.3,1-0.9l0.5-1.2l-2-5.4h0.5l1.6,4.4c0,0.1,0.1,0.2,0.1,0.2c0,0.1,0,0.1,0,0.2h0l0.1-0.4
		l1.7-4.4h0.5L514.1,640.6z"/>
	<path class="st2" d="M522.1,639.3c-0.4,0.2-0.9,0.4-1.4,0.4c-0.7,0-1.3-0.3-1.8-0.8c-0.5-0.5-0.7-1.2-0.7-2c0-0.9,0.3-1.6,0.8-2.1
		c0.5-0.5,1.2-0.8,1.9-0.8c0.4,0,0.8,0.1,1.2,0.3v0.5c-0.4-0.2-0.8-0.4-1.3-0.4c-0.6,0-1.1,0.2-1.5,0.7s-0.6,1-0.6,1.8
		c0,0.7,0.2,1.3,0.5,1.7c0.4,0.4,0.8,0.6,1.4,0.6c0.5,0,1-0.1,1.4-0.4V639.3z"/>
	<path class="st2" d="M524.3,639.5v-8h0.5v8H524.3z"/>
	<path class="st2" d="M527.6,632.8c-0.1,0-0.2,0-0.3-0.1c-0.1-0.1-0.1-0.2-0.1-0.3c0-0.1,0-0.2,0.1-0.3c0.1-0.1,0.2-0.1,0.3-0.1
		c0.1,0,0.2,0,0.3,0.1c0.1,0.1,0.1,0.2,0.1,0.3c0,0.1,0,0.2-0.1,0.3C527.8,632.7,527.7,632.8,527.6,632.8z M527.4,639.5v-5.4h0.5
		v5.4H527.4z"/>
	<path class="st2" d="M534,639.3c-0.4,0.2-0.9,0.4-1.4,0.4c-0.7,0-1.3-0.3-1.8-0.8c-0.5-0.5-0.7-1.2-0.7-2c0-0.9,0.3-1.6,0.8-2.1
		c0.5-0.5,1.2-0.8,1.9-0.8c0.4,0,0.8,0.1,1.2,0.3v0.5c-0.4-0.2-0.8-0.4-1.3-0.4c-0.6,0-1.1,0.2-1.5,0.7s-0.6,1-0.6,1.8
		c0,0.7,0.2,1.3,0.5,1.7c0.4,0.4,0.8,0.6,1.4,0.6c0.5,0,1-0.1,1.4-0.4V639.3z"/>
	<path class="st2" d="M543.2,639.5v-1.1h0c-0.2,0.4-0.4,0.7-0.8,0.9c-0.3,0.2-0.7,0.3-1.1,0.3c-0.5,0-0.9-0.1-1.2-0.4
		c-0.3-0.3-0.4-0.7-0.4-1.1c0-0.9,0.6-1.5,1.9-1.7l1.7-0.2c0-1.2-0.4-1.7-1.3-1.7c-0.6,0-1.2,0.2-1.7,0.7v-0.6
		c0.2-0.2,0.5-0.3,0.8-0.4c0.3-0.1,0.7-0.2,1-0.2c0.6,0,1,0.2,1.3,0.5s0.5,0.8,0.5,1.5v3.5H543.2z M541.7,636.9
		c-0.6,0.1-1,0.2-1.2,0.4c-0.2,0.2-0.3,0.5-0.3,0.9c0,0.3,0.1,0.6,0.3,0.8c0.2,0.2,0.5,0.3,0.9,0.3c0.5,0,0.9-0.2,1.3-0.6
		c0.3-0.4,0.5-0.9,0.5-1.5v-0.5L541.7,636.9z"/>
	<path class="st2" d="M550.8,639.5h-0.5l-1.2-4.1c0-0.1-0.1-0.3-0.1-0.5h0c0,0.1,0,0.2-0.1,0.4l-1.3,4.1h-0.5l-1.6-5.4h0.5l1.3,4.3
		c0,0.1,0.1,0.3,0.1,0.5h0c0-0.1,0-0.3,0.1-0.5l1.4-4.3h0.3l1.2,4.3c0,0.1,0,0.3,0.1,0.5h0c0-0.1,0-0.3,0.1-0.5l1.3-4.3h0.5
		L550.8,639.5z"/>
	<path class="st2" d="M557.6,639.5v-1.1h0c-0.2,0.4-0.4,0.7-0.8,0.9c-0.3,0.2-0.7,0.3-1.1,0.3c-0.5,0-0.9-0.1-1.2-0.4
		c-0.3-0.3-0.4-0.7-0.4-1.1c0-0.9,0.6-1.5,1.9-1.7l1.7-0.2c0-1.2-0.4-1.7-1.3-1.7c-0.6,0-1.2,0.2-1.7,0.7v-0.6
		c0.2-0.2,0.5-0.3,0.8-0.4c0.3-0.1,0.7-0.2,1-0.2c0.6,0,1,0.2,1.3,0.5s0.5,0.8,0.5,1.5v3.5H557.6z M556.2,636.9
		c-0.6,0.1-1,0.2-1.2,0.4c-0.2,0.2-0.3,0.5-0.3,0.9c0,0.3,0.1,0.6,0.3,0.8c0.2,0.2,0.5,0.3,0.9,0.3c0.5,0,0.9-0.2,1.3-0.6
		c0.3-0.4,0.5-0.9,0.5-1.5v-0.5L556.2,636.9z"/>
	<path class="st2" d="M563.2,634.7c-0.2-0.1-0.4-0.2-0.6-0.2c-0.4,0-0.8,0.2-1.1,0.7s-0.4,1.1-0.4,1.9v2.5h-0.5v-5.4h0.5v1.2h0
		c0.1-0.4,0.3-0.7,0.6-1c0.3-0.2,0.6-0.3,0.9-0.3c0.2,0,0.4,0,0.5,0.1V634.7z"/>
	<path class="st2" d="M568.7,639.5v-1h0c-0.2,0.3-0.4,0.6-0.8,0.8c-0.3,0.2-0.7,0.3-1.2,0.3c-0.7,0-1.2-0.2-1.6-0.7s-0.6-1.2-0.6-2
		c0-0.9,0.2-1.6,0.7-2.1s1.1-0.8,1.8-0.8c0.8,0,1.4,0.3,1.7,1h0v-3.5h0.5v8H568.7z M568.7,636.3c0-0.5-0.2-0.9-0.5-1.3
		c-0.3-0.4-0.7-0.5-1.3-0.5c-0.6,0-1,0.2-1.4,0.7c-0.4,0.4-0.6,1-0.6,1.8c0,0.7,0.2,1.3,0.5,1.7c0.3,0.4,0.8,0.6,1.3,0.6
		c0.6,0,1.1-0.2,1.4-0.6s0.5-0.8,0.5-1.4V636.3z"/>
	<path class="st2" d="M571.5,639.3v-0.6c0.2,0.2,0.4,0.3,0.7,0.4s0.5,0.1,0.7,0.1c0.8,0,1.3-0.3,1.3-1c0-0.2-0.1-0.4-0.3-0.6
		c-0.2-0.2-0.5-0.3-0.9-0.5c-0.5-0.2-0.9-0.5-1.1-0.7c-0.2-0.2-0.3-0.5-0.3-0.9c0-0.4,0.2-0.8,0.5-1.1c0.3-0.3,0.7-0.4,1.2-0.4
		c0.5,0,0.9,0.1,1.2,0.3v0.6c-0.4-0.3-0.8-0.4-1.2-0.4c-0.4,0-0.6,0.1-0.9,0.3c-0.2,0.2-0.3,0.4-0.3,0.7c0,0.3,0.1,0.5,0.2,0.6
		c0.1,0.2,0.4,0.3,0.9,0.6c0.6,0.3,0.9,0.5,1.2,0.7c0.2,0.2,0.3,0.5,0.3,0.9c0,0.4-0.2,0.8-0.5,1.1c-0.3,0.3-0.8,0.4-1.3,0.4
		C572.3,639.7,571.9,639.6,571.5,639.3z"/>
	<path class="st2" d="M581.5,641.3H581c1.1-1.3,1.6-2.9,1.6-4.6c0-1.9-0.5-3.4-1.6-4.7h0.5c1.1,1.2,1.6,2.8,1.6,4.7
		C583.1,638.5,582.6,640,581.5,641.3z"/>
</g>
<g>
	<polygon class="st6" points="587.6,520.7 501.5,520.7 501.3,520.5 417.2,435.7 333.2,435.7 333.1,435.6 166.8,266 83.5,266 
		165,308.5 165.1,308.6 333,476.2 421.1,520.3 335.3,520.3 335.2,520.2 164.5,350.4 83.5,350.4 165.8,392.7 165.9,392.8 
		252.1,519.9 209.2,519.9 163.7,434.4 81.9,434.4 166.5,519.5 81.3,519.5 81.3,518.5 164.1,518.5 79.5,433.4 164.3,433.4 
		209.8,518.9 250.2,518.9 165.1,393.5 79.4,349.4 164.9,349.4 165.1,349.6 335.8,519.3 416.9,519.3 332.4,477 332.4,476.9 
		164.4,309.3 79.4,265 167.2,265 167.4,265.1 333.7,434.7 417.7,434.7 417.8,434.9 501.9,519.7 583.4,519.7 500.4,477.7 
		500.4,477.7 415.8,393.3 331.8,393.3 331.6,393.2 163.7,225.1 76.3,181.4 165.7,181.4 165.8,181.5 334.3,351.2 417.7,351.2 
		501.7,434.7 583.7,434.7 583.9,434.9 669.7,517.6 919.2,517.6 837.3,478.6 668.5,478.6 668.4,478.4 585.2,393.7 498.3,393.7 
		498.2,393.5 417.2,310.2 328,310.2 327.9,310 164.4,141.7 77.9,97.9 165.7,97.9 165.8,98 333.7,266.3 417.7,266.3 417.8,266.5 
		502.6,351 585.7,351 585.8,351.1 669.7,434.7 710,434.7 710,435.7 669.3,435.7 669.1,435.6 585.3,352 502.2,352 502,351.8 
		417.3,267.3 333.3,267.3 333.1,267.2 165.2,98.9 82.1,98.9 165,140.8 165.1,140.9 328.4,309.2 417.7,309.2 417.8,309.3 
		498.7,392.7 585.7,392.7 585.8,392.8 668.9,477.6 837.6,477.6 837.7,477.6 923.7,518.6 669.3,518.6 669.1,518.4 583.3,435.7 
		501.3,435.7 417.3,352.2 333.9,352.2 333.8,352.1 165.2,182.4 80.5,182.4 164.3,224.3 164.3,224.4 332.2,392.3 416.2,392.3 
		416.3,392.5 501,476.9 	"/>
</g>
<g>
	<ellipse class="st3" cx="80.7" cy="518.6" rx="6.5" ry="6.5"/>
</g>
<g>
	<path class="st1" d="M78.9,521.4c0-0.4,0.2-0.7,0.5-0.9s0.7-0.7,1.2-1.3s0.8-1.1,0.9-1.4c0.1-0.3,0.2-0.6,0.2-0.8
		c0-0.2-0.1-0.4-0.3-0.6c-0.2-0.2-0.4-0.2-0.6-0.2c-0.2,0-0.5,0.1-0.7,0.3c-0.2,0.2-0.4,0.4-0.5,0.7l-0.7-0.1
		c0.2-0.5,0.4-0.9,0.7-1.2c0.3-0.2,0.6-0.4,1-0.4c0.2,0,0.4,0,0.6,0c0.2,0,0.4,0.1,0.6,0.2s0.4,0.3,0.5,0.6c0.1,0.3,0.2,0.6,0.1,0.9
		c0,0.4-0.2,0.8-0.5,1.3c-0.3,0.5-1,1.3-1.9,2.4h2.5v0.6h-3.5V521.4z"/>
</g>
<g>
	<ellipse class="st4" cx="164.7" cy="518.6" rx="6.5" ry="6.5"/>
</g>
<g>
	<path class="st1" d="M162.8,520l0.6-0.1c0.1,0.3,0.2,0.6,0.5,0.8c0.2,0.2,0.5,0.3,0.8,0.3s0.6-0.1,0.8-0.4c0.2-0.2,0.3-0.5,0.2-0.8
		c0-0.3-0.1-0.6-0.4-0.7c-0.2-0.2-0.6-0.3-1.1-0.4v-0.5c0.5,0,0.8-0.2,1.1-0.4c0.2-0.2,0.3-0.5,0.3-0.8c0-0.3-0.2-0.6-0.5-0.7
		c-0.3-0.2-0.6-0.2-0.9-0.1s-0.6,0.4-0.8,1l-0.6-0.1c0.1-0.4,0.3-0.8,0.6-1.1c0.2-0.3,0.6-0.4,1-0.5c0.4,0,0.8,0,1.1,0.2
		s0.5,0.4,0.7,0.7c0.1,0.3,0.1,0.7,0.1,1c-0.1,0.4-0.4,0.7-0.8,1c0.3,0.1,0.6,0.4,0.8,0.6c0.2,0.3,0.2,0.6,0.2,1.1
		c-0.1,0.5-0.3,0.8-0.6,1.1c-0.4,0.3-0.7,0.4-1.2,0.4c-0.4,0-0.8-0.2-1.2-0.4C163.1,520.9,162.9,520.5,162.8,520z"/>
</g>
<g>
	<ellipse class="st4" cx="80.7" cy="433.9" rx="6.5" ry="6.5"/>
</g>
<g>
	<path class="st1" d="M78.8,435.3l0.6-0.1c0.1,0.3,0.2,0.6,0.5,0.8c0.2,0.2,0.5,0.3,0.8,0.3s0.6-0.1,0.8-0.4
		c0.2-0.2,0.3-0.5,0.2-0.8c0-0.3-0.1-0.6-0.4-0.7c-0.2-0.2-0.6-0.3-1.1-0.4v-0.5c0.5,0,0.8-0.2,1.1-0.4c0.2-0.2,0.3-0.5,0.3-0.8
		c0-0.3-0.2-0.6-0.5-0.7c-0.3-0.2-0.6-0.2-0.9-0.1s-0.6,0.4-0.8,1l-0.6-0.1c0.1-0.4,0.3-0.8,0.6-1.1c0.2-0.3,0.6-0.4,1-0.5
		c0.4,0,0.8,0,1.1,0.2s0.5,0.4,0.7,0.7c0.1,0.3,0.1,0.7,0.1,1c-0.1,0.4-0.4,0.7-0.8,1c0.3,0.1,0.6,0.4,0.8,0.6
		c0.2,0.3,0.2,0.6,0.2,1.1c-0.1,0.5-0.3,0.8-0.6,1.1c-0.4,0.3-0.7,0.4-1.2,0.4c-0.4,0-0.8-0.2-1.2-0.4
		C79.1,436.2,78.9,435.8,78.8,435.3z"/>
</g>
<g>
	<ellipse class="st5" cx="164.7" cy="433.9" rx="6.5" ry="6.5"/>
</g>
<g>
	<path class="st1" d="M165.3,435.5h-2.7v-0.6l2.8-4.1h0.5v4.1h0.8v0.6h-0.8v1.3h-0.7V435.5z M165.3,434.9v-2.8l-2,2.8H165.3z"/>
</g>
<g>
	<ellipse class="st5" cx="248.7" cy="518.1" rx="6.5" ry="6.5"/>
</g>
<g>
	<path class="st1" d="M249.3,519.7h-2.7v-0.6l2.8-4.1h0.5v4.1h0.8v0.6h-0.8v1.3h-0.7V519.7z M249.3,519.1v-2.8l-2,2.8H249.3z"/>
</g>
<g>
	<ellipse class="st3" cx="332.7" cy="518.1" rx="6.5" ry="6.5"/>
</g>
<g>
	<path class="st1" d="M331.2,519.4c0.2,0.6,0.4,1,0.8,1.1s0.7,0,1-0.1c0.2-0.2,0.4-0.4,0.5-0.6c0.1-0.2,0.2-0.5,0.1-0.8
		c0-0.3-0.1-0.6-0.2-0.8c-0.2-0.2-0.3-0.4-0.6-0.4c-0.2-0.1-0.5-0.1-0.8,0s-0.5,0.2-0.7,0.5l-0.6-0.1c0-0.1,0.3-1.1,0.7-3h2.8v0.6
		H332c-0.1,0.6-0.2,1.1-0.3,1.5c0.3-0.2,0.7-0.2,1-0.2c0.3,0,0.6,0.1,0.9,0.2c0.3,0.1,0.5,0.3,0.6,0.5c0.1,0.2,0.2,0.4,0.3,0.7
		c0.1,0.2,0.1,0.5,0.1,0.7c0,0.3-0.1,0.5-0.2,0.8c-0.1,0.3-0.2,0.5-0.4,0.7c-0.2,0.2-0.4,0.3-0.7,0.4c-0.3,0.1-0.6,0.1-0.9,0.1
		c-0.4,0-0.7-0.2-1-0.4c-0.3-0.2-0.5-0.6-0.6-1.2L331.2,519.4z"/>
</g>
<g>
	<ellipse class="st4" cx="416.7" cy="518.1" rx="6.5" ry="6.5"/>
</g>
<g>
	<path class="st1" d="M414.8,519c0-0.3,0.1-0.6,0.2-0.9c0.1-0.2,0.3-0.5,0.5-0.9l1.4-2.2h0.8l-1.5,2.3c0.6-0.2,1.1-0.1,1.5,0.1
		c0.4,0.2,0.6,0.5,0.8,0.7c0.1,0.3,0.2,0.6,0.2,0.9s0,0.6-0.1,0.9c-0.1,0.3-0.3,0.6-0.6,0.8c-0.3,0.2-0.6,0.4-1.1,0.4
		c-0.5,0-0.9-0.1-1.2-0.3c-0.3-0.2-0.6-0.5-0.7-0.8C414.8,519.7,414.8,519.3,414.8,519z M415.9,520.1c0.2,0.2,0.5,0.3,0.8,0.4
		c0.4,0,0.6-0.1,0.9-0.4c0.2-0.3,0.3-0.6,0.3-1.1s-0.1-0.8-0.4-1c-0.3-0.2-0.6-0.3-1-0.2c-0.4,0-0.6,0.2-0.8,0.5
		c-0.2,0.3-0.2,0.6-0.2,1C415.6,519.6,415.7,519.9,415.9,520.1z"/>
</g>
<g>
	<ellipse class="st4" cx="80.7" cy="265.5" rx="6.5" ry="6.5"/>
</g>
<g>
	<path class="st1" d="M78.8,266.4c0-0.3,0.1-0.6,0.2-0.9c0.1-0.2,0.3-0.5,0.5-0.9l1.4-2.2h0.8l-1.5,2.3c0.6-0.2,1.1-0.1,1.5,0.1
		c0.4,0.2,0.6,0.5,0.8,0.7c0.1,0.3,0.2,0.6,0.2,0.9c0,0.3,0,0.6-0.1,0.9c-0.1,0.3-0.3,0.6-0.6,0.8c-0.3,0.2-0.6,0.4-1.1,0.4
		c-0.5,0-0.9-0.1-1.2-0.3c-0.3-0.2-0.6-0.5-0.7-0.8C78.8,267.1,78.8,266.7,78.8,266.4z M79.9,267.5c0.2,0.2,0.5,0.3,0.8,0.4
		c0.3,0,0.6-0.1,0.9-0.4c0.2-0.3,0.4-0.6,0.4-1.1s-0.1-0.8-0.4-1c-0.3-0.2-0.6-0.3-1-0.2s-0.6,0.2-0.8,0.5c-0.2,0.3-0.2,0.6-0.2,1
		C79.6,267,79.7,267.3,79.9,267.5z"/>
</g>
<g>
	<g>
		<ellipse class="st3" cx="80.7" cy="182" rx="6.7" ry="6.7"/>
	</g>
	<g>
		<path class="st1" d="M78.6,183.3c0-0.3,0.1-0.6,0.2-0.9c0.1-0.3,0.4-0.5,0.7-0.7c-0.3-0.2-0.5-0.4-0.6-0.6
			c-0.1-0.2-0.2-0.4-0.2-0.7c0-0.3,0-0.5,0.1-0.7c0.1-0.2,0.2-0.4,0.4-0.5c0.2-0.2,0.4-0.3,0.6-0.3c0.2-0.1,0.4-0.1,0.7-0.1
			c0.2,0,0.5,0,0.7,0.1c0.2,0,0.4,0.2,0.6,0.3s0.4,0.4,0.5,0.7c0.1,0.3,0.1,0.6,0,1c-0.1,0.4-0.4,0.7-0.9,0.9
			c0.4,0.1,0.7,0.3,0.9,0.6c0.2,0.3,0.3,0.6,0.3,0.9c0,0.4-0.1,0.7-0.2,0.9c-0.1,0.2-0.2,0.4-0.4,0.5c-0.1,0.1-0.3,0.3-0.5,0.3
			c-0.2,0.1-0.5,0.1-0.9,0.1c-0.4,0-0.7,0-0.9-0.1c-0.3-0.1-0.5-0.2-0.6-0.4c-0.2-0.2-0.3-0.4-0.3-0.6
			C78.7,183.8,78.6,183.6,78.6,183.3z M79.4,183.2c0,0.3,0,0.5,0.1,0.8c0.1,0.2,0.3,0.4,0.6,0.4s0.6,0.1,0.9,0
			c0.3-0.1,0.5-0.2,0.7-0.5c0.1-0.3,0.2-0.5,0.1-0.8c0-0.3-0.2-0.5-0.5-0.7c-0.3-0.2-0.6-0.3-0.9-0.2c-0.3,0-0.6,0.1-0.8,0.3
			S79.4,182.9,79.4,183.2z M79.5,180.4c0,0.2,0.1,0.5,0.3,0.7c0.2,0.2,0.4,0.3,0.8,0.3c0.4,0,0.6-0.1,0.8-0.3
			c0.2-0.2,0.3-0.5,0.3-0.8c0-0.3-0.1-0.5-0.3-0.7c-0.2-0.1-0.5-0.2-0.8-0.2c-0.4,0-0.6,0.1-0.7,0.3
			C79.6,179.9,79.5,180.2,79.5,180.4z"/>
	</g>
</g>
<g>
	<g>
		<ellipse class="st4" cx="80.7" cy="97.5" rx="7" ry="7"/>
	</g>
	<g>
		<path class="st1" d="M78,95.5c-0.3,0.3-0.7,0.6-1.2,0.9v-0.7c0.6-0.4,1.1-0.9,1.5-1.5h0.5v6.5H78V95.5z"/>
		<path class="st1" d="M81.2,100.5c0-0.4,0.2-0.7,0.5-1c0.3-0.3,0.7-0.8,1.2-1.4c0.5-0.6,0.8-1.1,1-1.5c0.1-0.4,0.2-0.7,0.2-0.9
			c0-0.3-0.2-0.5-0.4-0.6c-0.2-0.2-0.4-0.2-0.7-0.2c-0.3,0-0.5,0.1-0.8,0.3c-0.2,0.2-0.4,0.4-0.5,0.8L81,95.9c0.2-0.6,0.5-1,0.8-1.3
			c0.3-0.3,0.7-0.4,1.1-0.4c0.3,0,0.5,0,0.7,0c0.2,0,0.4,0.1,0.6,0.3c0.2,0.1,0.4,0.3,0.5,0.6c0.1,0.3,0.2,0.6,0.1,1
			c0,0.4-0.2,0.9-0.6,1.4c-0.4,0.5-1,1.4-2,2.5h2.7v0.7h-3.8V100.5z"/>
	</g>
</g>
<g>
	<ellipse class="st4" cx="164.7" cy="97.5" rx="7" ry="7"/>
</g>
<g>
	<path class="st1" d="M162,95.5c-0.3,0.3-0.7,0.6-1.2,0.9v-0.7c0.6-0.4,1.1-0.9,1.5-1.5h0.5v6.5H162V95.5z"/>
	<path class="st1" d="M165.2,100.5c0-0.4,0.2-0.7,0.5-1c0.3-0.3,0.7-0.8,1.2-1.4c0.5-0.6,0.8-1.1,1-1.5c0.1-0.4,0.2-0.7,0.2-0.9
		c0-0.3-0.2-0.5-0.4-0.6c-0.2-0.2-0.4-0.2-0.7-0.2c-0.3,0-0.5,0.1-0.8,0.3c-0.2,0.2-0.4,0.4-0.5,0.8l-0.7-0.1c0.2-0.6,0.5-1,0.8-1.3
		c0.3-0.3,0.7-0.4,1.1-0.4c0.3,0,0.5,0,0.7,0c0.2,0,0.4,0.1,0.6,0.3c0.2,0.1,0.4,0.3,0.5,0.6c0.1,0.3,0.2,0.6,0.1,1
		c0,0.4-0.2,0.9-0.6,1.4c-0.4,0.5-1,1.4-2,2.5h2.7v0.7h-3.8V100.5z"/>
</g>
<g>
	<g>
		<ellipse class="st4" cx="248.7" cy="181.5" rx="6.7" ry="6.7"/>
	</g>
	<g>
		<path class="st1" d="M246.1,179.5c-0.3,0.3-0.7,0.6-1.2,0.9v-0.7c0.6-0.4,1.1-0.9,1.5-1.5h0.4v6.2h-0.7V179.5z"/>
		<path class="st1" d="M249.1,183l0.7-0.1c0.1,0.3,0.3,0.6,0.5,0.8c0.2,0.2,0.5,0.3,0.8,0.3c0.3,0,0.6-0.1,0.8-0.4
			c0.2-0.3,0.3-0.5,0.3-0.9c0-0.3-0.2-0.6-0.4-0.8c-0.2-0.2-0.6-0.3-1.1-0.4v-0.5c0.5,0,0.9-0.2,1.1-0.4c0.2-0.2,0.3-0.5,0.3-0.9
			c0-0.4-0.2-0.6-0.5-0.8c-0.3-0.2-0.6-0.2-0.9-0.1c-0.3,0.1-0.6,0.5-0.8,1l-0.7-0.1c0.1-0.4,0.3-0.8,0.6-1.1c0.3-0.3,0.6-0.5,1-0.5
			c0.4,0,0.8,0,1.1,0.2s0.6,0.4,0.7,0.7c0.1,0.3,0.2,0.7,0.1,1.1c-0.1,0.4-0.4,0.7-0.8,1c0.3,0.1,0.6,0.4,0.8,0.7
			c0.2,0.3,0.2,0.7,0.2,1.1c-0.1,0.5-0.3,0.9-0.6,1.1c-0.4,0.3-0.8,0.4-1.2,0.4c-0.5,0-0.9-0.2-1.2-0.4
			C249.4,183.9,249.2,183.5,249.1,183z"/>
	</g>
</g>
<g>
	<ellipse class="st4" cx="332.7" cy="265.9" rx="6.5" ry="6.5"/>
</g>
<g>
	<path class="st1" d="M330.2,264.1c-0.3,0.3-0.7,0.6-1.2,0.9v-0.7c0.6-0.4,1.1-0.9,1.4-1.4h0.4v6h-0.7V264.1z"/>
	<path class="st1" d="M333.1,267.4l0.6-0.1c0.1,0.3,0.2,0.6,0.5,0.8c0.2,0.2,0.5,0.3,0.8,0.3c0.3,0,0.6-0.1,0.8-0.4
		c0.2-0.2,0.3-0.5,0.2-0.8c0-0.3-0.1-0.6-0.4-0.7c-0.2-0.2-0.6-0.3-1.1-0.4v-0.5c0.5,0,0.8-0.2,1.1-0.4c0.2-0.2,0.3-0.5,0.3-0.8
		s-0.2-0.6-0.5-0.7c-0.3-0.2-0.6-0.2-0.9-0.1c-0.3,0.1-0.6,0.4-0.8,1l-0.6-0.1c0.1-0.4,0.3-0.8,0.6-1.1s0.6-0.4,1-0.5
		c0.4,0,0.8,0,1.1,0.2c0.3,0.2,0.5,0.4,0.7,0.7c0.1,0.3,0.1,0.7,0.1,1c-0.1,0.4-0.4,0.7-0.8,1c0.3,0.1,0.6,0.4,0.8,0.6
		c0.2,0.3,0.2,0.6,0.2,1.1s-0.3,0.8-0.6,1.1c-0.3,0.3-0.7,0.4-1.2,0.4c-0.4,0-0.8-0.2-1.2-0.4C333.4,268.3,333.2,267.9,333.1,267.4z
		"/>
</g>
<g>
	<ellipse class="st5" cx="416.7" cy="265.9" rx="6.5" ry="6.5"/>
</g>
<g>
	<path class="st1" d="M414.2,264.1c-0.3,0.3-0.7,0.6-1.2,0.9v-0.7c0.6-0.4,1.1-0.9,1.4-1.4h0.4v6h-0.7V264.1z"/>
	<path class="st1" d="M417.1,267.4l0.6-0.1c0.1,0.3,0.2,0.6,0.5,0.8c0.2,0.2,0.5,0.3,0.8,0.3c0.3,0,0.6-0.1,0.8-0.4
		c0.2-0.2,0.3-0.5,0.2-0.8c0-0.3-0.1-0.6-0.4-0.7c-0.2-0.2-0.6-0.3-1.1-0.4v-0.5c0.5,0,0.8-0.2,1.1-0.4c0.2-0.2,0.3-0.5,0.3-0.8
		s-0.2-0.6-0.5-0.7c-0.3-0.2-0.6-0.2-0.9-0.1c-0.3,0.1-0.6,0.4-0.8,1l-0.6-0.1c0.1-0.4,0.3-0.8,0.6-1.1s0.6-0.4,1-0.5
		c0.4,0,0.8,0,1.1,0.2c0.3,0.2,0.5,0.4,0.7,0.7c0.1,0.3,0.1,0.7,0.1,1c-0.1,0.4-0.4,0.7-0.8,1c0.3,0.1,0.6,0.4,0.8,0.6
		c0.2,0.3,0.2,0.6,0.2,1.1s-0.3,0.8-0.6,1.1c-0.3,0.3-0.7,0.4-1.2,0.4c-0.4,0-0.8-0.2-1.2-0.4C417.4,268.3,417.2,267.9,417.1,267.4z
		"/>
</g>
<g>
	<ellipse class="st3" cx="500.8" cy="350.1" rx="6.7" ry="6.7"/>
</g>
<g>
	<path class="st1" d="M498.2,348.2c-0.3,0.3-0.7,0.6-1.2,0.9v-0.7c0.6-0.4,1.1-0.9,1.5-1.5h0.4v6.2h-0.7V348.2z"/>
	<path class="st1" d="M503.7,351.8h-2.8v-0.6l2.9-4.2h0.5v4.2h0.9v0.6h-0.9v1.4h-0.7V351.8z M503.7,351.2v-2.9l-2,2.9H503.7z"/>
</g>
<g>
	<ellipse class="st3" cx="584.7" cy="350.1" rx="6.7" ry="6.7"/>
</g>
<g>
	<path class="st1" d="M582.1,348.2c-0.3,0.3-0.7,0.6-1.2,0.9v-0.7c0.6-0.4,1.1-0.9,1.5-1.5h0.4v6.2h-0.7V348.2z"/>
	<path class="st1" d="M587.6,351.8h-2.8v-0.6l2.9-4.2h0.5v4.2h0.9v0.6h-0.9v1.4h-0.7V351.8z M587.6,351.2v-2.9l-2,2.9H587.6z"/>
</g>
<g>
	<ellipse class="st3" cx="668.7" cy="433.9" rx="6.5" ry="6.5"/>
</g>
<g>
	<path class="st1" d="M666.2,432c-0.3,0.3-0.7,0.6-1.2,0.9v-0.7c0.6-0.4,1.1-0.9,1.4-1.4h0.4v6h-0.7V432z"/>
	<path class="st1" d="M671.5,435.5h-2.7v-0.6l2.8-4.1h0.5v4.1h0.8v0.6h-0.8v1.3h-0.7V435.5z M671.5,434.9v-2.8l-2,2.8H671.5z"/>
</g>
<g>
	<ellipse class="st4" cx="164.7" cy="182" rx="6.7" ry="6.7"/>
</g>
<g>
	<path class="st1" d="M163.5,185.1c0.5-0.9,1-1.7,1.3-2.4c-0.6,0.1-1.1,0-1.5-0.2c-0.4-0.3-0.6-0.6-0.7-1c-0.1-0.4-0.1-0.8,0-1.2
		c0.1-0.3,0.2-0.6,0.5-0.9c0.2-0.2,0.5-0.4,0.7-0.5s0.5-0.1,0.8-0.1c0.2,0,0.5,0,0.7,0.1c0.2,0.1,0.5,0.2,0.7,0.4
		c0.2,0.2,0.3,0.4,0.4,0.6c0.1,0.2,0.1,0.5,0.1,0.8c0,0.3-0.1,0.7-0.4,1.3c-0.2,0.5-0.8,1.6-1.8,3.2H163.5z M163.4,181.1
		c0,0.3,0.2,0.6,0.4,0.8c0.2,0.2,0.5,0.3,0.7,0.3c0.3,0,0.5-0.1,0.6-0.2c0.2-0.1,0.3-0.3,0.5-0.6c0.1-0.4,0.1-0.7,0.1-0.9
		c0-0.3-0.2-0.5-0.4-0.6c-0.2-0.2-0.4-0.3-0.7-0.3c-0.1,0-0.3,0-0.6,0.1c-0.2,0.1-0.4,0.3-0.5,0.6
		C163.4,180.5,163.3,180.8,163.4,181.1z"/>
</g>
<g>
	<ellipse class="st4" cx="164.7" cy="265.5" rx="6.5" ry="6.5"/>
</g>
<g>
	<path class="st1" d="M162.8,266.4c0-0.3,0.1-0.6,0.2-0.9c0.1-0.2,0.3-0.5,0.5-0.9l1.4-2.2h0.8l-1.5,2.3c0.6-0.2,1.1-0.1,1.5,0.1
		c0.4,0.2,0.6,0.5,0.8,0.7c0.1,0.3,0.2,0.6,0.2,0.9c0,0.3,0,0.6-0.1,0.9c-0.1,0.3-0.3,0.6-0.6,0.8c-0.3,0.2-0.6,0.4-1.1,0.4
		c-0.5,0-0.9-0.1-1.2-0.3c-0.3-0.2-0.6-0.5-0.7-0.8C162.8,267.1,162.8,266.7,162.8,266.4z M163.9,267.5c0.2,0.2,0.5,0.3,0.8,0.4
		c0.3,0,0.6-0.1,0.9-0.4c0.2-0.3,0.4-0.6,0.4-1.1s-0.1-0.8-0.4-1c-0.3-0.2-0.6-0.3-1-0.2s-0.6,0.2-0.8,0.5c-0.2,0.3-0.2,0.6-0.2,1
		C163.6,267,163.7,267.3,163.9,267.5z"/>
</g>
<g>
	<ellipse class="st5" cx="248.7" cy="350.1" rx="6.7" ry="6.7"/>
</g>
<g>
	<path class="st1" d="M249.9,347.7h-3.1v-0.7h3.9v0.6c-1.1,1.8-1.9,3.7-2.2,5.5h-0.8C248.1,351.4,248.8,349.5,249.9,347.7z"/>
</g>
<g>
	<ellipse class="st4" cx="248.7" cy="266.4" rx="6.5" ry="6.5"/>
</g>
<g>
	<path class="st1" d="M247.6,269.5c0.5-0.9,0.9-1.6,1.3-2.3c-0.6,0.1-1.1,0-1.5-0.2c-0.4-0.2-0.6-0.6-0.7-1c-0.1-0.4-0.1-0.8,0-1.1
		c0.1-0.3,0.2-0.6,0.4-0.8c0.2-0.2,0.4-0.4,0.7-0.5c0.3-0.1,0.5-0.1,0.8-0.1c0.2,0,0.4,0,0.7,0.1c0.2,0.1,0.4,0.2,0.6,0.4
		c0.2,0.2,0.3,0.4,0.4,0.6c0.1,0.2,0.1,0.5,0.1,0.8s-0.1,0.7-0.4,1.2c-0.2,0.5-0.8,1.5-1.7,3.1H247.6z M247.4,265.5
		c0,0.3,0.2,0.6,0.4,0.8c0.2,0.2,0.5,0.3,0.7,0.3c0.3,0,0.5-0.1,0.6-0.2c0.2-0.1,0.3-0.3,0.4-0.6c0.1-0.4,0.1-0.6,0.1-0.9
		c0-0.2-0.2-0.5-0.4-0.6c-0.2-0.2-0.4-0.2-0.6-0.2c-0.1,0-0.3,0-0.5,0.1c-0.2,0.1-0.4,0.3-0.5,0.6
		C247.4,264.9,247.4,265.2,247.4,265.5z"/>
</g>
<g>
	<ellipse class="st4" cx="332.7" cy="350.4" rx="6.7" ry="6.7"/>
</g>
<g>
	<path class="st1" d="M331.5,353.5c0.5-0.9,1-1.7,1.3-2.4c-0.6,0.1-1.1,0-1.5-0.2c-0.4-0.3-0.6-0.6-0.7-1c-0.1-0.4-0.1-0.8,0-1.2
		c0.1-0.3,0.2-0.6,0.5-0.9c0.2-0.2,0.5-0.4,0.7-0.5c0.3-0.1,0.5-0.1,0.8-0.1s0.5,0,0.7,0.1s0.5,0.2,0.7,0.4s0.3,0.4,0.4,0.6
		c0.1,0.2,0.1,0.5,0.1,0.8c0,0.3-0.1,0.7-0.4,1.3c-0.2,0.5-0.8,1.6-1.8,3.2H331.5z M331.3,349.5c0,0.3,0.2,0.6,0.4,0.8
		c0.2,0.2,0.5,0.3,0.7,0.3c0.3,0,0.5-0.1,0.6-0.2c0.2-0.1,0.3-0.3,0.5-0.6c0.1-0.4,0.1-0.7,0.1-0.9c0-0.3-0.2-0.5-0.4-0.6
		c-0.2-0.2-0.4-0.3-0.7-0.3c-0.1,0-0.3,0-0.6,0.1c-0.2,0.1-0.4,0.3-0.5,0.6C331.4,348.9,331.3,349.2,331.3,349.5z"/>
</g>
<g>
	<ellipse class="st5" cx="500.8" cy="436.6" rx="6.5" ry="6.5"/>
</g>
<g>
	<path class="st1" d="M498.2,434.7c-0.3,0.3-0.7,0.6-1.2,0.9v-0.7c0.6-0.4,1.1-0.9,1.4-1.4h0.4v6h-0.7V434.7z"/>
	<path class="st1" d="M501.1,436.2c0-0.6,0.1-1.1,0.3-1.5c0.2-0.4,0.4-0.7,0.6-0.9c0.3-0.2,0.6-0.4,1-0.4s0.8,0.2,1.1,0.5
		c0.3,0.3,0.5,0.8,0.6,1.3c0.1,0.5,0.1,1.1,0.1,1.8c0,0.7-0.2,1.2-0.3,1.6c-0.2,0.4-0.5,0.7-0.9,0.9c-0.4,0.2-0.8,0.1-1.2-0.1
		c-0.4-0.2-0.7-0.5-0.8-0.8c-0.2-0.3-0.3-0.7-0.4-1C501.1,437.3,501.1,436.8,501.1,436.2z M501.8,436c-0.1,0.6,0,1.2,0.1,1.7
		c0.1,0.5,0.3,0.9,0.6,1.1c0.3,0.2,0.5,0.3,0.8,0.1c0.3-0.1,0.5-0.4,0.6-0.8s0.2-0.8,0.2-1.3s0-0.9-0.1-1.2c0-0.4-0.1-0.7-0.3-1
		s-0.4-0.5-0.7-0.5s-0.5,0.1-0.8,0.4S501.9,435.3,501.8,436z"/>
</g>
<g>
	<ellipse class="st5" cx="416.7" cy="350.4" rx="6.7" ry="6.7"/>
</g>
<g>
	<path class="st1" d="M414.1,348.4c-0.3,0.3-0.7,0.6-1.2,0.9v-0.7c0.6-0.4,1.1-0.9,1.5-1.5h0.4v6.2h-0.7V348.4z"/>
	<path class="st1" d="M417,350c0-0.6,0.1-1.1,0.3-1.5c0.2-0.4,0.4-0.7,0.7-0.9c0.3-0.2,0.6-0.4,1.1-0.4c0.4,0,0.8,0.2,1.1,0.5
		c0.3,0.4,0.5,0.8,0.6,1.3c0.1,0.5,0.1,1.1,0.1,1.8s-0.2,1.3-0.4,1.7s-0.5,0.7-0.9,0.9c-0.4,0.2-0.8,0.2-1.2-0.1
		c-0.4-0.2-0.7-0.5-0.9-0.8c-0.2-0.3-0.3-0.7-0.4-1.1S417,350.6,417,350z M417.8,349.8c-0.1,0.7,0,1.3,0.1,1.8
		c0.1,0.5,0.3,0.9,0.6,1.1c0.3,0.2,0.6,0.3,0.9,0.1c0.3-0.1,0.5-0.4,0.6-0.8s0.2-0.8,0.2-1.3s0-0.9-0.1-1.3c0-0.4-0.1-0.7-0.3-1.1
		c-0.2-0.3-0.4-0.5-0.7-0.5c-0.3,0-0.6,0.1-0.8,0.5C418,348.6,417.9,349.1,417.8,349.8z"/>
</g>
<g>
	<ellipse class="st5" cx="584.7" cy="434.8" rx="6.5" ry="6.5"/>
</g>
<g>
	<path class="st1" d="M582.2,432.9c-0.3,0.3-0.7,0.6-1.2,0.9v-0.7c0.6-0.4,1.1-0.9,1.4-1.4h0.4v6h-0.7V432.9z"/>
	<path class="st1" d="M585,434.4c0-0.6,0.1-1.1,0.3-1.5c0.2-0.4,0.4-0.7,0.6-0.9c0.3-0.2,0.6-0.4,1-0.4s0.8,0.2,1.1,0.5
		c0.3,0.3,0.5,0.8,0.6,1.3c0.1,0.5,0.1,1.1,0.1,1.8c0,0.7-0.2,1.2-0.3,1.6c-0.2,0.4-0.5,0.7-0.9,0.9c-0.4,0.2-0.8,0.1-1.2-0.1
		c-0.4-0.2-0.7-0.5-0.8-0.8c-0.2-0.3-0.3-0.7-0.4-1C585,435.5,585,435,585,434.4z M585.8,434.2c-0.1,0.6,0,1.2,0.1,1.7
		c0.1,0.5,0.3,0.9,0.6,1.1c0.3,0.2,0.5,0.3,0.8,0.1c0.3-0.1,0.5-0.4,0.6-0.8s0.2-0.8,0.2-1.3s0-0.9-0.1-1.2c0-0.4-0.1-0.7-0.3-1
		s-0.4-0.5-0.7-0.5s-0.5,0.1-0.8,0.4S585.8,433.6,585.8,434.2z"/>
</g>
<g>
	<ellipse class="st3" cx="668.7" cy="518.1" rx="6.5" ry="6.5"/>
</g>
<g>
	<path class="st1" d="M666.2,516.2c-0.3,0.3-0.7,0.6-1.2,0.9v-0.7c0.6-0.4,1.1-0.9,1.4-1.4h0.4v6h-0.7V516.2z"/>
	<path class="st1" d="M670.7,516.2c-0.3,0.3-0.7,0.6-1.2,0.9v-0.7c0.6-0.4,1.1-0.9,1.4-1.4h0.4v6h-0.7V516.2z"/>
</g>
<g>
	<ellipse class="st3" cx="752.7" cy="518.1" rx="6.5" ry="6.5"/>
</g>
<g>
	<path class="st1" d="M750.2,516.2c-0.3,0.3-0.7,0.6-1.2,0.9v-0.7c0.6-0.4,1.1-0.9,1.4-1.4h0.4v6h-0.7V516.2z"/>
	<path class="st1" d="M754.7,516.2c-0.3,0.3-0.7,0.6-1.2,0.9v-0.7c0.6-0.4,1.1-0.9,1.4-1.4h0.4v6h-0.7V516.2z"/>
</g>
<g>
	<ellipse class="st3" cx="836.5" cy="518.1" rx="6.5" ry="6.5"/>
</g>
<g>
	<path class="st1" d="M834,516.2c-0.3,0.3-0.7,0.6-1.2,0.9v-0.7c0.6-0.4,1.1-0.9,1.4-1.4h0.4v6H834V516.2z"/>
	<path class="st1" d="M838.5,516.2c-0.3,0.3-0.7,0.6-1.2,0.9v-0.7c0.6-0.4,1.1-0.9,1.4-1.4h0.4v6h-0.7V516.2z"/>
</g>
<g>
	<ellipse class="st4" cx="920.7" cy="518.1" rx="6.5" ry="6.5"/>
</g>
<g>
	<path class="st1" d="M918.2,516.2c-0.3,0.3-0.7,0.6-1.2,0.9v-0.7c0.6-0.4,1.1-0.9,1.4-1.4h0.4v6h-0.7V516.2z"/>
	<path class="st1" d="M921.1,520.9c0-0.4,0.2-0.7,0.5-0.9c0.3-0.3,0.7-0.7,1.2-1.3s0.8-1.1,0.9-1.4c0.1-0.3,0.2-0.6,0.2-0.8
		c0-0.2-0.1-0.4-0.3-0.6c-0.2-0.2-0.4-0.2-0.6-0.2s-0.5,0.1-0.7,0.3c-0.2,0.2-0.4,0.4-0.5,0.7l-0.7-0.1c0.2-0.5,0.4-0.9,0.7-1.2
		c0.3-0.2,0.6-0.4,1-0.4c0.2,0,0.4,0,0.6,0s0.4,0.1,0.6,0.2c0.2,0.1,0.4,0.3,0.5,0.6c0.1,0.3,0.2,0.6,0.1,0.9c0,0.4-0.2,0.8-0.5,1.3
		c-0.3,0.5-1,1.3-1.9,2.4h2.5v0.6h-3.5V520.9z"/>
</g>
<g>
	<ellipse class="st5" cx="332.7" cy="434.3" rx="6.5" ry="6.5"/>
</g>
<g>
	<path class="st1" d="M333.9,432h-3v-0.6h3.7v0.6c-1.1,1.8-1.8,3.6-2.2,5.3h-0.8C332.1,435.5,332.8,433.8,333.9,432z"/>
</g>
<g>
	<ellipse class="st5" cx="416.7" cy="434.3" rx="6.5" ry="6.5"/>
</g>
<g>
	<path class="st1" d="M417.9,432h-3v-0.6h3.7v0.6c-1.1,1.8-1.8,3.6-2.2,5.3h-0.8C416.1,435.5,416.8,433.8,417.9,432z"/>
</g>
<g>
	<ellipse class="st3" cx="500.8" cy="520.8" rx="6.5" ry="6.5"/>
</g>
<g>
	<path class="st1" d="M498.8,522c0-0.3,0.1-0.6,0.2-0.8c0.1-0.3,0.4-0.5,0.7-0.6c-0.3-0.2-0.5-0.3-0.6-0.5c-0.1-0.2-0.1-0.4-0.2-0.7
		c0-0.3,0-0.5,0.1-0.7c0.1-0.2,0.2-0.4,0.4-0.5c0.2-0.2,0.3-0.3,0.5-0.3c0.2-0.1,0.4-0.1,0.6-0.1s0.4,0,0.6,0.1s0.4,0.1,0.6,0.3
		c0.2,0.2,0.4,0.4,0.5,0.6c0.1,0.3,0.1,0.6,0,1c-0.1,0.4-0.4,0.7-0.8,0.9c0.4,0.1,0.7,0.3,0.8,0.5c0.2,0.2,0.2,0.5,0.2,0.9
		c0,0.4-0.1,0.6-0.2,0.8c-0.1,0.2-0.2,0.4-0.4,0.5c-0.1,0.1-0.3,0.3-0.5,0.3s-0.5,0.1-0.8,0.1c-0.3,0-0.6,0-0.9-0.1
		s-0.4-0.2-0.6-0.4c-0.2-0.2-0.3-0.4-0.3-0.6C498.8,522.5,498.8,522.3,498.8,522z M499.5,522c0,0.3,0,0.5,0.1,0.7
		c0.1,0.2,0.3,0.3,0.6,0.4s0.6,0.1,0.9,0c0.3-0.1,0.5-0.2,0.6-0.5c0.1-0.3,0.2-0.5,0.1-0.8c0-0.3-0.2-0.5-0.4-0.6
		c-0.3-0.2-0.5-0.3-0.8-0.2c-0.3,0-0.6,0.1-0.8,0.3C499.6,521.5,499.5,521.7,499.5,522z M499.6,519.2c0,0.2,0.1,0.5,0.2,0.7
		c0.2,0.2,0.4,0.3,0.8,0.3s0.6-0.1,0.8-0.3c0.2-0.2,0.3-0.5,0.2-0.8c0-0.3-0.1-0.5-0.3-0.6c-0.2-0.1-0.5-0.2-0.8-0.2
		c-0.3,0-0.6,0.1-0.7,0.3C499.7,518.8,499.6,519,499.6,519.2z"/>
</g>
<g>
	<ellipse class="st3" cx="584.7" cy="519" rx="6.5" ry="6.5"/>
</g>
<g>
	<path class="st1" d="M582.7,520.2c0-0.3,0.1-0.6,0.2-0.8c0.1-0.3,0.4-0.5,0.7-0.6c-0.3-0.2-0.5-0.3-0.6-0.5
		c-0.1-0.2-0.1-0.4-0.2-0.7c0-0.3,0-0.5,0.1-0.7c0.1-0.2,0.2-0.4,0.4-0.5c0.2-0.2,0.3-0.3,0.5-0.3c0.2-0.1,0.4-0.1,0.6-0.1
		s0.4,0,0.6,0.1s0.4,0.1,0.6,0.3c0.2,0.2,0.4,0.4,0.5,0.6c0.1,0.3,0.1,0.6,0,1c-0.1,0.4-0.4,0.7-0.8,0.9c0.4,0.1,0.7,0.3,0.8,0.5
		c0.2,0.2,0.2,0.5,0.2,0.9c0,0.4-0.1,0.6-0.2,0.8c-0.1,0.2-0.2,0.4-0.4,0.5c-0.1,0.1-0.3,0.3-0.5,0.3s-0.5,0.1-0.8,0.1
		c-0.3,0-0.6,0-0.9-0.1s-0.4-0.2-0.6-0.4c-0.2-0.2-0.3-0.4-0.3-0.6C582.8,520.8,582.7,520.5,582.7,520.2z M583.4,520.2
		c0,0.3,0,0.5,0.1,0.7c0.1,0.2,0.3,0.3,0.6,0.4s0.6,0.1,0.9,0c0.3-0.1,0.5-0.2,0.6-0.5c0.1-0.3,0.2-0.5,0.1-0.8
		c0-0.3-0.2-0.5-0.4-0.6c-0.3-0.2-0.5-0.3-0.8-0.2c-0.3,0-0.6,0.1-0.8,0.3C583.6,519.7,583.5,519.9,583.4,520.2z M583.6,517.5
		c0,0.2,0.1,0.5,0.2,0.7c0.2,0.2,0.4,0.3,0.8,0.3s0.6-0.1,0.8-0.3c0.2-0.2,0.3-0.5,0.2-0.8c0-0.3-0.1-0.5-0.3-0.6
		c-0.2-0.1-0.5-0.2-0.8-0.2c-0.3,0-0.6,0.1-0.7,0.3C583.6,517,583.6,517.2,583.6,517.5z"/>
</g>
<g>
	<ellipse class="st3" cx="248.7" cy="434.3" rx="6.5" ry="6.5"/>
</g>
<g>
	<path class="st1" d="M247.2,435.6c0.2,0.6,0.4,1,0.8,1.1c0.4,0.1,0.7,0,1-0.1c0.2-0.2,0.4-0.4,0.5-0.6c0.1-0.2,0.2-0.5,0.1-0.8
		c0-0.3-0.1-0.6-0.2-0.8c-0.2-0.2-0.3-0.4-0.6-0.4c-0.2-0.1-0.5-0.1-0.8,0c-0.3,0.1-0.5,0.2-0.7,0.5l-0.6-0.1c0-0.1,0.3-1.1,0.7-3
		h2.8v0.6H248c-0.1,0.6-0.2,1.1-0.4,1.5c0.4-0.2,0.7-0.2,1-0.2c0.3,0,0.6,0.1,0.9,0.2c0.3,0.1,0.5,0.3,0.6,0.5
		c0.1,0.2,0.2,0.4,0.3,0.7c0.1,0.2,0.1,0.5,0.1,0.7c0,0.3-0.1,0.5-0.2,0.8c-0.1,0.3-0.2,0.5-0.4,0.7c-0.2,0.2-0.4,0.3-0.7,0.4
		c-0.3,0.1-0.6,0.1-0.9,0.1c-0.4,0-0.7-0.2-1-0.4c-0.3-0.2-0.5-0.6-0.6-1.2L247.2,435.6z"/>
</g>
<g>
	<ellipse class="st3" cx="164.7" cy="350.4" rx="6.7" ry="6.7"/>
</g>
<g>
	<path class="st1" d="M163.2,351.7c0.2,0.7,0.5,1,0.9,1.1c0.4,0.1,0.7,0,1-0.1c0.3-0.2,0.4-0.4,0.5-0.6c0.1-0.3,0.2-0.5,0.1-0.9
		c0-0.3-0.1-0.6-0.3-0.8c-0.2-0.2-0.4-0.4-0.6-0.4c-0.2-0.1-0.5-0.1-0.8,0c-0.3,0.1-0.5,0.2-0.7,0.5l-0.6-0.1c0-0.1,0.3-1.2,0.7-3.1
		h2.9v0.7h-2.3c-0.1,0.7-0.2,1.2-0.4,1.6c0.4-0.2,0.7-0.2,1-0.2c0.3,0,0.6,0.1,0.9,0.2c0.3,0.1,0.5,0.3,0.6,0.5
		c0.1,0.2,0.2,0.5,0.3,0.7c0.1,0.2,0.1,0.5,0.1,0.7c0,0.3-0.1,0.5-0.2,0.8c-0.1,0.3-0.2,0.5-0.4,0.7c-0.2,0.2-0.4,0.3-0.7,0.4
		c-0.3,0.1-0.6,0.2-1,0.1c-0.4,0-0.7-0.2-1-0.4c-0.3-0.2-0.5-0.7-0.7-1.2L163.2,351.7z"/>
</g>
<g>
	<ellipse class="st5" cx="80.7" cy="349.9" rx="6.7" ry="6.7"/>
</g>
<g>
	<path class="st1" d="M81.3,351.6h-2.8V351l2.9-4.2H82v4.2h0.9v0.6H82v1.4h-0.7V351.6z M81.3,351v-2.9l-2,2.9H81.3z"/>
</g>
</svg>
