<?xml version="1.0" encoding="utf-8"?>
<!-- Generator: Adobe Illustrator 19.0.0, SVG Export Plug-In . SVG Version: 6.00 Build 0)  -->
<svg version="1.1" id="央铋_1" xmlns="http://www.w3.org/2000/svg" xmlns:xlink="http://www.w3.org/1999/xlink" x="0px" y="0px"
	 viewBox="0 0 338 524" style="enable-background:new 0 0 338 524;" xml:space="preserve">
<style type="text/css">
	.st0{fill:#474747;}
	.st1{fill:#E5E5E5;}
	.st2{fill:#D3D3D3;}
	.st3{fill:#26ACEF;}
	.st4{fill:#FFFFFF;}
</style>
<g>
	<path class="st0" d="M242,309.9c0.8,0.1,1.5,0.2,2.3,0.3C243.6,310.1,242.8,310,242,309.9c6.7,0.9,13.2,2.7,19.4,5.3
		c-0.7-0.3-1.3-0.6-2-0.8c6.4,2.7,12.5,6.1,18,10.3c-0.6-0.4-1.1-0.9-1.7-1.3c4.9,3.8,9.3,8.2,13.1,13.2c-0.4-0.6-0.9-1.1-1.3-1.7
		c4.6,5.9,8.2,12.4,11.1,19.3c-0.3-0.7-0.6-1.3-0.8-2c3,7,5.1,14.4,6.5,21.9c0.4,2.1,0.8,4.3,1,6.4c-0.1-0.7-0.2-1.5-0.3-2.2
		c0.9,7,1.3,14,1,21c-0.1,2.1,1,4.4,2.4,5.9c1.4,1.4,3.8,2.5,5.9,2.4c2.1-0.1,4.4-0.8,5.9-2.4c1.5-1.7,2.4-3.6,2.4-5.9
		c0.3-9-0.4-18.1-1.9-27c-1.4-8.3-3.6-16.5-6.9-24.2c-1.8-4.4-3.8-8.7-6.2-12.9c-2.4-4.1-5.2-8-8.2-11.7c-5.6-7-12.5-13-20.2-17.6
		c-4.7-2.9-9.8-5.2-14.9-7.3c-5.3-2.1-10.8-3.7-16.4-4.5c-2.1-0.3-4.1-0.6-6.2-0.8c-2-0.2-4.5,1.1-5.9,2.4c-1.4,1.4-2.5,3.8-2.4,5.9
		c0.1,2.1,0.8,4.4,2.4,5.9c0.6,0.4,1.1,0.9,1.7,1.3C239.1,309.5,240.5,309.9,242,309.9L242,309.9z"/>
</g>
<g>
	<path class="st0" d="M322.2,418.3c0.8,0.7,1.5,1.4,2.2,2.2c0.2,0.2,0.3,0.4,0.5,0.6c0,0,0.2,0.2,0.2,0.3c0,0-0.6-0.8-0.3-0.4
		c0.3,0.4,0.6,0.9,0.9,1.3c0.5,0.8,1,1.7,1.5,2.6c0.1,0.2,0.2,0.4,0.3,0.6c0,0,0.2,0.4,0.2,0.4c0,0-0.4-0.9-0.2-0.5
		c0.2,0.5,0.4,0.9,0.5,1.4c0.7,1.9,1.1,3.9,1.4,5.9c0.1,0.9-0.1-0.8,0-0.1c0,0.2,0.1,0.4,0.1,0.7c0.1,0.5,0.1,1.1,0.1,1.6
		c0.1,1,0.1,2.1,0.1,3.1c0,2.3-0.2,4.6-0.4,6.8c-0.1,1,0.5,2.3,1.2,2.9c0.7,0.7,1.9,1.3,2.9,1.2c1.1,0,2.2-0.4,2.9-1.2
		c0.8-0.9,1.1-1.8,1.2-2.9c1-8.8,0.4-18.4-4.3-26.2c-1.4-2.3-3.1-4.4-5.2-6.2c-0.8-0.7-1.8-1.2-2.9-1.2c-1,0-2.2,0.5-2.9,1.2
		C320.8,413.9,320.5,416.7,322.2,418.3L322.2,418.3z"/>
</g>
<g>
	<path class="st0" d="M300.3,411.7c-7,6.5-9.4,16.4-9.1,25.7c0.1,2.7,0.4,5.4,0.8,8.1c0.1,1,1.1,2,1.9,2.5c0.9,0.5,2.2,0.7,3.2,0.4
		c1-0.3,2-0.9,2.5-1.9c0.6-1.1,0.6-2,0.4-3.2c0-0.2-0.1-0.5-0.1-0.7c0-0.1,0-0.2,0-0.3c0-0.1,0.1,1,0.1,0.6
		c-0.1-0.5-0.1-1.1-0.2-1.6c-0.1-1-0.2-2-0.2-3c-0.1-2-0.1-4.1,0.1-6.1c0-0.5,0.1-1,0.2-1.4c0.1-0.5-0.1,0.6-0.1,0.6
		c0-0.1,0-0.3,0.1-0.4c0-0.3,0.1-0.5,0.1-0.8c0.2-1,0.4-2,0.7-3c0.3-0.9,0.6-1.9,0.9-2.8c0-0.1,0.1-0.2,0.1-0.3
		c0.2-0.5-0.4,0.9-0.2,0.4c0.1-0.2,0.2-0.4,0.3-0.6c0.2-0.5,0.5-1,0.7-1.4c0.3-0.5,0.5-0.9,0.8-1.4c0.2-0.2,0.3-0.5,0.5-0.7
		c0.1-0.1,0.1-0.2,0.2-0.3c0.3-0.5-0.2,0.2-0.3,0.3c0.7-1,1.6-1.8,2.4-2.6c1.6-1.5,1.6-4.4,0-5.9C304.5,410.2,302,410.2,300.3,411.7
		L300.3,411.7z"/>
</g>
<path class="st1" d="M180.3,304.9c0-19.4,19.7-21.3,44-21.3s44,1.9,44,21.3c0,19.4-19.7,35.2-44,35.2S180.3,324.3,180.3,304.9z"/>
<path class="st2" d="M167.7,305.2c0-31.4,19.7-34.5,44-34.5c24.3,0,44,3,44,34.5c0,31.4-19.7,56.9-44,56.9
	C187.3,362,167.7,336.6,167.7,305.2z"/>
<circle class="st1" cx="313.5" cy="407.1" r="17.9"/>
<circle class="st2" cx="313.5" cy="407.1" r="6.4"/>
<g>
	<path class="st0" d="M96,293.3c-6.3,0.6-12.6,1.8-18.6,3.9c-5.6,1.9-11,4.4-16.2,7.2c-4.3,2.3-8.2,5.2-12,8.2
		c-3.2,2.6-6.2,5.5-8.9,8.6c-5.8,6.7-10.7,14.2-14.4,22.3c-3.7,8.3-6.6,16.9-8.3,25.8c-1.7,8.8-2.6,17.9-2.5,26.9c0,1,0,2.1,0.1,3.1
		c0.1,2.2,0.9,4.3,2.4,5.9c1.4,1.4,3.8,2.5,5.9,2.4c2.1-0.1,4.4-0.8,5.9-2.4c1.5-1.6,2.5-3.6,2.4-5.9c-0.2-7,0.1-14.1,1-21
		c-0.1,0.7-0.2,1.5-0.3,2.2c1-7.6,2.7-15.1,5.3-22.3c0.7-2,1.5-4.1,2.3-6.1c-0.3,0.7-0.6,1.3-0.8,2c2.9-6.9,6.6-13.4,11.1-19.3
		c-0.4,0.6-0.9,1.1-1.3,1.7c3.8-4.9,8.2-9.4,13.1-13.2c-0.6,0.4-1.1,0.9-1.7,1.3c5.5-4.2,11.6-7.6,18-10.3c-0.7,0.3-1.3,0.6-2,0.8
		c6.2-2.6,12.7-4.4,19.4-5.3c-0.7,0.1-1.5,0.2-2.2,0.3c0.8-0.1,1.5-0.2,2.3-0.3c1.1,0,2.2-0.2,3.2-0.7c1-0.3,1.9-0.9,2.7-1.7
		c1.4-1.4,2.5-3.8,2.4-5.9c-0.1-2.1-0.8-4.4-2.4-5.9C100.3,294.3,98.1,293.1,96,293.3L96,293.3z"/>
</g>
<g>
	<path class="st0" d="M9.9,412.4c-7.2,6.2-9.8,16-9.9,25.2c0,2.4,0.1,4.8,0.4,7.2c0.1,1.1,0.4,2.1,1.2,2.9c0.7,0.7,1.9,1.3,2.9,1.2
		c1.1,0,2.2-0.4,2.9-1.2c0.7-0.8,1.3-1.9,1.2-2.9c-0.5-4-0.6-8.1-0.1-12.1c0.1-1-0.1,0.8,0,0.1c0-0.3,0.1-0.5,0.1-0.8
		c0.1-0.5,0.2-1,0.3-1.5c0.2-1,0.5-2,0.8-2.9c0.1-0.4,0.3-0.9,0.4-1.3c0.1-0.2,0.2-0.5,0.3-0.7c0.3-0.8-0.4,0.8,0,0
		c0.4-0.9,0.9-1.8,1.4-2.7c0.3-0.5,0.6-0.9,0.9-1.4c0.1-0.2,0.3-0.6,0.5-0.7c0.1,0-0.6,0.7-0.3,0.4c0.1-0.1,0.2-0.3,0.3-0.4
		c0.8-0.9,1.6-1.7,2.5-2.5c1.7-1.4,1.6-4.4,0-5.9C14,410.8,11.7,410.9,9.9,412.4L9.9,412.4z"/>
</g>
<g>
	<path class="st0" d="M31.8,417.6c0.8,0.7,1.5,1.5,2.2,2.3c0.1,0.1,0.1,0.2,0.2,0.3c0.3,0.3-0.4-0.4-0.3-0.4c0.1,0,0.4,0.5,0.4,0.6
		c0.3,0.4,0.6,0.8,0.8,1.3c0.5,0.8,0.9,1.7,1.3,2.6c0.3,0.6-0.4-0.9,0-0.1c0.1,0.2,0.2,0.5,0.3,0.7c0.2,0.5,0.3,1,0.5,1.4
		c0.3,0.9,0.5,1.9,0.7,2.9c0.1,0.5,0.2,0.9,0.3,1.4c0,0.2,0.2,1.1,0.1,0.3c-0.1-0.8,0,0.3,0,0.4c0.2,2,0.3,4.1,0.2,6.1
		c0,1.1-0.1,2.2-0.2,3.3c-0.1,0.6-0.1,1.2-0.2,1.7c0,0.1,0,0.2,0,0.3c-0.1,0.5,0.1-1,0.1-0.5c0,0.3-0.1,0.6-0.1,1
		c-0.2,1.1-0.2,2.2,0.4,3.2c0.5,0.9,1.5,1.7,2.5,1.9c2,0.5,4.8-0.6,5.1-2.9c1.4-9.2,1.3-19-3.3-27.3c-1.3-2.4-3-4.5-5-6.4
		c-1.6-1.5-4.3-1.7-5.9,0C30.3,413.4,30.1,416,31.8,417.6L31.8,417.6z"/>
</g>
<circle class="st1" cx="24.5" cy="407.1" r="17.9"/>
<circle class="st2" cx="24.5" cy="407.1" r="6.4"/>
<path class="st1" d="M157.6,304.9c0-19.4-19.7-21.3-44-21.3s-44,1.9-44,21.3c0,19.4,19.7,35.2,44,35.2S157.6,324.3,157.6,304.9z"/>
<path class="st2" d="M57.6,124.8h-6.9c-3.1,0-5.6,2.5-5.6,5.6v25.2c0,3.1,2.5,5.6,5.6,5.6h6.9c3.1,0,5.6-2.5,5.6-5.6v-25.2
	C63.2,127.3,60.7,124.8,57.6,124.8z"/>
<path class="st2" d="M170.3,305.2c0-31.4-19.7-34.5-44-34.5s-44,3-44,34.5c0,31.4,19.7,56.9,44,56.9S170.3,336.6,170.3,305.2z"/>
<path class="st1" d="M168.9,415L168.9,415c4.2,0,7.6,3.4,7.6,7.6v31.9c0,4.2-3.4,7.6-7.6,7.6h0c-4.2,0-7.6-3.4-7.6-7.6v-31.9
	C161.3,418.4,164.7,415,168.9,415z"/>
<path class="st2" d="M209.2,350.2c0-41.2-18.1-45.2-40.4-45.2c-22.3,0-40.4,4-40.4,45.2s18.1,74.6,40.4,74.6
	C191.2,424.8,209.2,391.4,209.2,350.2z"/>
<path class="st1" d="M241.7,314.6c0-52.1-32.6-57.1-72.9-57.1s-72.9,5-72.9,57.1s32.6,94.3,72.9,94.3S241.7,366.7,241.7,314.6z"/>
<path class="st2" d="M286.4,124.8h-6.9c-3.1,0-5.6,2.5-5.6,5.6v25.2c0,3.1,2.5,5.6,5.6,5.6h6.9c3.1,0,5.6-2.5,5.6-5.6v-25.2
	C292,127.3,289.5,124.8,286.4,124.8z"/>
<g>
	<g>
		<path class="st1" d="M173.4,46.6c0,21.9-1.4,39.7-3,39.7h-3.7c-1.7,0-3-17.9-3-39.7c0-21.9,1.4-39.7,3-39.7h3.7
			C172.1,6.9,173.4,24.7,173.4,46.6z"/>
	</g>
</g>
<g>
	<g>
		<path class="st2" d="M173.3,37.7c-0.3-17.6-1.5-30.8-2.9-30.8h-3.7c-1.4,0-2.6,13.2-2.9,30.8H173.3z"/>
	</g>
	<g>
		<path class="st2" d="M163.7,48.2c0.1,21.1,1.4,38.2,3,38.2h3.7c1.6,0,2.9-17,3-38.2H163.7z"/>
	</g>
</g>
<g>
	<path class="st1" d="M169.1,214.7L169.1,214.7c4.6,0,8.3,3.7,8.3,8.3v39.4c0,4.6-3.7,8.3-8.3,8.3h0c-4.6,0-8.3-3.7-8.3-8.3V223
		C160.8,218.4,164.6,214.7,169.1,214.7z"/>
</g>
<path class="st2" d="M181.1,249.6h-3.7v-5.4h-16.6v5.4h-4.2c-5.2,0-9.5,4.3-9.5,9.5v3.6c0,5.2,4.3,9.5,9.5,9.5h24.5
	c5.2,0,9.5-4.3,9.5-9.5v-3.6C190.6,253.8,186.3,249.6,181.1,249.6z"/>
<g>
	<path class="st2" d="M177.4,238.4v-17.1c0-3.6-3-6.6-6.6-6.6h-3.3c-3.6,0-6.6,3-6.6,6.6v17.1H177.4z"/>
</g>
<g>
	<g>
		<path class="st2" d="M226.3,91.7c0,21.9-16.1,39.7-35.7,39.7h-44.1c-19.6,0-35.7-17.9-35.7-39.7c0-21.9,16.1-39.7,35.7-39.7h44.1
			C210.2,51.9,226.3,69.8,226.3,91.7z"/>
	</g>
</g>
<g>
	<g>
		<path class="st2" d="M282.9,140.8c0,43.3-31.8,78.7-70.7,78.7h-87.4c-38.9,0-70.7-35.4-70.7-78.7c0-43.3,31.8-78.7,70.7-78.7h87.4
			C251.1,62.1,282.9,97.5,282.9,140.8z"/>
	</g>
</g>
<g>
	<g>
		<path class="st1" d="M282.9,140.8c0.6,22.2-7.5,43.6-22.7,59.9c-33.1,35.4-95.5,37.9-139.3,25c-38.9-11.5-67.2-41-66.8-83.3
			c0.4-39.6,28.1-80.3,70.7-80.3h87.4c32.4,0,59.9,24.6,68.2,57.9C282.1,126.6,282.9,133.6,282.9,140.8z"/>
	</g>
</g>
<path class="st0" d="M223.1,112.7H106.5c-14,0-25.5,11.5-25.5,25.5v9.8c0,14,11.5,25.5,25.5,25.5h116.6c14,0,25.5-11.5,25.5-25.5
	v-9.8C248.6,124.1,237.1,112.7,223.1,112.7z"/>
<path class="st0" d="M241,120L88.2,165.7c4.6,4.8,11.1,7.7,18.3,7.7h116.6c14,0,25.5-11.5,25.5-25.5v-9.8
	C248.6,131.1,245.7,124.6,241,120z"/>
<g>
	<path class="st3" d="M113,151.9c-6.1,0-11.1-5-11.1-11.1c0-6.1,5-11.1,11.1-11.1c6.1,0,11.1,5,11.1,11.1
		C124,146.9,119.1,151.9,113,151.9z M113,132.5c-4.6,0-8.3,3.7-8.3,8.3c0,4.6,3.7,8.3,8.3,8.3c4.6,0,8.3-3.7,8.3-8.3
		C121.2,136.3,117.5,132.5,113,132.5z"/>
</g>
<g>
	<path class="st3" d="M216.6,151.9c-6.1,0-11.1-5-11.1-11.1c0-6.1,5-11.1,11.1-11.1c6.1,0,11.1,5,11.1,11.1
		C227.7,146.9,222.7,151.9,216.6,151.9z M216.6,132.5c-4.6,0-8.3,3.7-8.3,8.3c0,4.6,3.7,8.3,8.3,8.3c4.6,0,8.3-3.7,8.3-8.3
		C224.9,136.3,221.2,132.5,216.6,132.5z"/>
</g>
<g>
	<path class="st4" d="M142.4,185.6c0.7,11.8,10.5,21.1,22.4,21.1c11.9,0,21.7-9.3,22.4-21.1H142.4z"/>
</g>
<g>
	<circle class="st1" cx="168.5" cy="17.2" r="17.2"/>
</g>
<circle class="st0" cx="168.9" cy="484.6" r="38.4"/>
<g>
	<path class="st2" d="M207.3,484.2c-0.2-21.1-17.3-38.1-38.4-38.1c-21.1,0-38.2,17-38.4,38.1H207.3z"/>
	<path class="st2" d="M133.6,484.2c0.2-19.3,15.9-34.9,35.3-34.9c19.3,0,35.1,15.6,35.3,34.9h6.3c-0.1-11-4.4-21.3-12.2-29
		c-7.9-7.9-18.3-12.2-29.4-12.2c-11.1,0-21.5,4.3-29.4,12.2c-7.8,7.8-12.1,18.1-12.2,29H133.6z"/>
</g>
<circle class="st1" cx="168.9" cy="484.6" r="20"/>
<circle class="st2" cx="168.9" cy="484.6" r="9.1"/>
<circle class="st2" cx="170.3" cy="327.1" r="31.7"/>
<path class="st1" d="M170.3,306.1c-11.6,0-21,9.4-21,21c0,3.2,0.7,6.2,2,8.9l23.1-29.5C173.1,306.2,171.7,306.1,170.3,306.1z"/>
<path class="st2" d="M174.4,306.4L151.3,336c0.7,1.4,1.5,2.7,2.4,3.9l25.4-31.9C177.6,307.3,176,306.8,174.4,306.4z"/>
<path class="st1" d="M179.1,308l-25.4,31.9c1.7,2.2,3.9,4.1,6.3,5.5l25.8-32.6C183.9,310.8,181.6,309.1,179.1,308z"/>
<path class="st2" d="M185.8,312.8L160,345.4c2.4,1.4,5.2,2.3,8.1,2.6l22.2-27.7C189.3,317.5,187.7,314.9,185.8,312.8z"/>
<path class="st1" d="M168.1,348c0.7,0.1,1.5,0.1,2.3,0.1c11.6,0,21-9.4,21-21c0-2.4-0.4-4.7-1.1-6.8L168.1,348z"/>
<circle class="st3" cx="216.7" cy="140.8" r="9.4"/>
<circle class="st3" cx="113.7" cy="140.8" r="9.4"/>
</svg>
