<?xml version="1.0" encoding="utf-8"?>
<!-- Generator: Adobe Illustrator 19.0.0, SVG Export Plug-In . SVG Version: 6.00 Build 0)  -->
<svg version="1.1" id="图层_1" xmlns="http://www.w3.org/2000/svg" xmlns:xlink="http://www.w3.org/1999/xlink" x="0px" y="0px"
	 viewBox="0 0 122 154" style="enable-background:new 0 0 122 154;" xml:space="preserve">
<style type="text/css">
	.st0{opacity:0.95;}
	.st1{opacity:0.95;fill:#032E43;enable-background:new    ;}
	.st2{opacity:0.95;fill:#636363;enable-background:new    ;}
	.st3{opacity:0.95;fill:#BEBEBE;enable-background:new    ;}
	.st4{fill:#032E43;}
</style>
<g id="XMLID_286_">
	<g id="XMLID_294_" class="st0">
		<polygon id="XMLID_296_" class="st1" points="9,29.9 9,30.1 9,89.9 28.7,101.4 28.7,41.4 		"/>
		<polygon id="XMLID_295_" class="st1" points="9,90.1 9,89.9 61.1,60 80.5,71.2 28.4,101.4 		"/>
	</g>
	<polygon id="XMLID_293_" class="st2" points="113,90.1 113,89.9 113,30.1 93.6,18.6 93.6,78.6 	"/>
	<polygon id="XMLID_292_" class="st3" points="80.5,71.2 80.5,71.2 80.5,11.2 61.1,0 61.1,60 	"/>
	<polygon id="XMLID_291_" class="st1" points="113,29.9 113,30.1 61.1,60 41.5,48.8 93.6,18.6 	"/>
	<g id="XMLID_288_" class="st0">
		<polygon id="XMLID_290_" class="st3" points="41.5,48.8 41.5,48.8 41.5,108.8 61.1,120 61.1,60 		"/>
		<polygon id="XMLID_289_" class="st3" points="41.5,108.8 41.5,108.8 93.6,78.6 113,90.1 61.1,120 		"/>
	</g>
	<polygon id="XMLID_287_" class="st3" points="80.5,11.2 80.5,11.2 28.4,41.4 9,29.9 61.1,0 	"/>
</g>
<g id="XMLID_2_">
	<path id="XMLID_3_" class="st4" d="M0.5,145.8h1v3.9h0c0.2-0.3,0.4-0.6,0.6-0.9l2.5-3h1.3L3,149.2l3.2,4.7H4.9l-2.7-4l-0.8,0.9v3.1
		h-1V145.8z"/>
	<path id="XMLID_5_" class="st4" d="M11.8,145.8h1v7.2h3.5v0.9h-4.5V145.8z"/>
	<path id="XMLID_7_" class="st4" d="M26.4,150.1h-3.1v2.9h3.5v0.9h-4.5v-8.1h4.4v0.9h-3.3v2.6h3.1V150.1z"/>
	<path id="XMLID_9_" class="st4" d="M34,145.8v8.1h-1v-8.1H34z"/>
	<path id="XMLID_11_" class="st4" d="M40.6,153.9v-8.1h1.1l2.6,4.1c0.6,0.9,1.1,1.8,1.5,2.6l0,0c-0.1-1.1-0.1-2.1-0.1-3.3v-3.4h1
		v8.1h-1.1l-2.6-4.1c-0.6-0.9-1.1-1.8-1.5-2.7l0,0c0.1,1,0.1,2,0.1,3.3v3.5H40.6z"/>
	<path id="XMLID_13_" class="st4" d="M60.6,145.9c0.5-0.1,1.2-0.2,1.9-0.2c1,0,1.7,0.2,2.2,0.6c0.4,0.3,0.7,0.8,0.7,1.4
		c0,0.8-0.5,1.5-1.4,1.8v0c0.8,0.2,1.7,0.8,1.7,2c0,0.7-0.3,1.2-0.7,1.6c-0.6,0.5-1.5,0.8-2.8,0.8c-0.7,0-1.3,0-1.6-0.1V145.9z
		 M61.7,149.2h0.9c1.1,0,1.8-0.6,1.8-1.4c0-0.9-0.7-1.3-1.8-1.3c-0.5,0-0.8,0-0.9,0.1V149.2z M61.7,153.1c0.2,0,0.5,0,0.9,0
		c1.1,0,2.1-0.4,2.1-1.6c0-1.1-0.9-1.6-2.1-1.6h-0.9V153.1z"/>
	<path id="XMLID_17_" class="st4" d="M78.8,149.7c0,2.8-1.7,4.3-3.8,4.3c-2.1,0-3.6-1.7-3.6-4.1c0-2.6,1.6-4.2,3.8-4.2
		C77.4,145.7,78.8,147.3,78.8,149.7z M72.6,149.9c0,1.7,0.9,3.3,2.6,3.3c1.7,0,2.6-1.5,2.6-3.4c0-1.6-0.8-3.3-2.6-3.3
		C73.4,146.5,72.6,148.1,72.6,149.9z"/>
	<path id="XMLID_20_" class="st4" d="M86.5,146.7h-2.5v-0.9h6v0.9h-2.5v7.2h-1.1V146.7z"/>
	<path id="XMLID_22_" class="st4" d="M97.3,146.7h-2.5v-0.9h6v0.9h-2.5v7.2h-1.1V146.7z"/>
	<path id="XMLID_24_" class="st4" d="M106.5,145.8h1v7.2h3.5v0.9h-4.5V145.8z"/>
	<path id="XMLID_26_" class="st4" d="M121.2,150.1H118v2.9h3.5v0.9H117v-8.1h4.4v0.9H118v2.6h3.1V150.1z"/>
</g>
</svg>
