<?xml version="1.0" encoding="utf-8"?>
<!-- Generator: Adobe Illustrator 19.0.0, SVG Export Plug-In . SVG Version: 6.00 Build 0)  -->
<svg version="1.1" id="图层_1" xmlns="http://www.w3.org/2000/svg" xmlns:xlink="http://www.w3.org/1999/xlink" x="0px" y="0px"
	 viewBox="0 0 192 47" style="enable-background:new 0 0 192 47;" xml:space="preserve">
<style type="text/css">
	.st0{opacity:0.95;}
	.st1{opacity:0.95;fill:#032E43;}
	.st2{opacity:0.95;fill:#636363;}
	.st3{opacity:0.95;fill:#BEBEBE;}
	.st4{fill:#032E43;}
</style>
<g id="XMLID_286_">
	<g id="XMLID_294_" class="st0">
		<polygon id="XMLID_296_" class="st1" points="0,11.7 0,11.8 0,35.2 7.7,39.7 7.7,16.2 		"/>
		<polygon id="XMLID_295_" class="st1" points="0,35.3 0,35.2 20.4,23.5 28,27.9 7.6,39.7 		"/>
	</g>
	<polygon id="XMLID_293_" class="st2" points="40.7,35.3 40.7,35.2 40.7,11.8 33.1,7.3 33.1,30.8 	"/>
	<polygon id="XMLID_292_" class="st3" points="28,27.9 28,27.9 28,4.4 20.4,0 20.4,23.5 	"/>
	<polygon id="XMLID_291_" class="st1" points="40.7,11.7 40.7,11.8 20.4,23.5 12.7,19.1 33.1,7.3 	"/>
	<g id="XMLID_288_" class="st0">
		<polygon id="XMLID_290_" class="st3" points="12.7,19.1 12.7,19.1 12.7,42.6 20.4,47 20.4,23.5 		"/>
		<polygon id="XMLID_289_" class="st3" points="12.7,42.6 12.7,42.6 33.1,30.8 40.7,35.3 20.4,47 		"/>
	</g>
	<polygon id="XMLID_287_" class="st3" points="28,4.4 28,4.4 7.6,16.2 0,11.7 20.4,0 	"/>
</g>
<g id="XMLID_2_">
	<path id="XMLID_3_" class="st4" d="M68.2,27.8H67l-3.1-4.2L63,24.4v3.4h-1v-8.6h1v4.2l3.9-4.2h1.2l-3.4,3.7L68.2,27.8z"/>
	<path id="XMLID_5_" class="st4" d="M74.2,27.8v-8.6h1v7.7H79v0.9H74.2z"/>
	<path id="XMLID_7_" class="st4" d="M90,27.8h-4.8v-8.6H90v0.9h-3.8v2.8h3.6v0.9h-3.6v3.2H90V27.8z"/>
	<path id="XMLID_9_" class="st4" d="M96.7,27.8v-8.6h1v8.6H96.7z"/>
	<path id="XMLID_11_" class="st4" d="M111.5,27.8h-1.1l-4.7-7.2h0c0.1,0.8,0.1,1.6,0.1,2.3v4.9h-0.9v-8.6h1.1l4.7,7.2h0
		c0-0.1,0-0.4-0.1-1s0-1,0-1.2v-4.9h0.9V27.8z"/>
	<path id="XMLID_13_" class="st4" d="M126.6,19.2h2.4c1.1,0,2,0.2,2.5,0.5s0.8,0.9,0.8,1.6c0,0.5-0.1,0.9-0.4,1.3s-0.7,0.5-1.2,0.6
		v0.1c1.3,0.2,2,0.9,2,2.1c0,0.8-0.3,1.4-0.8,1.8s-1.2,0.6-2.2,0.6h-3V19.2z M127.6,22.9h1.6c0.7,0,1.2-0.1,1.5-0.3s0.5-0.6,0.5-1.1
		c0-0.5-0.2-0.8-0.5-1s-0.9-0.3-1.6-0.3h-1.5V22.9z M127.6,23.7v3.2h1.8c0.7,0,1.2-0.1,1.6-0.4s0.5-0.7,0.5-1.3
		c0-0.5-0.2-0.9-0.5-1.2s-0.9-0.4-1.6-0.4H127.6z"/>
	<path id="XMLID_17_" class="st4" d="M146.6,23.5c0,1.4-0.3,2.4-1,3.2s-1.7,1.2-2.9,1.2c-1.3,0-2.2-0.4-2.9-1.2s-1-1.9-1-3.3
		c0-1.4,0.3-2.5,1-3.2s1.7-1.2,2.9-1.2c1.2,0,2.2,0.4,2.9,1.2S146.6,22.1,146.6,23.5z M139.8,23.5c0,1.2,0.2,2,0.7,2.6
		s1.2,0.9,2.2,0.9c0.9,0,1.7-0.3,2.2-0.9s0.7-1.5,0.7-2.6c0-1.2-0.2-2-0.7-2.6s-1.2-0.9-2.1-0.9c-0.9,0-1.7,0.3-2.2,0.9
		S139.8,22.4,139.8,23.5z"/>
	<path id="XMLID_20_" class="st4" d="M156,27.8h-1v-7.7h-2.7v-0.9h6.4v0.9H156V27.8z"/>
	<path id="XMLID_22_" class="st4" d="M167.4,27.8h-1v-7.7h-2.7v-0.9h6.4v0.9h-2.7V27.8z"/>
	<path id="XMLID_24_" class="st4" d="M176.2,27.8v-8.6h1v7.7h3.8v0.9H176.2z"/>
	<path id="XMLID_26_" class="st4" d="M192,27.8h-4.8v-8.6h4.8v0.9h-3.8v2.8h3.6v0.9h-3.6v3.2h3.8V27.8z"/>
</g>
</svg>
