<?xml version="1.0" encoding="utf-8"?>
<!-- Generator: Adobe Illustrator 19.0.0, SVG Export Plug-In . SVG Version: 6.00 Build 0)  -->
<svg version="1.1" id="图层_1" xmlns="http://www.w3.org/2000/svg" xmlns:xlink="http://www.w3.org/1999/xlink" x="0px" y="0px"
	 viewBox="0 0 100 100" style="enable-background:new 0 0 100 100;" xml:space="preserve">
<style type="text/css">
	.st0{fill:#EDEFF1;}
	.st1{fill:#D3D4D4;}
	.st2{opacity:0.95;}
	.st3{opacity:0.95;fill:#032E43;}
	.st4{opacity:0.95;fill:#636363;}
	.st5{opacity:0.95;fill:#BEBEBE;}
	.st6{fill:#032E43;}
</style>
<g id="XMLID_1_">
	<path id="XMLID_17_" class="st0" d="M50,99.5C22.7,99.5,0.5,77.3,0.5,50C0.5,22.7,22.7,0.5,50,0.5c27.3,0,49.5,22.2,49.5,49.5
		C99.5,77.3,77.3,99.5,50,99.5z"/>
	<path id="XMLID_14_" class="st1" d="M50,1c27,0,49,22,49,49c0,27-22,49-49,49C23,99,1,77,1,50C1,23,23,1,50,1 M50,0L50,0
		C22.5,0,0,22.5,0,50v0c0,27.5,22.5,50,50,50h0c27.5,0,50-22.5,50-50v0C100,22.5,77.5,0,50,0L50,0z"/>
</g>
<g id="XMLID_286_">
	<g id="XMLID_294_" class="st2">
		<polygon id="XMLID_296_" class="st3" points="29,22.1 29,22.1 29,46.4 36.9,50.9 36.9,26.7 		"/>
		<polygon id="XMLID_295_" class="st3" points="29,46.4 29,46.4 50,34.2 57.9,38.8 36.9,50.9 		"/>
	</g>
	<polygon id="XMLID_293_" class="st4" points="71,46.4 71,46.4 71,22.1 63.1,17.6 63.1,41.8 	"/>
	<polygon id="XMLID_292_" class="st5" points="57.9,38.8 57.9,38.8 57.9,14.6 50,10 50,34.2 	"/>
	<polygon id="XMLID_291_" class="st3" points="71,22.1 71,22.1 50,34.2 42.1,29.7 63.1,17.6 	"/>
	<g id="XMLID_288_" class="st2">
		<polygon id="XMLID_290_" class="st5" points="42.1,29.7 42.1,29.7 42.1,53.9 50,58.5 50,34.2 		"/>
		<polygon id="XMLID_289_" class="st5" points="42.1,53.9 42.1,53.9 63.1,41.8 71,46.4 50,58.5 		"/>
	</g>
	<polygon id="XMLID_287_" class="st5" points="57.9,14.6 57.9,14.6 36.9,26.7 29,22.1 50,10 	"/>
</g>
<g id="XMLID_3_">
	<path id="XMLID_4_" class="st6" d="M40.2,75.9H39l-3.1-4.2L35,72.5v3.4h-1v-8.6h1v4.2l3.9-4.2h1.2L36.6,71L40.2,75.9z"/>
	<path id="XMLID_6_" class="st6" d="M41.7,75.9v-8.6h1V75h3.8v0.9H41.7z"/>
	<path id="XMLID_8_" class="st6" d="M53,75.9h-4.8v-8.6H53v0.9h-3.8V71h3.6v0.9h-3.6V75H53V75.9z"/>
	<path id="XMLID_11_" class="st6" d="M55.2,75.9v-8.6h1v8.6H55.2z"/>
	<path id="XMLID_13_" class="st6" d="M65.5,75.9h-1.1l-4.7-7.2h0c0.1,0.8,0.1,1.6,0.1,2.3v4.9h-0.9v-8.6H60l4.7,7.2h0
		c0-0.1,0-0.4-0.1-1s0-1,0-1.2v-4.9h0.9V75.9z"/>
	<path id="XMLID_19_" class="st6" d="M28.5,81.3H31c1.1,0,2,0.2,2.5,0.5s0.8,0.9,0.8,1.6c0,0.5-0.1,0.9-0.4,1.3s-0.7,0.5-1.2,0.6
		v0.1c1.3,0.2,2,0.9,2,2.1c0,0.8-0.3,1.4-0.8,1.8s-1.2,0.6-2.2,0.6h-3V81.3z M29.5,85h1.6c0.7,0,1.2-0.1,1.5-0.3s0.5-0.6,0.5-1.1
		c0-0.5-0.2-0.8-0.5-1s-0.9-0.3-1.6-0.3h-1.5V85z M29.5,85.8V89h1.8c0.7,0,1.2-0.1,1.6-0.4s0.5-0.7,0.5-1.3c0-0.5-0.2-0.9-0.5-1.2
		s-0.9-0.4-1.6-0.4H29.5z"/>
	<path id="XMLID_23_" class="st6" d="M44.1,85.6c0,1.4-0.3,2.4-1,3.2S41.4,90,40.1,90c-1.3,0-2.2-0.4-2.9-1.2s-1-1.9-1-3.3
		c0-1.4,0.3-2.5,1-3.2s1.7-1.2,2.9-1.2c1.2,0,2.2,0.4,2.9,1.2S44.1,84.2,44.1,85.6z M37.2,85.6c0,1.2,0.2,2,0.7,2.6s1.2,0.9,2.2,0.9
		c0.9,0,1.7-0.3,2.2-0.9s0.7-1.5,0.7-2.6c0-1.2-0.2-2-0.7-2.6s-1.2-0.9-2.1-0.9c-0.9,0-1.7,0.3-2.2,0.9S37.2,84.4,37.2,85.6z"/>
	<path id="XMLID_26_" class="st6" d="M48.9,89.9h-1v-7.7h-2.7v-0.9h6.4v0.9h-2.7V89.9z"/>
	<path id="XMLID_28_" class="st6" d="M55.8,89.9h-1v-7.7h-2.7v-0.9h6.4v0.9h-2.7V89.9z"/>
	<path id="XMLID_30_" class="st6" d="M60.1,89.9v-8.6h1V89h3.8v0.9H60.1z"/>
	<path id="XMLID_32_" class="st6" d="M71.5,89.9h-4.8v-8.6h4.8v0.9h-3.8V85h3.6v0.9h-3.6V89h3.8V89.9z"/>
</g>
</svg>
