<?xml version="1.0" encoding="utf-8"?>
<!-- Generator: Adobe Illustrator 19.0.0, SVG Export Plug-In . SVG Version: 6.00 Build 0)  -->
<svg version="1.1" id="图层_1" xmlns="http://www.w3.org/2000/svg" xmlns:xlink="http://www.w3.org/1999/xlink" x="0px" y="0px"
	 viewBox="0 0 343 405" style="enable-background:new 0 0 343 405;" xml:space="preserve">
<style type="text/css">
	.st0{clip-path:url(#SVGID_2_);}
	.st1{filter:url(#Adobe_OpacityMaskFilter);}
	.st2{clip-path:url(#SVGID_4_);fill:url(#SVGID_6_);}
	.st3{clip-path:url(#SVGID_4_);mask:url(#SVGID_5_);fill:url(#SVGID_7_);}
	.st4{filter:url(#Adobe_OpacityMaskFilter_1_);}
	.st5{clip-path:url(#SVGID_9_);fill:url(#SVGID_11_);}
	.st6{clip-path:url(#SVGID_9_);mask:url(#SVGID_10_);fill:url(#SVGID_12_);}
	.st7{filter:url(#Adobe_OpacityMaskFilter_2_);}
	.st8{clip-path:url(#SVGID_14_);fill:url(#SVGID_16_);}
	.st9{clip-path:url(#SVGID_14_);mask:url(#SVGID_15_);fill:url(#SVGID_17_);}
	.st10{opacity:0.79;clip-path:url(#SVGID_19_);}
	.st11{clip-path:url(#SVGID_21_);}
	.st12{filter:url(#Adobe_OpacityMaskFilter_3_);}
	.st13{clip-path:url(#SVGID_23_);fill:url(#SVGID_25_);}
	.st14{clip-path:url(#SVGID_23_);mask:url(#SVGID_24_);fill:url(#SVGID_26_);}
	.st15{filter:url(#Adobe_OpacityMaskFilter_4_);}
	.st16{clip-path:url(#SVGID_28_);fill:url(#SVGID_30_);}
	.st17{clip-path:url(#SVGID_28_);mask:url(#SVGID_29_);fill:url(#SVGID_31_);}
	.st18{opacity:0.77;clip-path:url(#SVGID_33_);}
	.st19{clip-path:url(#SVGID_35_);}
	.st20{filter:url(#Adobe_OpacityMaskFilter_5_);}
	.st21{clip-path:url(#SVGID_37_);fill:url(#SVGID_39_);}
	.st22{clip-path:url(#SVGID_37_);mask:url(#SVGID_38_);fill:url(#SVGID_40_);}
	.st23{clip-path:url(#SVGID_33_);fill:#BDCCD4;}
	.st24{clip-path:url(#SVGID_33_);fill:#AFBDC4;}
	.st25{clip-path:url(#SVGID_33_);fill:#CFDFE8;}
	.st26{clip-path:url(#SVGID_33_);fill:#EB407A;}
	.st27{clip-path:url(#SVGID_33_);fill:#42A4F5;}
	.st28{clip-path:url(#SVGID_33_);fill:#FEC928;}
	.st29{clip-path:url(#SVGID_33_);fill:#66BA6A;}
	.st30{opacity:0.33;clip-path:url(#SVGID_33_);}
	.st31{clip-path:url(#SVGID_42_);}
	.st32{clip-path:url(#SVGID_44_);fill:url(#SVGID_45_);}
	.st33{clip-path:url(#SVGID_33_);fill:#333333;}
	.st34{clip-path:url(#SVGID_33_);fill:#FE8965;}
	.st35{clip-path:url(#SVGID_33_);fill:#FE7043;}
	.st36{clip-path:url(#SVGID_33_);fill:#FEAA90;}
	.st37{clip-path:url(#SVGID_33_);fill:#28B5F5;}
	.st38{clip-path:url(#SVGID_33_);fill:#0287D0;}
	.st39{clip-path:url(#SVGID_33_);fill:#0277BC;}
	.st40{clip-path:url(#SVGID_33_);fill:#EF6291;}
	.st41{clip-path:url(#SVGID_33_);fill:#E81D62;}
	.st42{clip-path:url(#SVGID_33_);fill:#F8BACF;}
	.st43{clip-path:url(#SVGID_33_);fill:#FE9F00;}
	.st44{clip-path:url(#SVGID_33_);fill:#FE6F00;}
	.st45{clip-path:url(#SVGID_33_);fill:#FE8E00;}
</style>
<g>
	<g>
		<defs>
			<rect id="SVGID_1_" y="-4" width="343" height="413.1"/>
		</defs>
		<clipPath id="SVGID_2_">
			<use xlink:href="#SVGID_1_"  style="overflow:visible;"/>
		</clipPath>
		<g class="st0">
			<defs>
				<rect id="SVGID_3_" x="65.9" y="55" width="64.2" height="273.3"/>
			</defs>
			<clipPath id="SVGID_4_">
				<use xlink:href="#SVGID_3_"  style="overflow:visible;"/>
			</clipPath>
			<defs>
				<filter id="Adobe_OpacityMaskFilter" filterUnits="userSpaceOnUse" x="65.9" y="55" width="64.2" height="273.3">
					<feColorMatrix  type="matrix" values="1 0 0 0 0  0 1 0 0 0  0 0 1 0 0  0 0 0 1 0"/>
				</filter>
			</defs>
			<mask maskUnits="userSpaceOnUse" x="65.9" y="55" width="64.2" height="273.3" id="SVGID_5_">
				<g class="st1">
					
						<linearGradient id="SVGID_6_" gradientUnits="userSpaceOnUse" x1="0.1244" y1="244.4301" x2="1.8161" y2="244.4301" gradientTransform="matrix(0 161.5367 161.5367 0 -39386.4102 34.8882)">
						<stop  offset="0" style="stop-color:#000000"/>
						<stop  offset="6.717481e-002" style="stop-color:#050505"/>
						<stop  offset="0.1444" style="stop-color:#131313"/>
						<stop  offset="0.2267" style="stop-color:#2A2A2A"/>
						<stop  offset="0.3124" style="stop-color:#4A4A4A"/>
						<stop  offset="0.4009" style="stop-color:#747474"/>
						<stop  offset="0.4918" style="stop-color:#A7A7A7"/>
						<stop  offset="0.5827" style="stop-color:#E2E2E2"/>
						<stop  offset="0.6242" style="stop-color:#FFFFFF"/>
						<stop  offset="0.6534" style="stop-color:#E2E2E2"/>
						<stop  offset="0.7272" style="stop-color:#9E9E9E"/>
						<stop  offset="0.7972" style="stop-color:#666666"/>
						<stop  offset="0.8615" style="stop-color:#3A3A3A"/>
						<stop  offset="0.9187" style="stop-color:#1A1A1A"/>
						<stop  offset="0.9668" style="stop-color:#070707"/>
						<stop  offset="1" style="stop-color:#000000"/>
					</linearGradient>
					<rect x="65.9" y="55" class="st2" width="64.2" height="273.3"/>
				</g>
			</mask>
			
				<linearGradient id="SVGID_7_" gradientUnits="userSpaceOnUse" x1="0.1244" y1="244.4301" x2="1.8161" y2="244.4301" gradientTransform="matrix(0 161.5367 161.5367 0 -39386.4102 34.8882)">
				<stop  offset="0" style="stop-color:#2194FF"/>
				<stop  offset="0.3883" style="stop-color:#218FFF"/>
				<stop  offset="0.6242" style="stop-color:#2189FF"/>
				<stop  offset="0.6668" style="stop-color:#2184FF"/>
				<stop  offset="0.8634" style="stop-color:#2171FF"/>
				<stop  offset="1" style="stop-color:#216AFF"/>
			</linearGradient>
			<rect x="65.9" y="55" class="st3" width="64.2" height="273.3"/>
		</g>
		<g class="st0">
			<defs>
				<rect id="SVGID_8_" x="199.8" y="13.8" width="40.6" height="393.7"/>
			</defs>
			<clipPath id="SVGID_9_">
				<use xlink:href="#SVGID_8_"  style="overflow:visible;"/>
			</clipPath>
			<defs>
				<filter id="Adobe_OpacityMaskFilter_1_" filterUnits="userSpaceOnUse" x="199.8" y="13.8" width="40.6" height="393.7">
					<feColorMatrix  type="matrix" values="1 0 0 0 0  0 1 0 0 0  0 0 1 0 0  0 0 0 1 0"/>
				</filter>
			</defs>
			<mask maskUnits="userSpaceOnUse" x="199.8" y="13.8" width="40.6" height="393.7" id="SVGID_10_">
				<g class="st4">
					
						<linearGradient id="SVGID_11_" gradientUnits="userSpaceOnUse" x1="1.403968e-002" y1="244.5687" x2="1.7058" y2="244.5687" gradientTransform="matrix(0 232.6985 232.6985 0 -56690.7109 10.5737)">
						<stop  offset="0" style="stop-color:#000000"/>
						<stop  offset="5.680609e-002" style="stop-color:#050505"/>
						<stop  offset="0.1221" style="stop-color:#131313"/>
						<stop  offset="0.1917" style="stop-color:#2A2A2A"/>
						<stop  offset="0.2642" style="stop-color:#4A4A4A"/>
						<stop  offset="0.339" style="stop-color:#747474"/>
						<stop  offset="0.4158" style="stop-color:#A7A7A7"/>
						<stop  offset="0.4928" style="stop-color:#E2E2E2"/>
						<stop  offset="0.5279" style="stop-color:#FFFFFF"/>
						<stop  offset="0.5645" style="stop-color:#E2E2E2"/>
						<stop  offset="0.6573" style="stop-color:#9E9E9E"/>
						<stop  offset="0.7453" style="stop-color:#666666"/>
						<stop  offset="0.8259" style="stop-color:#3A3A3A"/>
						<stop  offset="0.8979" style="stop-color:#1A1A1A"/>
						<stop  offset="0.9583" style="stop-color:#070707"/>
						<stop  offset="1" style="stop-color:#000000"/>
					</linearGradient>
					<rect x="199.8" y="13.8" class="st5" width="40.6" height="393.7"/>
				</g>
			</mask>
			
				<linearGradient id="SVGID_12_" gradientUnits="userSpaceOnUse" x1="1.403968e-002" y1="244.5687" x2="1.7058" y2="244.5687" gradientTransform="matrix(0 232.6985 232.6985 0 -56690.7109 10.5737)">
				<stop  offset="0" style="stop-color:#2194FF"/>
				<stop  offset="0.3283" style="stop-color:#218FFF"/>
				<stop  offset="0.5279" style="stop-color:#2189FF"/>
				<stop  offset="0.5814" style="stop-color:#2184FF"/>
				<stop  offset="0.8284" style="stop-color:#2171FF"/>
				<stop  offset="1" style="stop-color:#216AFF"/>
			</linearGradient>
			<rect x="199.8" y="13.8" class="st6" width="40.6" height="393.7"/>
		</g>
		<g class="st0">
			<defs>
				<rect id="SVGID_13_" x="103.6" y="-4" width="64.2" height="391.9"/>
			</defs>
			<clipPath id="SVGID_14_">
				<use xlink:href="#SVGID_13_"  style="overflow:visible;"/>
			</clipPath>
			<defs>
				<filter id="Adobe_OpacityMaskFilter_2_" filterUnits="userSpaceOnUse" x="103.6" y="-4" width="64.2" height="391.9">
					<feColorMatrix  type="matrix" values="1 0 0 0 0  0 1 0 0 0  0 0 1 0 0  0 0 0 1 0"/>
				</filter>
			</defs>
			<mask maskUnits="userSpaceOnUse" x="103.6" y="-4" width="64.2" height="391.9" id="SVGID_15_">
				<g class="st7">
					
						<linearGradient id="SVGID_16_" gradientUnits="userSpaceOnUse" x1="-1.742462e-002" y1="244.4216" x2="1.6743" y2="244.4216" gradientTransform="matrix(0 231.6348 231.6348 0 -56480.8086 1.380920e-002)">
						<stop  offset="0" style="stop-color:#000000"/>
						<stop  offset="5.680609e-002" style="stop-color:#050505"/>
						<stop  offset="0.1221" style="stop-color:#131313"/>
						<stop  offset="0.1917" style="stop-color:#2A2A2A"/>
						<stop  offset="0.2642" style="stop-color:#4A4A4A"/>
						<stop  offset="0.339" style="stop-color:#747474"/>
						<stop  offset="0.4158" style="stop-color:#A7A7A7"/>
						<stop  offset="0.4928" style="stop-color:#E2E2E2"/>
						<stop  offset="0.5279" style="stop-color:#FFFFFF"/>
						<stop  offset="0.5645" style="stop-color:#E2E2E2"/>
						<stop  offset="0.6573" style="stop-color:#9E9E9E"/>
						<stop  offset="0.7453" style="stop-color:#666666"/>
						<stop  offset="0.8259" style="stop-color:#3A3A3A"/>
						<stop  offset="0.8979" style="stop-color:#1A1A1A"/>
						<stop  offset="0.9583" style="stop-color:#070707"/>
						<stop  offset="1" style="stop-color:#000000"/>
					</linearGradient>
					<rect x="103.6" y="-4" class="st8" width="64.2" height="391.9"/>
				</g>
			</mask>
			
				<linearGradient id="SVGID_17_" gradientUnits="userSpaceOnUse" x1="-1.742462e-002" y1="244.4216" x2="1.6743" y2="244.4216" gradientTransform="matrix(0 231.6348 231.6348 0 -56480.8086 1.380920e-002)">
				<stop  offset="0" style="stop-color:#21FFFF"/>
				<stop  offset="0.1672" style="stop-color:#21FAFF"/>
				<stop  offset="0.36" style="stop-color:#21ECFF"/>
				<stop  offset="0.5279" style="stop-color:#21DAFF"/>
				<stop  offset="0.6295" style="stop-color:#21E5FF"/>
				<stop  offset="0.8478" style="stop-color:#21F8FF"/>
				<stop  offset="1" style="stop-color:#21FFFF"/>
			</linearGradient>
			<rect x="103.6" y="-4" class="st9" width="64.2" height="391.9"/>
		</g>
		<g class="st0">
			<defs>
				<rect id="SVGID_18_" y="-4" width="343" height="413.1"/>
			</defs>
			<clipPath id="SVGID_19_">
				<use xlink:href="#SVGID_18_"  style="overflow:visible;"/>
			</clipPath>
			<g class="st10">
				<g>
					<defs>
						<rect id="SVGID_20_" x="282.2" y="-4" width="12.3" height="391.9"/>
					</defs>
					<clipPath id="SVGID_21_">
						<use xlink:href="#SVGID_20_"  style="overflow:visible;"/>
					</clipPath>
					<g class="st11">
						<defs>
							<rect id="SVGID_22_" x="282.2" y="-4" width="12.3" height="391.9"/>
						</defs>
						<clipPath id="SVGID_23_">
							<use xlink:href="#SVGID_22_"  style="overflow:visible;"/>
						</clipPath>
						<defs>
							<filter id="Adobe_OpacityMaskFilter_3_" filterUnits="userSpaceOnUse" x="282.2" y="-4" width="12.3" height="391.9">
								<feColorMatrix  type="matrix" values="1 0 0 0 0  0 1 0 0 0  0 0 1 0 0  0 0 0 1 0"/>
							</filter>
						</defs>
						<mask maskUnits="userSpaceOnUse" x="282.2" y="-4" width="12.3" height="391.9" id="SVGID_24_">
							<g class="st12">
								
									<linearGradient id="SVGID_25_" gradientUnits="userSpaceOnUse" x1="-1.746679e-002" y1="244.6911" x2="1.6743" y2="244.6911" gradientTransform="matrix(0 231.6349 231.6349 0 -56390.5977 -9.155273e-005)">
									<stop  offset="0" style="stop-color:#000000"/>
									<stop  offset="5.680609e-002" style="stop-color:#050505"/>
									<stop  offset="0.1221" style="stop-color:#131313"/>
									<stop  offset="0.1917" style="stop-color:#2A2A2A"/>
									<stop  offset="0.2642" style="stop-color:#4A4A4A"/>
									<stop  offset="0.339" style="stop-color:#747474"/>
									<stop  offset="0.4158" style="stop-color:#A7A7A7"/>
									<stop  offset="0.4928" style="stop-color:#E2E2E2"/>
									<stop  offset="0.5279" style="stop-color:#FFFFFF"/>
									<stop  offset="0.5645" style="stop-color:#E2E2E2"/>
									<stop  offset="0.6573" style="stop-color:#9E9E9E"/>
									<stop  offset="0.7453" style="stop-color:#666666"/>
									<stop  offset="0.8259" style="stop-color:#3A3A3A"/>
									<stop  offset="0.8979" style="stop-color:#1A1A1A"/>
									<stop  offset="0.9583" style="stop-color:#070707"/>
									<stop  offset="1" style="stop-color:#000000"/>
								</linearGradient>
								<rect x="282.2" y="-4" class="st13" width="12.3" height="391.9"/>
							</g>
						</mask>
						
							<linearGradient id="SVGID_26_" gradientUnits="userSpaceOnUse" x1="-1.746679e-002" y1="244.6911" x2="1.6743" y2="244.6911" gradientTransform="matrix(0 231.6349 231.6349 0 -56390.5977 -9.155273e-005)">
							<stop  offset="0" style="stop-color:#21FFFF"/>
							<stop  offset="0.1672" style="stop-color:#21FAFF"/>
							<stop  offset="0.36" style="stop-color:#21ECFF"/>
							<stop  offset="0.5279" style="stop-color:#21DAFF"/>
							<stop  offset="0.6295" style="stop-color:#21E5FF"/>
							<stop  offset="0.8478" style="stop-color:#21F8FF"/>
							<stop  offset="1" style="stop-color:#21FFFF"/>
						</linearGradient>
						<rect x="282.2" y="-4" class="st14" width="12.3" height="391.9"/>
					</g>
				</g>
			</g>
		</g>
		<g class="st0">
			<defs>
				<rect id="SVGID_27_" x="229.5" y="50.5" width="40.9" height="329.3"/>
			</defs>
			<clipPath id="SVGID_28_">
				<use xlink:href="#SVGID_27_"  style="overflow:visible;"/>
			</clipPath>
			<defs>
				<filter id="Adobe_OpacityMaskFilter_4_" filterUnits="userSpaceOnUse" x="229.5" y="50.5" width="40.9" height="329.3">
					<feColorMatrix  type="matrix" values="1 0 0 0 0  0 1 0 0 0  0 0 1 0 0  0 0 0 1 0"/>
				</filter>
			</defs>
			<mask maskUnits="userSpaceOnUse" x="229.5" y="50.5" width="40.9" height="329.3" id="SVGID_29_">
				<g class="st15">
					
						<linearGradient id="SVGID_30_" gradientUnits="userSpaceOnUse" x1="9.380002e-002" y1="244.707" x2="1.7855" y2="244.707" gradientTransform="matrix(0 194.6656 194.6656 0 -47386.1094 32.2461)">
						<stop  offset="0" style="stop-color:#000000"/>
						<stop  offset="4.772850e-002" style="stop-color:#0D0D0D"/>
						<stop  offset="0.1367" style="stop-color:#313131"/>
						<stop  offset="0.2574" style="stop-color:#6A6A6A"/>
						<stop  offset="0.4033" style="stop-color:#B7B7B7"/>
						<stop  offset="0.5279" style="stop-color:#FFFFFF"/>
						<stop  offset="0.5645" style="stop-color:#E2E2E2"/>
						<stop  offset="0.6573" style="stop-color:#9E9E9E"/>
						<stop  offset="0.7453" style="stop-color:#666666"/>
						<stop  offset="0.8259" style="stop-color:#3A3A3A"/>
						<stop  offset="0.8979" style="stop-color:#1A1A1A"/>
						<stop  offset="0.9583" style="stop-color:#070707"/>
						<stop  offset="1" style="stop-color:#000000"/>
					</linearGradient>
					<rect x="229.5" y="50.5" class="st16" width="40.9" height="329.3"/>
				</g>
			</mask>
			
				<linearGradient id="SVGID_31_" gradientUnits="userSpaceOnUse" x1="9.380014e-002" y1="244.707" x2="1.7855" y2="244.707" gradientTransform="matrix(0 194.6656 194.6656 0 -47386.1016 32.2461)">
				<stop  offset="0" style="stop-color:#FF00A1"/>
				<stop  offset="0.1493" style="stop-color:#FF0DA4"/>
				<stop  offset="0.4253" style="stop-color:#FF30AB"/>
				<stop  offset="0.5279" style="stop-color:#FF3EAE"/>
				<stop  offset="0.5497" style="stop-color:#FF3AAD"/>
				<stop  offset="0.7354" style="stop-color:#FF1AA7"/>
				<stop  offset="0.892" style="stop-color:#FF07A2"/>
				<stop  offset="1" style="stop-color:#FF00A1"/>
			</linearGradient>
			<rect x="229.5" y="50.5" class="st17" width="40.9" height="329.3"/>
		</g>
		<g class="st0">
			<defs>
				<rect id="SVGID_32_" y="-4" width="343" height="413.1"/>
			</defs>
			<clipPath id="SVGID_33_">
				<use xlink:href="#SVGID_32_"  style="overflow:visible;"/>
			</clipPath>
			<g class="st18">
				<g>
					<defs>
						<rect id="SVGID_34_" x="41.3" y="37.6" width="9.1" height="371.5"/>
					</defs>
					<clipPath id="SVGID_35_">
						<use xlink:href="#SVGID_34_"  style="overflow:visible;"/>
					</clipPath>
					<g class="st19">
						<defs>
							<rect id="SVGID_36_" x="41.3" y="37.6" width="9.1" height="371.5"/>
						</defs>
						<clipPath id="SVGID_37_">
							<use xlink:href="#SVGID_36_"  style="overflow:visible;"/>
						</clipPath>
						<defs>
							<filter id="Adobe_OpacityMaskFilter_5_" filterUnits="userSpaceOnUse" x="41.3" y="37.6" width="9.1" height="371.5">
								<feColorMatrix  type="matrix" values="1 0 0 0 0  0 1 0 0 0  0 0 1 0 0  0 0 0 1 0"/>
							</filter>
						</defs>
						<mask maskUnits="userSpaceOnUse" x="41.3" y="37.6" width="9.1" height="371.5" id="SVGID_38_">
							<g class="st20">
								
									<linearGradient id="SVGID_39_" gradientUnits="userSpaceOnUse" x1="5.911847e-002" y1="244.2673" x2="1.7509" y2="244.2673" gradientTransform="matrix(0 219.5681 219.5681 0 -53587.4922 24.6139)">
									<stop  offset="0" style="stop-color:#000000"/>
									<stop  offset="4.772850e-002" style="stop-color:#0D0D0D"/>
									<stop  offset="0.1367" style="stop-color:#313131"/>
									<stop  offset="0.2574" style="stop-color:#6A6A6A"/>
									<stop  offset="0.4033" style="stop-color:#B7B7B7"/>
									<stop  offset="0.5279" style="stop-color:#FFFFFF"/>
									<stop  offset="0.5645" style="stop-color:#E2E2E2"/>
									<stop  offset="0.6573" style="stop-color:#9E9E9E"/>
									<stop  offset="0.7453" style="stop-color:#666666"/>
									<stop  offset="0.8259" style="stop-color:#3A3A3A"/>
									<stop  offset="0.8979" style="stop-color:#1A1A1A"/>
									<stop  offset="0.9583" style="stop-color:#070707"/>
									<stop  offset="1" style="stop-color:#000000"/>
								</linearGradient>
								<rect x="41.3" y="37.6" class="st21" width="9.1" height="371.5"/>
							</g>
						</mask>
						
							<linearGradient id="SVGID_40_" gradientUnits="userSpaceOnUse" x1="5.911837e-002" y1="244.2673" x2="1.7509" y2="244.2673" gradientTransform="matrix(0 219.5681 219.5681 0 -53587.5 24.6139)">
							<stop  offset="0" style="stop-color:#FF00A1"/>
							<stop  offset="0.1493" style="stop-color:#FF0DA4"/>
							<stop  offset="0.4253" style="stop-color:#FF30AB"/>
							<stop  offset="0.5279" style="stop-color:#FF3EAE"/>
							<stop  offset="0.5497" style="stop-color:#FF3AAD"/>
							<stop  offset="0.7354" style="stop-color:#FF1AA7"/>
							<stop  offset="0.892" style="stop-color:#FF07A2"/>
							<stop  offset="1" style="stop-color:#FF00A1"/>
						</linearGradient>
						<rect x="41.3" y="37.6" class="st22" width="9.1" height="371.5"/>
					</g>
				</g>
			</g>
			<path class="st23" d="M221.6,225.9h63.6v-8.7c0-1.7-1.4-3.1-3.1-3.1h-57.3c-1.7,0-3.1,1.4-3.1,3.1V225.9z"/>
			<path class="st23" d="M121.4,225.9H57.8v-8.7c0-1.7,1.4-3.1,3.1-3.1h57.3c1.7,0,3.1,1.4,3.1,3.1V225.9z"/>
			<path class="st24" d="M341.8,333.4L317,244c-3.9-14.2-16.9-24.1-31.6-24.1h-62.7c-8.4,0-16.5,3.3-22.4,9.3s-14,9.3-22.4,9.3
				h-12.7c-8.4,0-16.5-3.3-22.4-9.3c-5.9-5.9-14-9.3-22.4-9.3H57.7c-14.8,0-27.7,9.8-31.6,24.1L1.2,333.4
				c-4.1,14.8,2.5,30.5,15.9,38h0c13,7.2,29.2,4.9,39.7-5.6l56.7-56.7h115.9l56.7,56.7c10.5,10.5,26.7,12.8,39.7,5.6
				C339.3,363.9,345.9,348.2,341.8,333.4"/>
			<path class="st23" d="M309.7,346.2c-4.4,0-8.5-1.7-11.6-4.8l-56.7-56.7c-3.2-3.2-7.5-5-12-5H113.5c-4.5,0-8.8,1.8-12,5
				l-56.7,56.7c-3.1,3.1-7.2,4.8-11.6,4.8c-2.8,0-5.5-0.7-7.9-2.1c-6.6-3.7-9.9-11.4-7.8-18.7l24.8-89.4c1.9-6.9,8.2-11.7,15.3-11.7
				h62.7c3.9,0,7.6,1.5,10.4,4.3c9.2,9.2,21.4,14.2,34.4,14.2h12.7c13,0,25.2-5.1,34.4-14.2c2.8-2.8,6.5-4.3,10.4-4.3h62.7
				c7.1,0,13.4,4.8,15.3,11.7l24.8,89.4c2,7.3-1.2,15-7.8,18.7C315.2,345.5,312.5,346.2,309.7,346.2"/>
			<path class="st25" d="M253.4,262.7c-6.4-6.4-14.9-9.9-23.9-9.9H113.5c-9,0-17.5,3.5-23.9,9.9l-55.2,55.2l24-86.6h61.1
				c12.3,12,28.5,18.6,45.7,18.6h12.7c17.2,0,33.4-6.6,45.7-18.6h61.1l24,86.6L253.4,262.7z"/>
			<path class="st26" d="M274,243.1c0,5-4.1,9.1-9.1,9.1c-5,0-9.1-4.1-9.1-9.1c0-5,4.1-9.1,9.1-9.1C270,234,274,238.1,274,243.1"/>
			<path class="st27" d="M274,288.3c0,5-4.1,9.1-9.1,9.1c-5,0-9.1-4.1-9.1-9.1c0-5,4.1-9.1,9.1-9.1C270,279.2,274,283.3,274,288.3"
				/>
			<path class="st28" d="M287.5,274.8c-5,0-9.1-4.1-9.1-9.1c0-5,4.1-9.1,9.1-9.1s9.1,4.1,9.1,9.1
				C296.6,270.7,292.6,274.8,287.5,274.8"/>
			<path class="st29" d="M242.4,274.8c-5,0-9.1-4.1-9.1-9.1c0-5,4.1-9.1,9.1-9.1c5,0,9.1,4.1,9.1,9.1
				C251.5,270.7,247.4,274.8,242.4,274.8"/>
			<g class="st30">
				<g>
					<defs>
						<rect id="SVGID_41_" x="50.9" y="234" width="56" height="56"/>
					</defs>
					<clipPath id="SVGID_42_">
						<use xlink:href="#SVGID_41_"  style="overflow:visible;"/>
					</clipPath>
					<g class="st31">
						<defs>
							<path id="SVGID_43_" d="M106.9,262c0,15.5-12.5,28-28,28c-15.5,0-28-12.5-28-28c0-15.5,12.5-28,28-28
								C94.3,234,106.9,246.5,106.9,262"/>
						</defs>
						<clipPath id="SVGID_44_">
							<use xlink:href="#SVGID_43_"  style="overflow:visible;"/>
						</clipPath>
						
							<linearGradient id="SVGID_45_" gradientUnits="userSpaceOnUse" x1="1.6235" y1="242.9691" x2="3.3152" y2="242.9691" gradientTransform="matrix(29.8751 29.8751 29.8751 -29.8751 -7277.2261 7423.3091)">
							<stop  offset="0" style="stop-color:#4D4D4D"/>
							<stop  offset="1" style="stop-color:#231815"/>
						</linearGradient>
						<polygon class="st32" points="78.9,206 134.9,262 78.9,317.9 22.9,262 						"/>
					</g>
				</g>
			</g>
			<path class="st33" d="M86,252.4v-11.2c0-1.5-1.2-2.7-2.7-2.7h-9c-1.5,0-2.7,1.2-2.7,2.7v11.2c0,1.5-1.2,2.7-2.7,2.7H57.5
				c-1.5,0-2.7,1.2-2.7,2.7v9c0,1.5,1.2,2.7,2.7,2.7h11.2c1.5,0,2.7,1.2,2.7,2.7v11.2c0,1.5,1.2,2.7,2.7,2.7h9
				c1.5,0,2.7-1.2,2.7-2.7v-11.2c0-1.5,1.2-2.7,2.7-2.7h11.2c1.5,0,2.7-1.2,2.7-2.7v-9c0-1.5-1.2-2.7-2.7-2.7H88.7
				C87.2,255.1,86,253.9,86,252.4"/>
			<rect x="264.2" y="145.7" class="st34" width="22.6" height="23.1"/>
			<polygon class="st35" points="286.8,145.7 293.9,138.7 293.9,162.2 286.8,168.8 			"/>
			<polygon class="st36" points="286.8,145.7 264.2,145.7 272.1,138.7 293.9,138.7 			"/>
			<rect x="179.4" y="125.3" class="st37" width="15.1" height="27.4"/>
			<polygon class="st38" points="194.5,125.3 199.2,120.6 199.2,148.3 194.5,152.7 			"/>
			<polygon class="st39" points="194.5,125.3 179.4,125.3 184.6,120.6 199.2,120.6 			"/>
			<rect x="108.1" y="105.7" class="st37" width="9.7" height="8.7"/>
			<polygon class="st38" points="117.7,105.7 120.8,102.7 120.8,111.6 117.7,114.4 			"/>
			<polygon class="st39" points="117.7,105.7 108.1,105.7 111.4,102.7 120.8,102.7 			"/>
			<rect x="118.1" y="342.7" class="st34" width="22.6" height="23.1"/>
			<polygon class="st35" points="140.7,342.7 147.7,335.6 147.7,359.1 140.7,365.8 			"/>
			<polygon class="st36" points="140.7,342.7 118.1,342.7 125.9,335.6 147.7,335.6 			"/>
			<rect x="212.6" y="366.3" class="st34" width="16.9" height="17.2"/>
			<polygon class="st35" points="229.5,366.3 234.8,361.1 234.8,378.6 229.5,383.5 			"/>
			<polygon class="st36" points="229.5,366.3 212.6,366.3 218.5,361.1 234.8,361.1 			"/>
			<rect x="55.3" y="153.7" class="st40" width="19" height="19.4"/>
			<polygon class="st41" points="74.3,153.7 80.3,147.8 80.3,167.5 74.3,173.1 			"/>
			<polygon class="st42" points="74.3,153.7 55.3,153.7 61.9,147.8 80.3,147.8 			"/>
			<rect x="231.7" y="101.1" class="st40" width="11" height="11.3"/>
			<polygon class="st41" points="242.7,101.1 246.2,97.6 246.2,109.1 242.7,112.3 			"/>
			<polygon class="st42" points="242.7,101.1 231.7,101.1 235.5,97.6 246.2,97.6 			"/>
			<rect x="133.8" y="169.1" class="st43" width="8.4" height="25.8"/>
			<polygon class="st44" points="142.2,169.1 144.9,166.5 144.9,192.4 142.2,194.9 			"/>
			<polygon class="st45" points="142.2,169.1 133.8,169.1 136.8,166.5 144.9,166.5 			"/>
			<rect x="226.2" y="182.1" class="st43" width="18.5" height="12.8"/>
			<polygon class="st44" points="244.6,182.1 250.4,176.4 250.4,189.6 244.6,195 			"/>
			<polygon class="st45" points="244.6,182.1 226.2,182.1 232.6,176.4 250.4,176.4 			"/>
		</g>
	</g>
</g>
</svg>
