<?xml version="1.0" encoding="utf-8"?>
<!-- Generator: Adobe Illustrator 19.0.0, SVG Export Plug-In . SVG Version: 6.00 Build 0)  -->
<svg version="1.1" id="图层_1" xmlns="http://www.w3.org/2000/svg" xmlns:xlink="http://www.w3.org/1999/xlink" x="0px" y="0px"
	 viewBox="0 0 100 100" style="enable-background:new 0 0 100 100;" xml:space="preserve">
<style type="text/css">
	.st0{fill:#EDEFF1;}
	.st1{fill:#D3D4D4;}
	.st2{fill:#F05540;}
	.st3{fill:#F3705A;}
	.st4{fill:#415A6B;}
	.st5{fill:#E5352C;}
</style>
<g id="XMLID_1_">
	<path id="XMLID_23_" class="st0" d="M50,99.5C22.7,99.5,0.5,77.3,0.5,50C0.5,22.7,22.7,0.5,50,0.5c27.3,0,49.5,22.2,49.5,49.5
		C99.5,77.3,77.3,99.5,50,99.5z"/>
	<path id="XMLID_20_" class="st1" d="M50,1c27,0,49,22,49,49S77,99,50,99S1,77,1,50S23,1,50,1 M50,0C22.4,0,0,22.4,0,50
		s22.4,50,50,50s50-22.4,50-50S77.6,0,50,0L50,0z"/>
</g>
<g id="XMLID_7_">
	<path id="SVGCleanerId_0" class="st2" d="M50,23.6L50,23.6c-14.3,0-25.8,11.6-25.8,25.9v11.5h51.6V49.4
		C75.8,35.2,64.3,23.6,50,23.6z"/>
	<g id="XMLID_48_">
		<path id="SVGCleanerId_0_1_" class="st2" d="M50,23.6L50,23.6c-14.3,0-25.8,11.6-25.8,25.9v11.5h51.6V49.4
			C75.8,35.2,64.3,23.6,50,23.6z"/>
	</g>
	<path id="XMLID_6_" class="st3" d="M77,45.2v23.4c0,2.5-2,4.4-4.4,4.4H27.4c-2.5,0-4.4-2-4.4-4.4V45.2c0-2.5,2-4.4,4.4-4.4l0,0
		c2.5,0,4.4,2,4.4,4.4v15.8h36.3V45.2c0-2.5,2-4.4,4.4-4.4l0,0C75,40.8,77,42.7,77,45.2z"/>
	<g id="XMLID_44_">
		<polygon id="XMLID_5_" class="st4" points="33,76.4 28.3,76.4 28.3,73 34.7,73 		"/>
		<polygon id="XMLID_4_" class="st4" points="67,76.4 71.7,76.4 71.7,73 65.3,73 		"/>
	</g>
	<g id="XMLID_41_">
		<path id="XMLID_3_" class="st5" d="M50,60.9H31.8v-5.4h16c1.2,0,2.3,1,2.3,2.3V60.9z"/>
		<path id="XMLID_2_" class="st5" d="M68.2,60.9H50v-3.2c0-1.2,1-2.3,2.3-2.3h16V60.9z"/>
	</g>
</g>
</svg>
