<?xml version="1.0" encoding="utf-8"?>
<!-- Generator: Adobe Illustrator 19.0.0, SVG Export Plug-In . SVG Version: 6.00 Build 0)  -->
<svg version="1.1" id="图层_1" xmlns="http://www.w3.org/2000/svg" xmlns:xlink="http://www.w3.org/1999/xlink" x="0px" y="0px"
	 viewBox="0 0 122 118" style="enable-background:new 0 0 122 118;" xml:space="preserve">
<style type="text/css">
	.st0{fill:#2B0101;}
	.st1{fill:#350404;}
	.st2{clip-path:url(#SVGID_2_);fill:#230202;}
	.st3{clip-path:url(#SVGID_2_);fill:#A02F05;}
	.st4{clip-path:url(#SVGID_2_);fill:#8C2809;}
	.st5{clip-path:url(#SVGID_2_);fill:#360000;}
	.st6{clip-path:url(#SVGID_2_);fill:#680001;}
	.st7{clip-path:url(#SVGID_4_);fill:none;stroke:#2B0101;stroke-width:2.716;stroke-miterlimit:10;}
	.st8{clip-path:url(#SVGID_6_);fill:none;stroke:#2B0101;stroke-width:2.716;stroke-miterlimit:10;}
	.st9{clip-path:url(#SVGID_8_);fill:#FDBB00;}
	.st10{clip-path:url(#SVGID_8_);fill:#FFD85C;}
	.st11{clip-path:url(#SVGID_10_);fill:#FBCC1C;}
	
		.st12{clip-path:url(#SVGID_12_);fill:none;stroke:#FFFCFF;stroke-width:2.23;stroke-linecap:round;stroke-linejoin:round;stroke-miterlimit:10;}
	.st13{clip-path:url(#SVGID_12_);fill:#FDBB00;}
	.st14{clip-path:url(#SVGID_12_);fill:#FFD85C;}
	.st15{clip-path:url(#SVGID_14_);fill:#FBCC1C;}
	
		.st16{clip-path:url(#SVGID_16_);fill:none;stroke:#FFFCFF;stroke-width:2.23;stroke-linecap:round;stroke-linejoin:round;stroke-miterlimit:10;}
	.st17{clip-path:url(#SVGID_16_);fill:#FDBB00;}
	.st18{clip-path:url(#SVGID_16_);fill:#FFD85C;}
	.st19{clip-path:url(#SVGID_18_);fill:#FBCC1C;}
	
		.st20{clip-path:url(#SVGID_20_);fill:none;stroke:#FFFCFF;stroke-width:2.23;stroke-linecap:round;stroke-linejoin:round;stroke-miterlimit:10;}
	.st21{clip-path:url(#SVGID_20_);fill:#FDBB00;}
	.st22{clip-path:url(#SVGID_20_);fill:#FFD85C;}
	.st23{clip-path:url(#SVGID_22_);fill:#FBCC1C;}
	
		.st24{clip-path:url(#SVGID_24_);fill:none;stroke:#FFFCFF;stroke-width:2.23;stroke-linecap:round;stroke-linejoin:round;stroke-miterlimit:10;}
	.st25{clip-path:url(#SVGID_24_);fill:#FDBB00;}
	.st26{clip-path:url(#SVGID_24_);fill:#FFD85C;}
	.st27{clip-path:url(#SVGID_26_);fill:#FBCC1C;}
	
		.st28{clip-path:url(#SVGID_28_);fill:none;stroke:#FFFCFF;stroke-width:2.23;stroke-linecap:round;stroke-linejoin:round;stroke-miterlimit:10;}
	.st29{clip-path:url(#SVGID_28_);fill:#FDBB00;}
	.st30{clip-path:url(#SVGID_28_);fill:#FFD85C;}
	.st31{clip-path:url(#SVGID_30_);fill:#FBCC1C;}
	
		.st32{clip-path:url(#SVGID_32_);fill:none;stroke:#FFFCFF;stroke-width:2.23;stroke-linecap:round;stroke-linejoin:round;stroke-miterlimit:10;}
	.st33{clip-path:url(#SVGID_32_);fill:#FDBB00;}
	.st34{clip-path:url(#SVGID_32_);fill:#FFD85C;}
	.st35{clip-path:url(#SVGID_34_);fill:#FBCC1C;}
	
		.st36{clip-path:url(#SVGID_36_);fill:none;stroke:#FFFCFF;stroke-width:2.23;stroke-linecap:round;stroke-linejoin:round;stroke-miterlimit:10;}
	.st37{clip-path:url(#SVGID_36_);fill:#FDBB00;}
	.st38{clip-path:url(#SVGID_36_);fill:#FFD85C;}
	.st39{clip-path:url(#SVGID_38_);fill:#FBCC1C;}
	
		.st40{clip-path:url(#SVGID_40_);fill:none;stroke:#FFFCFF;stroke-width:2.23;stroke-linecap:round;stroke-linejoin:round;stroke-miterlimit:10;}
	.st41{clip-path:url(#SVGID_40_);fill:#FDBB00;}
	.st42{clip-path:url(#SVGID_40_);fill:#FFD85C;}
	.st43{clip-path:url(#SVGID_42_);fill:#FBCC1C;}
	
		.st44{clip-path:url(#SVGID_44_);fill:none;stroke:#FFFCFF;stroke-width:2.23;stroke-linecap:round;stroke-linejoin:round;stroke-miterlimit:10;}
	.st45{clip-path:url(#SVGID_44_);fill:#EB8E1C;}
	.st46{clip-path:url(#SVGID_44_);fill:#FDBB00;}
	.st47{clip-path:url(#SVGID_44_);fill:#FFD85C;}
	.st48{clip-path:url(#SVGID_46_);fill:#FBCC1C;}
	
		.st49{clip-path:url(#SVGID_48_);fill:none;stroke:#FFFCFF;stroke-width:1.166;stroke-linecap:round;stroke-linejoin:round;stroke-miterlimit:10;}
	.st50{clip-path:url(#SVGID_48_);fill:#EB8E1C;}
	.st51{clip-path:url(#SVGID_48_);fill:#FDBB00;}
	.st52{clip-path:url(#SVGID_48_);fill:#FFD85C;}
	.st53{clip-path:url(#SVGID_50_);fill:#FBCC1C;}
	
		.st54{clip-path:url(#SVGID_52_);fill:none;stroke:#FFFCFF;stroke-width:2.168;stroke-linecap:round;stroke-linejoin:round;stroke-miterlimit:10;}
	.st55{clip-path:url(#SVGID_52_);fill:#EB8E1C;}
	.st56{clip-path:url(#SVGID_52_);fill:#FDBB00;}
	.st57{clip-path:url(#SVGID_52_);fill:#FFD85C;}
	.st58{clip-path:url(#SVGID_54_);fill:#FBCC1C;}
	
		.st59{clip-path:url(#SVGID_56_);fill:none;stroke:#FFFCFF;stroke-width:2.109;stroke-linecap:round;stroke-linejoin:round;stroke-miterlimit:10;}
	.st60{clip-path:url(#SVGID_56_);fill:#FDBB00;}
	.st61{clip-path:url(#SVGID_56_);fill:#FFD85C;}
	.st62{clip-path:url(#SVGID_58_);fill:#FBCC1C;}
	
		.st63{clip-path:url(#SVGID_60_);fill:none;stroke:#FFFCFF;stroke-width:2.23;stroke-linecap:round;stroke-linejoin:round;stroke-miterlimit:10;}
	.st64{clip-path:url(#SVGID_60_);fill:#A02F05;}
	.st65{clip-path:url(#SVGID_60_);fill:#480101;}
	.st66{clip-path:url(#SVGID_60_);fill:#881A03;}
	.st67{clip-path:url(#SVGID_62_);fill:none;stroke:#2B0101;stroke-width:2.716;stroke-miterlimit:10;}
	.st68{clip-path:url(#SVGID_64_);fill:#A02F05;}
	.st69{clip-path:url(#SVGID_64_);fill:#360000;}
	.st70{clip-path:url(#SVGID_64_);fill:#8C2809;}
	.st71{clip-path:url(#SVGID_64_);fill:#881A03;}
	.st72{clip-path:url(#SVGID_66_);fill:none;stroke:#2B0101;stroke-width:2.716;stroke-miterlimit:10;}
	.st73{clip-path:url(#SVGID_68_);fill:#FFFFFA;}
	.st74{clip-path:url(#SVGID_68_);fill:#EB8E1C;}
	.st75{clip-path:url(#SVGID_68_);fill:#FDBB00;}
	.st76{clip-path:url(#SVGID_68_);fill:#FFD85C;}
	.st77{clip-path:url(#SVGID_70_);fill:#FBCC1C;}
	
		.st78{clip-path:url(#SVGID_72_);fill:none;stroke:#FFFCFF;stroke-width:1.568;stroke-linecap:round;stroke-linejoin:round;stroke-miterlimit:10;}
	.st79{clip-path:url(#SVGID_72_);fill:#EB8E1C;}
	.st80{clip-path:url(#SVGID_72_);fill:#FDBB00;}
	.st81{clip-path:url(#SVGID_72_);fill:#FFD85C;}
	.st82{clip-path:url(#SVGID_74_);fill:#FBCC1C;}
	
		.st83{clip-path:url(#SVGID_76_);fill:none;stroke:#FFFCFF;stroke-width:1.907;stroke-linecap:round;stroke-linejoin:round;stroke-miterlimit:10;}
</style>
<polygon class="st0" points="107.5,53.3 43.2,50.2 15.1,55.9 84.8,60.5 "/>
<polygon class="st1" points="43.2,50.2 107.5,53.3 87.8,30.2 27.6,26.2 "/>
<g>
	<defs>
		<rect id="SVGID_1_" x="0.3" y="0" width="121.5" height="118"/>
	</defs>
	<clipPath id="SVGID_2_">
		<use xlink:href="#SVGID_1_"  style="overflow:visible;"/>
	</clipPath>
	<path class="st2" d="M43.2,50.2l-15.6-24c0,0,14-22.7,21-7.9C55.7,33.1,43.2,50.2,43.2,50.2"/>
	<path class="st3" d="M87.8,30.2l-60.2-4c0,0,2.5-12.8,16.5-12.8l56.7,4.9L87.8,30.2z"/>
	<path class="st4" d="M107.5,53.3L87.8,30.2c0,0,9.4-21.3,21-6.7C117.4,34.3,107.5,53.3,107.5,53.3"/>
	<path class="st5" d="M106.8,48.5l-15.3-18c0,0,7.1-16.2,16.1-4.9C113.7,33.3,106.8,48.5,106.8,48.5"/>
	<path class="st6" d="M32.4,23.8l52.9,3.5c0,0,4.8-9.4,10.9-9.4l-48.1-4.3C48.1,13.6,35.4,13.6,32.4,23.8"/>
</g>
<g>
	<defs>
		<path id="SVGID_3_" d="M91.5,30.5l15.3,18c0,0,6.9-15.1,0.8-22.8c-2.3-2.9-4.5-4-6.5-4C95.3,21.6,91.5,30.5,91.5,30.5"/>
	</defs>
	<clipPath id="SVGID_4_">
		<use xlink:href="#SVGID_3_"  style="overflow:visible;"/>
	</clipPath>
	<line class="st7" x1="93.2" y1="24.9" x2="110.4" y2="43.2"/>
	<line class="st7" x1="97.7" y1="20.2" x2="114.9" y2="38.5"/>
</g>
<g>
	<defs>
		<path id="SVGID_5_" d="M32.4,23.8l52.9,3.5c0,0,4.8-9.4,10.9-9.4l-48.1-4.3c0,0,0,0,0,0C47.9,13.6,35.3,13.7,32.4,23.8"/>
	</defs>
	<clipPath id="SVGID_6_">
		<use xlink:href="#SVGID_5_"  style="overflow:visible;"/>
	</clipPath>
	<line class="st8" x1="33.8" y1="17.6" x2="90.4" y2="21.8"/>
</g>
<g>
	<defs>
		<rect id="SVGID_7_" x="0.3" y="0" width="121.5" height="118"/>
	</defs>
	<clipPath id="SVGID_8_">
		<use xlink:href="#SVGID_7_"  style="overflow:visible;"/>
	</clipPath>
	<path class="st9" d="M74.7,61c-3.9,1.7-8.4-0.1-10-4c-1.7-3.9,0.1-8.4,4-10c3.9-1.7,8.4,0.1,10,4C80.4,54.9,78.6,59.4,74.7,61"/>
	<path class="st10" d="M69.5,48.8c-2.9,1.2-4.2,4.5-3,7.4c1.2,2.9,4.5,4.2,7.4,3c2.9-1.2,4.2-4.5,3-7.4
		C75.7,48.9,72.4,47.6,69.5,48.8"/>
</g>
<g>
	<defs>
		<path id="SVGID_9_" d="M69.5,48.8c-2.9,1.2-4.2,4.5-3,7.4c1.2,2.9,4.5,4.2,7.4,3c2.9-1.2,4.2-4.5,3-7.4c-0.9-2.1-3-3.4-5.2-3.4
			C71,48.4,70.2,48.5,69.5,48.8"/>
	</defs>
	<clipPath id="SVGID_10_">
		<use xlink:href="#SVGID_9_"  style="overflow:visible;"/>
	</clipPath>
	<path class="st11" d="M68,59.6l7.4-11.3c0,0,5.1,4.5,1.9,9C74.1,61.8,68,59.6,68,59.6"/>
</g>
<g>
	<defs>
		<rect id="SVGID_11_" x="0.3" y="0" width="121.5" height="118"/>
	</defs>
	<clipPath id="SVGID_12_">
		<use xlink:href="#SVGID_11_"  style="overflow:visible;"/>
	</clipPath>
	<line class="st12" x1="69.8" y1="60.3" x2="70.7" y2="60.5"/>
	<path class="st12" d="M71.1,47.4c0,0,1.4-0.4,2.8,0.5"/>
	<path class="st13" d="M81.8,56.3c-0.2-4.2,3-7.8,7.3-8c4.2-0.2,7.8,3,8,7.3c0.2,4.2-3,7.8-7.3,8C85.5,63.8,82,60.5,81.8,56.3"/>
	<path class="st14" d="M95,55.6c-0.2-3.1-2.8-5.5-5.9-5.3c-3.1,0.2-5.5,2.8-5.3,5.9c0.2,3.1,2.8,5.5,5.9,5.3
		C92.8,61.4,95.1,58.7,95,55.6"/>
</g>
<g>
	<defs>
		<path id="SVGID_13_" d="M89.1,50.3c-3.1,0.2-5.5,2.8-5.3,5.9c0.2,3.1,2.8,5.5,5.9,5.3c3.1-0.2,5.5-2.8,5.3-5.9
			c-0.1-3-2.6-5.3-5.6-5.3C89.3,50.3,89.2,50.3,89.1,50.3"/>
	</defs>
	<clipPath id="SVGID_14_">
		<use xlink:href="#SVGID_13_"  style="overflow:visible;"/>
	</clipPath>
	<path class="st15" d="M85.4,50.5l8,10.9c0,0-6,3.2-9.1-1.3C81.2,55.5,85.4,50.5,85.4,50.5"/>
</g>
<g>
	<defs>
		<rect id="SVGID_15_" x="0.3" y="0" width="121.5" height="118"/>
	</defs>
	<clipPath id="SVGID_16_">
		<use xlink:href="#SVGID_15_"  style="overflow:visible;"/>
	</clipPath>
	<line class="st16" x1="84.1" y1="52" x2="83.6" y2="52.7"/>
	<path class="st16" d="M95.8,57.6c0,0-0.1,1.5-1.4,2.5"/>
	<path class="st17" d="M39.5,59.4c-2.1,3.7-6.7,5-10.4,2.9c-3.7-2.1-5-6.7-2.9-10.4c2.1-3.7,6.7-5,10.4-2.9
		C40.3,51.1,41.6,55.8,39.5,59.4"/>
	<path class="st18" d="M28,52.9c-1.5,2.7-0.6,6.1,2.1,7.7c2.7,1.5,6.1,0.6,7.7-2.1c1.5-2.7,0.6-6.1-2.1-7.7
		C32.9,49.3,29.5,50.2,28,52.9"/>
</g>
<g>
	<defs>
		<path id="SVGID_17_" d="M28,52.9c-1.5,2.7-0.6,6.1,2.1,7.7c2.7,1.5,6.1,0.6,7.7-2.1c1.5-2.7,0.6-6.1-2.1-7.7
			c-0.9-0.5-1.8-0.7-2.8-0.7C30.9,50.1,29,51.1,28,52.9"/>
	</defs>
	<clipPath id="SVGID_18_">
		<use xlink:href="#SVGID_17_"  style="overflow:visible;"/>
	</clipPath>
	<path class="st19" d="M33.3,62.4L32.4,49c0,0,6.8,0.5,7,6C39.5,60.4,33.3,62.4,33.3,62.4"/>
</g>
<g>
	<defs>
		<rect id="SVGID_19_" x="0.3" y="0" width="121.5" height="118"/>
	</defs>
	<clipPath id="SVGID_20_">
		<use xlink:href="#SVGID_19_"  style="overflow:visible;"/>
	</clipPath>
	<line class="st20" x1="35.2" y1="61.8" x2="36" y2="61.4"/>
	<path class="st20" d="M28.3,50.8c0,0,0.9-1.2,2.5-1.3"/>
	<path class="st21" d="M22.9,67.9c-3.7-2.1-4.9-6.8-2.8-10.4c2.1-3.7,6.8-4.9,10.4-2.8c3.7,2.1,4.9,6.8,2.8,10.4
		C31.3,68.7,26.6,69.9,22.9,67.9"/>
	<path class="st22" d="M29.5,56.3c-2.7-1.5-6.1-0.6-7.7,2.1c-1.5,2.7-0.6,6.1,2.1,7.7c2.7,1.5,6.1,0.6,7.7-2.1
		C33.1,61.3,32.2,57.9,29.5,56.3"/>
</g>
<g>
	<defs>
		<path id="SVGID_21_" d="M21.8,58.4c-1.5,2.7-0.6,6.1,2.1,7.7c2.7,1.5,6.1,0.6,7.7-2.1c1.5-2.7,0.6-6.1-2.1-7.7
			c-0.9-0.5-1.8-0.7-2.8-0.7C24.8,55.6,22.9,56.6,21.8,58.4"/>
	</defs>
	<clipPath id="SVGID_22_">
		<use xlink:href="#SVGID_21_"  style="overflow:visible;"/>
	</clipPath>
	<path class="st23" d="M20,61.6l13.5-0.9c0,0-0.5,6.8-6,6.9C22,67.8,20,61.6,20,61.6"/>
</g>
<g>
	<defs>
		<rect id="SVGID_23_" x="0.3" y="0" width="121.5" height="118"/>
	</defs>
	<clipPath id="SVGID_24_">
		<use xlink:href="#SVGID_23_"  style="overflow:visible;"/>
	</clipPath>
	<line class="st24" x1="20.6" y1="63.5" x2="20.9" y2="64.4"/>
	<path class="st24" d="M31.6,56.7c0,0,1.2,0.9,1.3,2.5"/>
	<path class="st25" d="M49.2,60c-3.3,2.6-8.1,2-10.7-1.3c-2.6-3.3-2-8.1,1.3-10.7c3.3-2.6,8.1-2,10.7,1.3
		C53.1,52.6,52.6,57.4,49.2,60"/>
	<path class="st26" d="M41,49.6c-2.4,1.9-2.9,5.5-0.9,7.9c1.9,2.4,5.5,2.9,7.9,0.9c2.4-1.9,2.9-5.5,0.9-7.9
		C47,48.1,43.5,47.7,41,49.6"/>
</g>
<g>
	<defs>
		<path id="SVGID_25_" d="M41.1,49.6c-2.4,1.9-2.9,5.5-0.9,7.9c1.9,2.4,5.5,2.9,7.9,0.9c2.4-1.9,2.9-5.5,0.9-7.9
			c-1.1-1.4-2.8-2.1-4.4-2.1C43.3,48.4,42.1,48.8,41.1,49.6"/>
	</defs>
	<clipPath id="SVGID_26_">
		<use xlink:href="#SVGID_25_"  style="overflow:visible;"/>
	</clipPath>
	<path class="st27" d="M42.4,60.4l4.3-12.8c0,0,6.1,3,4.2,8.2C48.9,60.9,42.4,60.4,42.4,60.4"/>
</g>
<g>
	<defs>
		<rect id="SVGID_27_" x="0.3" y="0" width="121.5" height="118"/>
	</defs>
	<clipPath id="SVGID_28_">
		<use xlink:href="#SVGID_27_"  style="overflow:visible;"/>
	</clipPath>
	<line class="st28" x1="44.3" y1="60.6" x2="45.3" y2="60.5"/>
	<path class="st28" d="M42.2,47.8c0,0,1.3-0.8,2.8-0.3"/>
	<path class="st29" d="M34.8,59.4c1.3-4,5.6-6.2,9.6-5c4,1.3,6.2,5.6,5,9.6c-1.3,4-5.6,6.2-9.6,5C35.7,67.7,33.5,63.4,34.8,59.4"/>
	<path class="st30" d="M47.4,63.4c0.9-3-0.7-6.1-3.7-7.1c-3-0.9-6.1,0.7-7.1,3.7c-0.9,3,0.7,6.1,3.7,7.1
		C43.3,68,46.5,66.4,47.4,63.4"/>
</g>
<g>
	<defs>
		<path id="SVGID_29_" d="M36.7,60c-0.9,3,0.7,6.1,3.7,7.1c3,0.9,6.1-0.7,7.1-3.7c0.9-3-0.7-6.1-3.7-7.1c-0.6-0.2-1.1-0.3-1.7-0.3
			C39.7,56.1,37.5,57.6,36.7,60"/>
	</defs>
	<clipPath id="SVGID_30_">
		<use xlink:href="#SVGID_29_"  style="overflow:visible;"/>
	</clipPath>
	<path class="st31" d="M40.2,55.2l3.7,13c0,0-6.8,0.9-8-4.4C34.6,58.4,40.2,55.2,40.2,55.2"/>
</g>
<g>
	<defs>
		<rect id="SVGID_31_" x="0.3" y="0" width="121.5" height="118"/>
	</defs>
	<clipPath id="SVGID_32_">
		<use xlink:href="#SVGID_31_"  style="overflow:visible;"/>
	</clipPath>
	<line class="st32" x1="38.5" y1="56.2" x2="37.8" y2="56.7"/>
	<path class="st32" d="M47.5,65.5c0,0-0.6,1.3-2.2,1.8"/>
	<path class="st33" d="M63,61.5c-2.8,3.2-7.6,3.5-10.8,0.8c-3.2-2.8-3.5-7.6-0.8-10.8c2.8-3.2,7.6-3.5,10.8-0.8
		C65.4,53.4,65.7,58.3,63,61.5"/>
	<path class="st34" d="M52.9,52.8c-2,2.3-1.8,5.9,0.6,7.9c2.3,2,5.9,1.8,7.9-0.6c2-2.3,1.8-5.9-0.6-7.9C58.5,50.2,55,50.4,52.9,52.8
		"/>
</g>
<g>
	<defs>
		<path id="SVGID_33_" d="M52.9,52.8c-2,2.3-1.8,5.9,0.6,7.9c2.3,2,5.9,1.8,7.9-0.6c2-2.3,1.8-5.9-0.6-7.9c-1.1-0.9-2.4-1.4-3.7-1.4
			C55.6,50.8,54,51.5,52.9,52.8"/>
	</defs>
	<clipPath id="SVGID_34_">
		<use xlink:href="#SVGID_33_"  style="overflow:visible;"/>
	</clipPath>
	<path class="st35" d="M56.3,63.1L58,49.8c0,0,6.6,1.8,5.6,7.2C62.8,62.4,56.3,63.1,56.3,63.1"/>
</g>
<g>
	<defs>
		<rect id="SVGID_35_" x="0.3" y="0" width="121.5" height="118"/>
	</defs>
	<clipPath id="SVGID_36_">
		<use xlink:href="#SVGID_35_"  style="overflow:visible;"/>
	</clipPath>
	<line class="st36" x1="58.3" y1="62.9" x2="59.2" y2="62.7"/>
	<path class="st36" d="M53.7,50.8c0,0,1.1-1,2.7-0.8"/>
	<path class="st37" d="M68.5,67.5c-4.2,0-7.6-3.4-7.6-7.6c0-4.2,3.4-7.6,7.6-7.6s7.6,3.4,7.6,7.6C76.1,64.1,72.7,67.5,68.5,67.5"/>
	<path class="st38" d="M68.5,54.3c-3.1,0-5.6,2.5-5.6,5.6s2.5,5.6,5.6,5.6s5.6-2.5,5.6-5.6S71.6,54.3,68.5,54.3"/>
</g>
<g>
	<defs>
		<path id="SVGID_37_" d="M62.9,59.9c0,3.1,2.5,5.6,5.6,5.6c3.1,0,5.6-2.5,5.6-5.6c0-3.1-2.5-5.6-5.6-5.6
			C65.4,54.3,62.9,56.8,62.9,59.9"/>
	</defs>
	<clipPath id="SVGID_38_">
		<use xlink:href="#SVGID_37_"  style="overflow:visible;"/>
	</clipPath>
	<path class="st39" d="M62.9,63.6l11.3-7.4c0,0,2.9,6.2-1.8,9C67.6,68,62.9,63.6,62.9,63.6"/>
</g>
<g>
	<defs>
		<rect id="SVGID_39_" x="0.3" y="0" width="121.5" height="118"/>
	</defs>
	<clipPath id="SVGID_40_">
		<use xlink:href="#SVGID_39_"  style="overflow:visible;"/>
	</clipPath>
	<line class="st40" x1="64.3" y1="64.9" x2="65" y2="65.5"/>
	<path class="st40" d="M70.5,53.5c0,0,1.4,0.2,2.4,1.5"/>
	<path class="st41" d="M94.3,66.3c-4.2,0-7.6-3.4-7.6-7.6c0-4.2,3.4-7.6,7.6-7.6c4.2,0,7.6,3.4,7.6,7.6
		C101.9,62.9,98.5,66.3,94.3,66.3"/>
	<path class="st42" d="M94.3,53c-3.1,0-5.6,2.5-5.6,5.6c0,3.1,2.5,5.6,5.6,5.6c3.1,0,5.6-2.5,5.6-5.6C99.9,55.6,97.4,53,94.3,53"/>
</g>
<g>
	<defs>
		<path id="SVGID_41_" d="M88.7,58.7c0,3.1,2.5,5.6,5.6,5.6c3.1,0,5.6-2.5,5.6-5.6c0-3.1-2.5-5.6-5.6-5.6
			C91.2,53,88.7,55.6,88.7,58.7"/>
	</defs>
	<clipPath id="SVGID_42_">
		<use xlink:href="#SVGID_41_"  style="overflow:visible;"/>
	</clipPath>
	<path class="st43" d="M88.7,62.4l11.3-7.4c0,0,2.9,6.2-1.8,9C93.4,66.8,88.7,62.4,88.7,62.4"/>
</g>
<g>
	<defs>
		<rect id="SVGID_43_" x="0.3" y="0" width="121.5" height="118"/>
	</defs>
	<clipPath id="SVGID_44_">
		<use xlink:href="#SVGID_43_"  style="overflow:visible;"/>
	</clipPath>
	<line class="st44" x1="90.1" y1="63.7" x2="90.8" y2="64.2"/>
	<path class="st44" d="M96.3,52.3c0,0,1.4,0.2,2.4,1.5"/>
	<path class="st45" d="M19.2,19c-2.1-0.5-3.7-2.7-3.5-4.9c0.2-2.2,2.1-3.6,4.3-3.1c2.1,0.5,3.7,2.7,3.5,4.9
		C23.3,18.1,21.3,19.5,19.2,19"/>
	<path class="st46" d="M19.8,18.4c-2.1-0.5-3.7-2.7-3.5-4.9c0.2-2.2,2.1-3.6,4.3-3.1c2.1,0.5,3.7,2.7,3.5,4.9
		C23.9,17.5,22,18.9,19.8,18.4"/>
	<path class="st47" d="M20.5,11.4c-1.6-0.4-3,0.7-3.2,2.3c-0.2,1.6,1,3.3,2.6,3.6c1.6,0.4,3-0.7,3.2-2.3
		C23.2,13.4,22.1,11.8,20.5,11.4"/>
</g>
<g>
	<defs>
		<path id="SVGID_45_" d="M17.4,13.7c-0.2,1.6,1,3.3,2.6,3.6c1.6,0.4,3-0.7,3.2-2.3c0.2-1.6-1-3.3-2.6-3.6c-0.2-0.1-0.4-0.1-0.6-0.1
			C18.6,11.3,17.5,12.3,17.4,13.7"/>
	</defs>
	<clipPath id="SVGID_46_">
		<use xlink:href="#SVGID_45_"  style="overflow:visible;"/>
	</clipPath>
	<path class="st48" d="M17.2,15.6l6.1-2.6c0,0,1.2,3.6-1.4,4.5C19.4,18.5,17.2,15.6,17.2,15.6"/>
</g>
<g>
	<defs>
		<rect id="SVGID_47_" x="0.3" y="0" width="121.5" height="118"/>
	</defs>
	<clipPath id="SVGID_48_">
		<use xlink:href="#SVGID_47_"  style="overflow:visible;"/>
	</clipPath>
	<line class="st49" x1="17.8" y1="16.5" x2="18.2" y2="16.9"/>
	<path class="st49" d="M21.6,11.2c0,0,0.7,0.3,1.1,1.1"/>
	<path class="st50" d="M15.7,47.3c-4,0.8-8.3-1.8-9.6-5.8C4.8,37.6,7,33.8,11,33c4-0.8,8.3,1.8,9.6,5.8
		C21.9,42.7,19.7,46.5,15.7,47.3"/>
	<path class="st51" d="M16.3,45.8c-4,0.8-8.3-1.8-9.6-5.8c-1.3-3.9,0.9-7.7,5-8.5c4-0.8,8.3,1.8,9.6,5.8
		C22.5,41.2,20.3,45,16.3,45.8"/>
	<path class="st52" d="M12.2,33.4c-3,0.6-4.6,3.4-3.7,6.3c0.9,2.9,4.1,4.8,7.1,4.2c3-0.6,4.6-3.4,3.7-6.3
		C18.4,34.8,15.2,32.9,12.2,33.4"/>
</g>
<g>
	<defs>
		<path id="SVGID_49_" d="M12.2,33.4c-3,0.6-4.6,3.4-3.7,6.3c0.9,2.9,4.1,4.8,7.1,4.2c3-0.6,4.6-3.4,3.7-6.3c-0.8-2.6-3.4-4.3-6-4.3
			C12.9,33.3,12.6,33.4,12.2,33.4"/>
	</defs>
	<clipPath id="SVGID_50_">
		<use xlink:href="#SVGID_49_"  style="overflow:visible;"/>
	</clipPath>
	<path class="st53" d="M9.7,43.1l8.5-8.9c0,0,4.7,5.2,1,8.7C15.6,46.4,9.7,43.1,9.7,43.1"/>
</g>
<g>
	<defs>
		<rect id="SVGID_51_" x="0.3" y="0" width="121.5" height="118"/>
	</defs>
	<clipPath id="SVGID_52_">
		<use xlink:href="#SVGID_51_"  style="overflow:visible;"/>
	</clipPath>
	<line class="st54" x1="11.5" y1="44.1" x2="12.3" y2="44.5"/>
	<path class="st54" d="M13.9,32.4c0,0,1.4-0.1,2.8,1"/>
	<path class="st55" d="M59.5,45.3c-3.9,0.8-7.7-1.7-8.5-5.6c-0.8-3.9,1.7-7.7,5.6-8.5c3.9-0.8,7.7,1.7,8.5,5.6
		C66,40.6,63.4,44.5,59.5,45.3"/>
	<path class="st56" d="M60,44.6c-3.9,0.8-7.7-1.7-8.5-5.6c-0.8-3.9,1.7-7.7,5.6-8.5c3.9-0.8,7.7,1.7,8.5,5.6
		C66.4,40,63.9,43.8,60,44.6"/>
	<path class="st57" d="M57.5,32.3c-2.9,0.6-4.7,3.4-4.1,6.3c0.6,2.9,3.4,4.7,6.3,4.1c2.9-0.6,4.7-3.4,4.1-6.3
		C63.2,33.6,60.4,31.7,57.5,32.3"/>
</g>
<g>
	<defs>
		<path id="SVGID_53_" d="M57.5,32.3c-2.9,0.6-4.7,3.4-4.1,6.3c0.6,2.9,3.4,4.7,6.3,4.1c2.9-0.6,4.7-3.4,4.1-6.3
			c-0.5-2.5-2.7-4.3-5.2-4.3C58.2,32.2,57.8,32.2,57.5,32.3"/>
	</defs>
	<clipPath id="SVGID_54_">
		<use xlink:href="#SVGID_53_"  style="overflow:visible;"/>
	</clipPath>
	<path class="st58" d="M54,42l9-9c0,0,3.9,5.2,0.1,8.7C59.3,45.2,54,42,54,42"/>
</g>
<g>
	<defs>
		<rect id="SVGID_55_" x="0.3" y="0" width="121.5" height="118"/>
	</defs>
	<clipPath id="SVGID_56_">
		<use xlink:href="#SVGID_55_"  style="overflow:visible;"/>
	</clipPath>
	<line class="st59" x1="55.6" y1="43" x2="56.4" y2="43.4"/>
	<path class="st59" d="M59.2,31.3c0,0,1.4-0.1,2.5,1"/>
	<path class="st60" d="M87.2,61.4c-3,3-7.8,3-10.8,0.1c-3-3-3-7.8-0.1-10.8c3-3,7.8-3,10.8-0.1S90.1,58.4,87.2,61.4"/>
	<path class="st61" d="M77.7,52.1c-2.2,2.2-2.1,5.8,0.1,8c2.2,2.2,5.8,2.1,8-0.1c2.2-2.2,2.1-5.8-0.1-8
		C83.5,49.9,79.9,49.9,77.7,52.1"/>
</g>
<g>
	<defs>
		<path id="SVGID_57_" d="M77.7,52.1c-2.2,2.2-2.1,5.8,0.1,8c2.2,2.2,5.8,2.1,8-0.1c2.2-2.2,2.1-5.8-0.1-8c-1.1-1.1-2.5-1.6-3.9-1.6
			C80.3,50.5,78.8,51,77.7,52.1"/>
	</defs>
	<clipPath id="SVGID_58_">
		<use xlink:href="#SVGID_57_"  style="overflow:visible;"/>
	</clipPath>
	<path class="st62" d="M80.4,62.7L83,49.5c0,0,6.4,2.2,5.2,7.6C86.9,62.4,80.4,62.7,80.4,62.7"/>
</g>
<g>
	<defs>
		<rect id="SVGID_59_" x="0.3" y="0" width="121.5" height="118"/>
	</defs>
	<clipPath id="SVGID_60_">
		<use xlink:href="#SVGID_59_"  style="overflow:visible;"/>
	</clipPath>
	<line class="st63" x1="82.4" y1="62.6" x2="83.3" y2="62.5"/>
	<path class="st63" d="M78.6,50.2c0,0,1.1-0.9,2.8-0.6"/>
	<polygon class="st64" points="84.8,60.5 84.8,101.5 23.8,96.7 15.1,55.9 	"/>
	<polygon class="st65" points="79.3,65.3 79.3,95.8 27.6,91.7 21.2,61.4 	"/>
	<path class="st66" d="M82.8,97.9c0,0.6-0.5,1-1,1s-1-0.5-1-1c0-0.6,0.5-1,1-1S82.8,97.3,82.8,97.9"/>
	<path class="st66" d="M82.8,89.4c0,0.6-0.5,1-1,1s-1-0.5-1-1c0-0.6,0.5-1,1-1S82.8,88.8,82.8,89.4"/>
	<path class="st66" d="M82.8,80.9c0,0.6-0.5,1-1,1s-1-0.5-1-1c0-0.6,0.5-1,1-1S82.8,80.3,82.8,80.9"/>
	<path class="st66" d="M82.8,72.4c0,0.6-0.5,1-1,1s-1-0.5-1-1c0-0.6,0.5-1,1-1S82.8,71.9,82.8,72.4"/>
	<path class="st66" d="M82.8,63.9c0,0.6-0.5,1-1,1s-1-0.5-1-1c0-0.6,0.5-1,1-1S82.8,63.4,82.8,63.9"/>
	<path class="st66" d="M57.9,59.9c0.6,0,1,0.5,1,1.1c0,0.6-0.5,1-1.1,1c-0.6,0-1-0.5-1-1.1C56.9,60.3,57.3,59.9,57.9,59.9"/>
	<path class="st66" d="M66.4,60.4c0.6,0,1,0.5,1,1.1c0,0.6-0.5,1-1.1,1c-0.6,0-1-0.5-1-1.1C65.3,60.8,65.8,60.4,66.4,60.4"/>
	<path class="st66" d="M74.8,60.9c0.6,0,1,0.5,1,1.1c0,0.6-0.5,1-1.1,1c-0.6,0-1-0.5-1-1.1C73.8,61.3,74.3,60.9,74.8,60.9"/>
	<path class="st66" d="M32.5,58.5c0.6,0,1,0.5,1,1.1c0,0.6-0.5,1-1.1,1c-0.6,0-1-0.5-1-1.1C31.5,58.8,31.9,58.4,32.5,58.5"/>
	<path class="st66" d="M24,58c0.6,0,1,0.5,1,1.1c0,0.6-0.5,1-1.1,1c-0.6,0-1-0.5-1-1.1C23,58.4,23.5,57.9,24,58"/>
	<path class="st66" d="M65.9,96.3c0.6,0,1,0.5,0.9,1.1c0,0.6-0.5,1-1.1,0.9c-0.6,0-1-0.5-0.9-1.1C64.9,96.7,65.4,96.3,65.9,96.3"/>
	<path class="st66" d="M57.5,95.7c0.6,0,1,0.5,0.9,1.1c0,0.6-0.5,1-1.1,0.9c-0.6,0-1-0.5-0.9-1.1C56.4,96,56.9,95.6,57.5,95.7"/>
	<path class="st66" d="M74.4,97c0.6,0,1,0.5,0.9,1.1c0,0.6-0.5,1-1.1,0.9c-0.6,0-1-0.5-0.9-1.1C73.3,97.4,73.8,96.9,74.4,97"/>
	<path class="st66" d="M49,95c0.6,0,1,0.5,0.9,1.1c0,0.6-0.5,1-1.1,0.9c-0.6,0-1-0.5-0.9-1.1C48,95.4,48.4,94.9,49,95"/>
	<path class="st66" d="M40.5,94.3c0.6,0,1,0.5,0.9,1.1c0,0.6-0.5,1-1.1,0.9s-1-0.5-0.9-1.1C39.5,94.7,40,94.3,40.5,94.3"/>
	<path class="st66" d="M32.1,93.7c0.6,0,1,0.5,0.9,1.1c0,0.6-0.5,1-1.1,0.9c-0.6,0-1-0.5-0.9-1.1C31,94,31.5,93.6,32.1,93.7"/>
	<path class="st66" d="M26.7,93.8c0,0.6-0.5,1-1,1c-0.6,0-1-0.5-1-1c0-0.6,0.5-1,1-1C26.3,92.8,26.7,93.2,26.7,93.8"/>
	<path class="st66" d="M24.7,85.3c0,0.6-0.5,1-1,1c-0.6,0-1-0.5-1-1c0-0.6,0.5-1,1-1C24.2,84.3,24.7,84.7,24.7,85.3"/>
	<path class="st66" d="M23,76.8c0,0.6-0.5,1-1,1c-0.6,0-1-0.5-1-1c0-0.6,0.5-1,1-1C22.5,75.8,23,76.2,23,76.8"/>
	<path class="st66" d="M21.2,68.3c0,0.6-0.5,1-1,1c-0.6,0-1-0.5-1-1c0-0.6,0.5-1,1-1C20.8,67.3,21.2,67.7,21.2,68.3"/>
	<path class="st66" d="M19.5,59.5c0,0.6-0.5,1-1,1c-0.6,0-1-0.5-1-1c0-0.6,0.5-1,1-1C19.1,58.4,19.5,58.9,19.5,59.5"/>
</g>
<g>
	<defs>
		<polygon id="SVGID_61_" points="27.6,91.7 79.3,95.8 79.3,65.3 21.2,61.4 		"/>
	</defs>
	<clipPath id="SVGID_62_">
		<use xlink:href="#SVGID_61_"  style="overflow:visible;"/>
	</clipPath>
	<line class="st67" x1="20.6" y1="67.6" x2="81.1" y2="72.1"/>
	<line class="st67" x1="20.6" y1="76.2" x2="81.1" y2="80.7"/>
	<line class="st67" x1="20.6" y1="84.8" x2="81.1" y2="89.3"/>
</g>
<g>
	<defs>
		<rect id="SVGID_63_" x="0.3" y="0" width="121.5" height="118"/>
	</defs>
	<clipPath id="SVGID_64_">
		<use xlink:href="#SVGID_63_"  style="overflow:visible;"/>
	</clipPath>
	<polygon class="st68" points="36.1,59.9 39.2,68.5 51.5,69.3 54.6,60.9 	"/>
	<polygon class="st69" points="51.5,69.3 53.1,68.5 55.2,63.7 53.5,63.7 	"/>
	<path class="st69" d="M46.7,62c0,1.1-0.9,2-2,2c-1.1,0-2-0.9-2-2c0-1.1,0.9-2,2-2C45.8,59.9,46.7,60.9,46.7,62"/>
	<polygon class="st69" points="42.8,66.8 46.3,67 45.5,62.8 43.7,62.8 	"/>
	<polygon class="st70" points="84.8,60.5 107.5,53.3 102.3,89.7 84.8,101.5 	"/>
	<polygon class="st69" points="89,64.3 103.1,59 99.8,86.6 89,93.9 	"/>
	<path class="st71" d="M87.7,97.2c0,0.6-0.3,1-0.7,1c-0.4,0-0.7-0.5-0.7-1c0-0.6,0.3-1,0.7-1C87.4,96.2,87.7,96.7,87.7,97.2"/>
	<path class="st71" d="M93.7,93.7c0,0.6-0.3,1-0.7,1c-0.4,0-0.7-0.5-0.7-1c0-0.6,0.3-1,0.7-1C93.4,92.6,93.7,93.1,93.7,93.7"/>
	<path class="st71" d="M99.1,89.8c0,0.6-0.3,1-0.7,1c-0.4,0-0.7-0.5-0.7-1s0.3-1,0.7-1C98.8,88.8,99.1,89.2,99.1,89.8"/>
	<path class="st71" d="M94.3,60.2c0,0.6-0.3,1-0.7,1c-0.4,0-0.7-0.5-0.7-1c0-0.6,0.3-1,0.7-1C94,59.2,94.3,59.6,94.3,60.2"/>
	<path class="st71" d="M101.7,57.7c0,0.6-0.3,1-0.7,1c-0.4,0-0.7-0.5-0.7-1c0-0.6,0.3-1,0.7-1C101.3,56.7,101.7,57.1,101.7,57.7"/>
	<path class="st71" d="M87.7,88.8c0,0.6-0.3,1-0.7,1c-0.4,0-0.7-0.5-0.7-1c0-0.6,0.3-1,0.7-1C87.4,87.7,87.7,88.2,87.7,88.8"/>
	<path class="st71" d="M87.7,80.3c0,0.6-0.3,1-0.7,1c-0.4,0-0.7-0.5-0.7-1c0-0.6,0.3-1,0.7-1C87.4,79.3,87.7,79.7,87.7,80.3"/>
	<path class="st71" d="M87.7,71.8c0,0.6-0.3,1-0.7,1c-0.4,0-0.7-0.5-0.7-1c0-0.6,0.3-1,0.7-1C87.4,70.8,87.7,71.2,87.7,71.8"/>
	<path class="st71" d="M87.7,63.3c0,0.6-0.3,1-0.7,1c-0.4,0-0.7-0.5-0.7-1c0-0.6,0.3-1,0.7-1C87.4,62.3,87.7,62.7,87.7,63.3"/>
	<path class="st71" d="M102.3,85.5c-0.1,0.6-0.4,1-0.9,0.9c-0.4,0-0.7-0.5-0.6-1.1c0.1-0.6,0.4-1,0.9-0.9
		C102.1,84.4,102.3,84.9,102.3,85.5"/>
	<path class="st71" d="M103.3,77c-0.1,0.6-0.5,1-0.9,0.9c-0.4,0-0.7-0.5-0.6-1.1c0.1-0.6,0.4-1,0.9-0.9
		C103.1,76,103.3,76.5,103.3,77"/>
	<path class="st71" d="M104.3,68.6c-0.1,0.6-0.4,1-0.9,0.9c-0.4,0-0.7-0.5-0.6-1.1c0.1-0.6,0.4-1,0.9-0.9
		C104.1,67.6,104.3,68,104.3,68.6"/>
	<path class="st71" d="M105.3,60.2c-0.1,0.6-0.4,1-0.9,0.9c-0.4,0-0.7-0.5-0.6-1.1c0.1-0.6,0.5-1,0.9-0.9
		C105.1,59.1,105.4,59.6,105.3,60.2"/>
</g>
<g>
	<defs>
		<polygon id="SVGID_65_" points="89,64.3 89,93.9 99.8,86.6 103.1,59 		"/>
	</defs>
	<clipPath id="SVGID_66_">
		<use xlink:href="#SVGID_65_"  style="overflow:visible;"/>
	</clipPath>
	<line class="st72" x1="87.7" y1="71.8" x2="104.6" y2="65.5"/>
	<line class="st72" x1="87.7" y1="80.4" x2="103.5" y2="73.2"/>
	<line class="st72" x1="87.8" y1="88.2" x2="102.5" y2="79.9"/>
</g>
<g>
	<defs>
		<rect id="SVGID_67_" x="0.3" y="0" width="121.5" height="118"/>
	</defs>
	<clipPath id="SVGID_68_">
		<use xlink:href="#SVGID_67_"  style="overflow:visible;"/>
	</clipPath>
	<polygon class="st73" points="72,0 72.8,2 74.8,2.8 72.8,3.5 72,5.6 71.3,3.5 69.2,2.8 71.3,2 	"/>
	<polygon class="st73" points="119,51.3 119.7,53.3 121.7,54.1 119.7,54.8 119,56.8 118.2,54.8 116.2,54.1 118.2,53.3 	"/>
	<polygon class="st73" points="3.6,49.6 4.3,51.6 6.4,52.4 4.3,53.1 3.6,55.1 2.8,53.1 0.8,52.4 2.8,51.6 	"/>
	<polygon class="st73" points="73.2,33.1 73.9,34.9 75.7,35.6 73.9,36.3 73.2,38.1 72.5,36.3 70.7,35.6 72.5,34.9 	"/>
	<polygon class="st73" points="34.1,35.9 34.7,37.6 36.4,38.2 34.7,38.8 34.1,40.5 33.4,38.8 31.7,38.2 33.4,37.6 	"/>
	<path class="st73" d="M86.1,42.3c0,0.7-0.6,1.3-1.3,1.3s-1.3-0.6-1.3-1.3c0-0.7,0.6-1.3,1.3-1.3S86.1,41.6,86.1,42.3"/>
	<polygon class="st73" points="49.5,74 50.2,75.8 52,76.5 50.2,77.2 49.5,79 48.8,77.2 47,76.5 48.8,75.8 	"/>
	<path class="st73" d="M60.2,63c0,0.8-0.7,1.4-1.5,1.4c-0.8,0-1.4-0.7-1.4-1.5c0-0.8,0.7-1.4,1.5-1.4C59.6,61.5,60.2,62.2,60.2,63"
		/>
	<path class="st73" d="M60.1,67.2c0,0.8-0.7,1.4-1.5,1.4c-0.8,0-1.4-0.7-1.4-1.5c0-0.8,0.7-1.4,1.5-1.4
		C59.5,65.7,60.1,66.4,60.1,67.2"/>
	<path class="st73" d="M60.1,71.6c0,0.8-0.7,1.4-1.5,1.4c-0.8,0-1.4-0.7-1.4-1.5c0-0.8,0.7-1.4,1.5-1.4
		C59.5,70.1,60.2,70.8,60.1,71.6"/>
	<path class="st73" d="M60.4,76c0,0.8-0.7,1.4-1.5,1.4c-0.8,0-1.4-0.7-1.4-1.5s0.7-1.4,1.5-1.4C59.8,74.5,60.4,75.2,60.4,76"/>
	<path class="st73" d="M62.7,79.5c0,0.8-0.7,1.4-1.5,1.4c-0.8,0-1.4-0.7-1.4-1.5c0-0.8,0.7-1.4,1.5-1.4
		C62.1,78.1,62.8,78.7,62.7,79.5"/>
	<path class="st73" d="M72.6,63.8c0,0.8,0.6,1.5,1.4,1.5c0.8,0,1.5-0.6,1.5-1.4c0-0.8-0.6-1.5-1.4-1.5C73.3,62.4,72.6,63,72.6,63.8"
		/>
	<path class="st73" d="M72.4,68c0,0.8,0.6,1.5,1.4,1.5c0.8,0,1.5-0.6,1.5-1.4c0-0.8-0.6-1.5-1.4-1.5C73.1,66.5,72.5,67.2,72.4,68"/>
	<path class="st73" d="M60.4,58.9c0,0.8-0.7,1.4-1.5,1.4c-0.8,0-1.4-0.7-1.4-1.5c0-0.8,0.7-1.4,1.5-1.4
		C59.8,57.5,60.4,58.1,60.4,58.9"/>
	<path class="st73" d="M72.7,59.7c0,0.8,0.6,1.5,1.4,1.5c0.8,0,1.5-0.6,1.5-1.4c0-0.8-0.6-1.5-1.4-1.5
		C73.4,58.3,72.8,58.9,72.7,59.7"/>
	<path class="st73" d="M72,72.3c0,0.8,0.6,1.5,1.4,1.5s1.5-0.6,1.5-1.4c0-0.8-0.6-1.5-1.4-1.5C72.7,70.9,72.1,71.5,72,72.3"/>
	<path class="st73" d="M71.5,76.7c0,0.8,0.6,1.5,1.4,1.5s1.5-0.6,1.5-1.4c0-0.8-0.6-1.5-1.4-1.5C72.2,75.3,71.5,75.9,71.5,76.7"/>
	<path class="st73" d="M68.8,80.1c0,0.8,0.6,1.5,1.4,1.5c0.8,0,1.5-0.6,1.5-1.4c0-0.8-0.6-1.5-1.4-1.5
		C69.5,78.7,68.9,79.3,68.8,80.1"/>
	<path class="st73" d="M67,81.1c0,0.8-0.7,1.4-1.5,1.4c-0.8,0-1.4-0.7-1.4-1.5s0.7-1.4,1.5-1.4C66.4,79.7,67,80.3,67,81.1"/>
	<path class="st74" d="M2,87.3c2.3-2.1,6.1-2.1,8.4-0.1c2.3,2,2.3,5.3,0,7.4c-2.3,2.1-6.1,2.1-8.4,0.1C-0.3,92.7-0.3,89.4,2,87.3"/>
	<path class="st75" d="M2.2,86.5c2.3-1.9,6.1-2,8.4-0.1c2.3,1.9,2.3,4.9,0,6.9c-2.3,1.9-6.1,2-8.4,0.1C-0.1,91.5-0.2,88.5,2.2,86.5"
		/>
	<path class="st76" d="M3.3,87.4c-1.7,1.4-1.7,3.7,0,5.1c1.7,1.4,4.5,1.3,6.2-0.1c1.7-1.4,1.7-3.7,0-5.1C7.8,86,5,86,3.3,87.4"/>
</g>
<g>
	<defs>
		<path id="SVGID_69_" d="M3.3,87.4c-1.7,1.4-1.7,3.7,0,5.1c1.7,1.4,4.5,1.3,6.2-0.1c1.7-1.4,1.7-3.7,0-5.1c-0.8-0.7-1.9-1-3-1
			C5.3,86.3,4.1,86.7,3.3,87.4"/>
	</defs>
	<clipPath id="SVGID_70_">
		<use xlink:href="#SVGID_69_"  style="overflow:visible;"/>
	</clipPath>
	<path class="st77" d="M7.5,94.1l-2.1-8.4c0,0-5,1.5-4,4.9C2.4,94,7.5,94.1,7.5,94.1"/>
</g>
<g>
	<defs>
		<rect id="SVGID_71_" x="0.3" y="0" width="121.5" height="118"/>
	</defs>
	<clipPath id="SVGID_72_">
		<use xlink:href="#SVGID_71_"  style="overflow:visible;"/>
	</clipPath>
	<line class="st78" x1="5.9" y1="94.1" x2="5.2" y2="94"/>
	<path class="st78" d="M8.8,86.1c0,0-0.9-0.6-2.2-0.4"/>
	<path class="st79" d="M59.5,117.6c-4,1.2-8.5-0.1-10.1-2.9c-1.6-2.8,0.4-6,4.4-7.2c4-1.2,8.5,0.1,10.1,2.9
		C65.4,113.1,63.4,116.4,59.5,117.6"/>
	<polygon class="st79" points="48.9,113.4 48.7,110 64.2,109.3 64.4,112.6 57,117.2 	"/>
	<path class="st80" d="M59.3,114.9c-4,1.2-8.5-0.1-10.1-2.9c-1.6-2.8,0.4-6,4.4-7.2c4-1.2,8.5,0.1,10.1,2.9
		C65.3,110.5,63.3,113.7,59.3,114.9"/>
	<path class="st81" d="M54.7,106c-3,0.7-4.7,2.8-3.7,4.8c0.9,2,4.2,3.1,7.2,2.4c3-0.7,4.7-2.8,3.7-4.8
		C60.9,106.4,57.7,105.3,54.7,106"/>
</g>
<g>
	<defs>
		<path id="SVGID_73_" d="M54.7,106c-3,0.7-4.7,2.8-3.7,4.8c0.9,2,4.2,3.1,7.2,2.4c3-0.7,4.7-2.8,3.7-4.8c-0.8-1.6-3-2.6-5.4-2.6
			C55.9,105.8,55.3,105.9,54.7,106"/>
	</defs>
	<clipPath id="SVGID_74_">
		<use xlink:href="#SVGID_73_"  style="overflow:visible;"/>
	</clipPath>
	<path class="st82" d="M52.1,113.2l8.6-7.2c0,0,4.7,3.4,1,6.2C58,115.1,52.1,113.2,52.1,113.2"/>
</g>
<g>
	<defs>
		<rect id="SVGID_75_" x="0.3" y="0" width="121.5" height="118"/>
	</defs>
	<clipPath id="SVGID_76_">
		<use xlink:href="#SVGID_75_"  style="overflow:visible;"/>
	</clipPath>
	<line class="st83" x1="54.4" y1="114.4" x2="55.3" y2="114.5"/>
	<path class="st83" d="M56,105.1c0,0,1.4-0.3,2.9,0.3"/>
</g>
</svg>
