<?xml version="1.0" encoding="utf-8"?>
<!-- Generator: Adobe Illustrator 19.0.0, SVG Export Plug-In . SVG Version: 6.00 Build 0)  -->
<svg version="1.1" id="图层_1" xmlns="http://www.w3.org/2000/svg" xmlns:xlink="http://www.w3.org/1999/xlink" x="0px" y="0px"
	 viewBox="0 0 38 38" style="enable-background:new 0 0 38 38;" xml:space="preserve">
<style type="text/css">
	.st0{fill:#FFFFFF;}
	.st1{fill:none;}
</style>
<path class="st0" d="M8.9,0.4c-1.7,0-3.2,1.4-3.2,3.2v2.3H1.9C0.9,5.9,0,6.7,0,7.8v3.8c0,1.2,0.8,2.7,1.9,3.8l4.2,3.3l11,8.9v3.2
	h3.8v-3.2l11-8.9l4.2-3.3c1.3-1,1.9-2.6,1.9-3.8V7.8c0-1-0.9-1.9-1.9-1.9h-3.8V3.9V3.6c0-1.7-1.4-3.2-3.2-3.2H8.9z M19,5.9L20.6,9
	l3.5,0.5L21.5,12l0.6,3.5L19,13.9l-3.1,1.7l0.6-3.5l-2.5-2.5l3.5-0.5L19,5.9z M1.9,7.8h3.8v8.1l-2.5-2c-0.9-0.9-1.3-1.8-1.3-2.4V7.8
	z M32.3,7.8h3.8v3.8h0c0,0.5-0.4,1.5-1.3,2.4l-2.6,2V7.8z M15.9,30.9c-0.8,0-1.4,0.6-1.6,1.3c0.1,0,0.2,0,0.2,0h8.9
	c0.1,0,0.2,0,0.2,0c-0.1-0.8-0.8-1.3-1.6-1.3H15.9z M14.6,32.4c-1.1,0-1.9,0.7-2.2,1.7h13.3c-0.2-1-1.1-1.7-2.2-1.7H14.6z M9.8,34.3
	c-0.2,0-0.4,0.2-0.4,0.4v2.5c0,0.2,0.2,0.4,0.4,0.4h18.4c0.2,0,0.4-0.2,0.4-0.4v-2.5c0-0.2-0.2-0.4-0.4-0.4H9.8z"/>
<rect x="0" y="0.4" class="st1" width="38" height="37.2"/>
</svg>
